<?xml version="1.0" encoding="utf-8" standalone="no"?>
<!DOCTYPE svg PUBLIC "-//W3C//DTD SVG 1.1//EN"
  "http://www.w3.org/Graphics/SVG/1.1/DTD/svg11.dtd">
<!-- Created with matplotlib (https://matplotlib.org/) -->
<svg height="360pt" version="1.1" viewBox="0 0 432 360" width="432pt" xmlns="http://www.w3.org/2000/svg" xmlns:xlink="http://www.w3.org/1999/xlink">
 <metadata>
  <rdf:RDF xmlns:cc="http://creativecommons.org/ns#" xmlns:dc="http://purl.org/dc/elements/1.1/" xmlns:rdf="http://www.w3.org/1999/02/22-rdf-syntax-ns#">
   <cc:Work>
    <dc:type rdf:resource="http://purl.org/dc/dcmitype/StillImage"/>
    <dc:date>2021-07-12T00:28:15.188096</dc:date>
    <dc:format>image/svg+xml</dc:format>
    <dc:creator>
     <cc:Agent>
      <dc:title>Matplotlib v3.3.1, https://matplotlib.org/</dc:title>
     </cc:Agent>
    </dc:creator>
   </cc:Work>
  </rdf:RDF>
 </metadata>
 <defs>
  <style type="text/css">*{stroke-linecap:butt;stroke-linejoin:round;}</style>
 </defs>
 <g id="figure_1">
  <g id="patch_1">
   <path d="M 0 360 
L 432 360 
L 432 0 
L 0 0 
z
" style="fill:#ffffff;"/>
  </g>
  <g id="axes_1">
   <g id="patch_2">
    <path d="M 54 320.4 
L 388.8 320.4 
L 388.8 43.2 
L 54 43.2 
z
" style="fill:#ffffff;"/>
   </g>
   <g id="PolyCollection_1">
    <defs>
     <path d="M 111.702871 -66.409725 
L 107.897129 -66.409725 
L 107.595274 -68.811647 
L 107.27435 -71.213569 
L 106.936513 -73.615491 
L 106.583536 -76.017413 
L 106.21643 -78.419335 
L 105.835054 -80.821257 
L 105.43777 -83.223179 
L 105.021178 -85.625101 
L 104.580002 -88.027023 
L 104.107175 -90.428944 
L 103.594147 -92.830866 
L 103.031445 -95.232788 
L 102.409439 -97.63471 
L 101.719269 -100.036632 
L 100.953836 -102.438554 
L 100.108755 -104.840476 
L 99.183162 -107.242398 
L 98.180259 -109.64432 
L 97.107533 -112.046242 
L 95.976615 -114.448164 
L 94.802781 -116.850086 
L 93.60417 -119.252008 
L 92.400783 -121.65393 
L 91.213404 -124.055852 
L 90.062517 -126.457774 
L 88.967338 -128.859696 
L 87.944986 -131.261618 
L 87.009808 -133.66354 
L 86.172858 -136.065462 
L 85.441464 -138.467384 
L 84.818881 -140.869306 
L 84.304008 -143.271228 
L 83.891239 -145.67315 
L 83.570508 -148.075072 
L 83.327666 -150.476994 
L 83.145292 -152.878916 
L 83.004014 -155.280838 
L 82.88433 -157.68276 
L 82.768799 -160.084682 
L 82.644358 -162.486604 
L 82.504429 -164.888526 
L 82.350425 -167.290448 
L 82.192321 -169.69237 
L 82.048024 -172.094292 
L 81.94153 -174.496214 
L 81.9 -176.898135 
L 81.950165 -179.300057 
L 82.114582 -181.701979 
L 82.408347 -184.103901 
L 82.836816 -186.505823 
L 83.394709 -188.907745 
L 84.066764 -191.309667 
L 84.829812 -193.711589 
L 85.655915 -196.113511 
L 86.516036 -198.515433 
L 87.383642 -200.917355 
L 88.237676 -203.319277 
L 89.064477 -205.721199 
L 89.858419 -208.123121 
L 90.621271 -210.525043 
L 91.360475 -212.926965 
L 92.086711 -215.328887 
L 92.811177 -217.730809 
L 93.543054 -220.132731 
L 94.287534 -222.534653 
L 95.044676 -224.936575 
L 95.809205 -227.338497 
L 96.571214 -229.740419 
L 97.317577 -232.142341 
L 98.033796 -234.544263 
L 98.70596 -236.946185 
L 99.32252 -239.348107 
L 99.875621 -241.750029 
L 100.361863 -244.151951 
L 100.782448 -246.553873 
L 101.142766 -248.955795 
L 101.451555 -251.357717 
L 101.719811 -253.759639 
L 101.959614 -256.161561 
L 102.183023 -258.563483 
L 102.401175 -260.965405 
L 102.623621 -263.367326 
L 102.857947 -265.769248 
L 103.109632 -268.17117 
L 103.382098 -270.573092 
L 103.676891 -272.975014 
L 103.99391 -275.376936 
L 104.331657 -277.778858 
L 104.687452 -280.18078 
L 105.05764 -282.582702 
L 105.43778 -284.984624 
L 105.822838 -287.386546 
L 106.207426 -289.788468 
L 106.58605 -292.19039 
L 106.953396 -294.592312 
L 107.304606 -296.994234 
L 107.635512 -299.396156 
L 107.94281 -301.798078 
L 108.224156 -304.2 
L 111.375844 -304.2 
L 111.375844 -304.2 
L 111.65719 -301.798078 
L 111.964488 -299.396156 
L 112.295394 -296.994234 
L 112.646604 -294.592312 
L 113.01395 -292.19039 
L 113.392574 -289.788468 
L 113.777162 -287.386546 
L 114.16222 -284.984624 
L 114.54236 -282.582702 
L 114.912548 -280.18078 
L 115.268343 -277.778858 
L 115.60609 -275.376936 
L 115.923109 -272.975014 
L 116.217902 -270.573092 
L 116.490368 -268.17117 
L 116.742053 -265.769248 
L 116.976379 -263.367326 
L 117.198825 -260.965405 
L 117.416977 -258.563483 
L 117.640386 -256.161561 
L 117.880189 -253.759639 
L 118.148445 -251.357717 
L 118.457234 -248.955795 
L 118.817552 -246.553873 
L 119.238137 -244.151951 
L 119.724379 -241.750029 
L 120.27748 -239.348107 
L 120.89404 -236.946185 
L 121.566204 -234.544263 
L 122.282423 -232.142341 
L 123.028786 -229.740419 
L 123.790795 -227.338497 
L 124.555324 -224.936575 
L 125.312466 -222.534653 
L 126.056946 -220.132731 
L 126.788823 -217.730809 
L 127.513289 -215.328887 
L 128.239525 -212.926965 
L 128.978729 -210.525043 
L 129.741581 -208.123121 
L 130.535523 -205.721199 
L 131.362324 -203.319277 
L 132.216358 -200.917355 
L 133.083964 -198.515433 
L 133.944085 -196.113511 
L 134.770188 -193.711589 
L 135.533236 -191.309667 
L 136.205291 -188.907745 
L 136.763184 -186.505823 
L 137.191653 -184.103901 
L 137.485418 -181.701979 
L 137.649835 -179.300057 
L 137.7 -176.898135 
L 137.65847 -174.496214 
L 137.551976 -172.094292 
L 137.407679 -169.69237 
L 137.249575 -167.290448 
L 137.095571 -164.888526 
L 136.955642 -162.486604 
L 136.831201 -160.084682 
L 136.71567 -157.68276 
L 136.595986 -155.280838 
L 136.454708 -152.878916 
L 136.272334 -150.476994 
L 136.029492 -148.075072 
L 135.708761 -145.67315 
L 135.295992 -143.271228 
L 134.781119 -140.869306 
L 134.158536 -138.467384 
L 133.427142 -136.065462 
L 132.590192 -133.66354 
L 131.655014 -131.261618 
L 130.632662 -128.859696 
L 129.537483 -126.457774 
L 128.386596 -124.055852 
L 127.199217 -121.65393 
L 125.99583 -119.252008 
L 124.797219 -116.850086 
L 123.623385 -114.448164 
L 122.492467 -112.046242 
L 121.419741 -109.64432 
L 120.416838 -107.242398 
L 119.491245 -104.840476 
L 118.646164 -102.438554 
L 117.880731 -100.036632 
L 117.190561 -97.63471 
L 116.568555 -95.232788 
L 116.005853 -92.830866 
L 115.492825 -90.428944 
L 115.019998 -88.027023 
L 114.578822 -85.625101 
L 114.16223 -83.223179 
L 113.764946 -80.821257 
L 113.38357 -78.419335 
L 113.016464 -76.017413 
L 112.663487 -73.615491 
L 112.32565 -71.213569 
L 112.004726 -68.811647 
L 111.702871 -66.409725 
z
" id="m636d27b52e" style="stroke:#ffc0cb;stroke-opacity:0.3;"/>
    </defs>
    <g clip-path="url(#pbdcc30a3c6)">
     <use style="fill:#ff0000;fill-opacity:0.3;stroke:#ffc0cb;stroke-opacity:0.3;" x="0" xlink:href="#m636d27b52e" y="360"/>
    </g>
   </g>
   <g id="PolyCollection_2">
    <defs>
     <path d="M 223.500955 -72.88982 
L 219.299045 -72.88982 
L 218.934228 -75.036141 
L 218.546557 -77.182461 
L 218.141862 -79.328782 
L 217.726108 -81.475103 
L 217.304725 -83.621423 
L 216.881968 -85.767744 
L 216.460402 -87.914064 
L 216.040599 -90.060385 
L 215.621101 -92.206706 
L 215.198636 -94.353026 
L 214.768552 -96.499347 
L 214.32536 -98.645667 
L 213.86329 -100.791988 
L 213.376726 -102.938309 
L 212.860469 -105.084629 
L 212.309776 -107.23095 
L 211.720222 -109.37727 
L 211.087464 -111.523591 
L 210.407032 -113.669911 
L 209.674273 -115.816232 
L 208.88455 -117.962553 
L 208.033752 -120.108873 
L 207.119087 -122.255194 
L 206.140062 -124.401514 
L 205.0995 -126.547835 
L 204.004397 -128.694156 
L 202.866436 -130.840476 
L 201.702021 -132.986797 
L 200.531769 -135.133117 
L 199.379494 -137.279438 
L 198.270793 -139.425759 
L 197.231444 -141.572079 
L 196.285816 -143.7184 
L 195.455494 -145.86472 
L 194.758266 -148.011041 
L 194.20753 -150.157361 
L 193.812085 -152.303682 
L 193.576227 -154.450003 
L 193.5 -156.596323 
L 193.579498 -158.742644 
L 193.807103 -160.888964 
L 194.171661 -163.035285 
L 194.658616 -165.181606 
L 195.250197 -167.327926 
L 195.92577 -169.474247 
L 196.662427 -171.620567 
L 197.435885 -173.766888 
L 198.221641 -175.913209 
L 198.996341 -178.059529 
L 199.739183 -180.20585 
L 200.433225 -182.35217 
L 201.066415 -184.498491 
L 201.632232 -186.644811 
L 202.129829 -188.791132 
L 202.563702 -190.937453 
L 202.942884 -193.083773 
L 203.279799 -195.230094 
L 203.588864 -197.376414 
L 203.885022 -199.522735 
L 204.182311 -201.669056 
L 204.492631 -203.815376 
L 204.824791 -205.961697 
L 205.183935 -208.108017 
L 205.571384 -210.254338 
L 205.98491 -212.400659 
L 206.419402 -214.546979 
L 206.867861 -216.6933 
L 207.322586 -218.83962 
L 207.776404 -220.985941 
L 208.223771 -223.132262 
L 208.661567 -225.278582 
L 209.089473 -227.424903 
L 209.509868 -229.571223 
L 209.927266 -231.717544 
L 210.347402 -233.863864 
L 210.776135 -236.010185 
L 211.218364 -238.156506 
L 211.677135 -240.302826 
L 212.153093 -242.449147 
L 212.644339 -244.595467 
L 213.146671 -246.741788 
L 213.654159 -248.888109 
L 214.159905 -251.034429 
L 214.656859 -253.18075 
L 215.138578 -255.32707 
L 215.599817 -257.473391 
L 216.036896 -259.619712 
L 216.447854 -261.766032 
L 216.832377 -263.912353 
L 217.191561 -266.058673 
L 217.527563 -268.204994 
L 217.843185 -270.351314 
L 218.141449 -272.497635 
L 218.425215 -274.643956 
L 218.696861 -276.790276 
L 218.958069 -278.936597 
L 219.209713 -281.082917 
L 219.451855 -283.229238 
L 219.683836 -285.375559 
L 223.116164 -285.375559 
L 223.116164 -285.375559 
L 223.348145 -283.229238 
L 223.590287 -281.082917 
L 223.841931 -278.936597 
L 224.103139 -276.790276 
L 224.374785 -274.643956 
L 224.658551 -272.497635 
L 224.956815 -270.351314 
L 225.272437 -268.204994 
L 225.608439 -266.058673 
L 225.967623 -263.912353 
L 226.352146 -261.766032 
L 226.763104 -259.619712 
L 227.200183 -257.473391 
L 227.661422 -255.32707 
L 228.143141 -253.18075 
L 228.640095 -251.034429 
L 229.145841 -248.888109 
L 229.653329 -246.741788 
L 230.155661 -244.595467 
L 230.646907 -242.449147 
L 231.122865 -240.302826 
L 231.581636 -238.156506 
L 232.023865 -236.010185 
L 232.452598 -233.863864 
L 232.872734 -231.717544 
L 233.290132 -229.571223 
L 233.710527 -227.424903 
L 234.138433 -225.278582 
L 234.576229 -223.132262 
L 235.023596 -220.985941 
L 235.477414 -218.83962 
L 235.932139 -216.6933 
L 236.380598 -214.546979 
L 236.81509 -212.400659 
L 237.228616 -210.254338 
L 237.616065 -208.108017 
L 237.975209 -205.961697 
L 238.307369 -203.815376 
L 238.617689 -201.669056 
L 238.914978 -199.522735 
L 239.211136 -197.376414 
L 239.520201 -195.230094 
L 239.857116 -193.083773 
L 240.236298 -190.937453 
L 240.670171 -188.791132 
L 241.167768 -186.644811 
L 241.733585 -184.498491 
L 242.366775 -182.35217 
L 243.060817 -180.20585 
L 243.803659 -178.059529 
L 244.578359 -175.913209 
L 245.364115 -173.766888 
L 246.137573 -171.620567 
L 246.87423 -169.474247 
L 247.549803 -167.327926 
L 248.141384 -165.181606 
L 248.628339 -163.035285 
L 248.992897 -160.888964 
L 249.220502 -158.742644 
L 249.3 -156.596323 
L 249.223773 -154.450003 
L 248.987915 -152.303682 
L 248.59247 -150.157361 
L 248.041734 -148.011041 
L 247.344506 -145.86472 
L 246.514184 -143.7184 
L 245.568556 -141.572079 
L 244.529207 -139.425759 
L 243.420506 -137.279438 
L 242.268231 -135.133117 
L 241.097979 -132.986797 
L 239.933564 -130.840476 
L 238.795603 -128.694156 
L 237.7005 -126.547835 
L 236.659938 -124.401514 
L 235.680913 -122.255194 
L 234.766248 -120.108873 
L 233.91545 -117.962553 
L 233.125727 -115.816232 
L 232.392968 -113.669911 
L 231.712536 -111.523591 
L 231.079778 -109.37727 
L 230.490224 -107.23095 
L 229.939531 -105.084629 
L 229.423274 -102.938309 
L 228.93671 -100.791988 
L 228.47464 -98.645667 
L 228.031448 -96.499347 
L 227.601364 -94.353026 
L 227.178899 -92.206706 
L 226.759401 -90.060385 
L 226.339598 -87.914064 
L 225.918032 -85.767744 
L 225.495275 -83.621423 
L 225.073892 -81.475103 
L 224.658138 -79.328782 
L 224.253443 -77.182461 
L 223.865772 -75.036141 
L 223.500955 -72.88982 
z
" id="m254177a45c" style="stroke:#add8e6;stroke-opacity:0.3;"/>
    </defs>
    <g clip-path="url(#pbdcc30a3c6)">
     <use style="fill:#0000ff;fill-opacity:0.3;stroke:#add8e6;stroke-opacity:0.3;" x="0" xlink:href="#m254177a45c" y="360"/>
    </g>
   </g>
   <g id="PolyCollection_3">
    <defs>
     <path d="M 333.85793 -52.2 
L 332.14207 -52.2 
L 331.978224 -54.742671 
L 331.786765 -57.285342 
L 331.561714 -59.828013 
L 331.29636 -62.370685 
L 330.983599 -64.913356 
L 330.61628 -67.456027 
L 330.187486 -69.998698 
L 329.69069 -72.541369 
L 329.119773 -75.08404 
L 328.468961 -77.626711 
L 327.73277 -80.169382 
L 326.906107 -82.712054 
L 325.984611 -85.254725 
L 324.965332 -87.797396 
L 323.84768 -90.340067 
L 322.634547 -92.882738 
L 321.333384 -95.425409 
L 319.956984 -97.96808 
L 318.52374 -100.510752 
L 317.057217 -103.053423 
L 315.585003 -105.596094 
L 314.136925 -108.138765 
L 312.742869 -110.681436 
L 311.430509 -113.224107 
L 310.223285 -115.766778 
L 309.138917 -118.30945 
L 308.188649 -120.852121 
L 307.377258 -123.394792 
L 306.703753 -125.937463 
L 306.162558 -128.480134 
L 305.744937 -131.022805 
L 305.440425 -133.565476 
L 305.238105 -136.108147 
L 305.127632 -138.650819 
L 305.1 -141.19349 
L 305.148078 -143.736161 
L 305.266944 -146.278832 
L 305.454005 -148.821503 
L 305.70885 -151.364174 
L 306.032762 -153.906845 
L 306.427862 -156.449517 
L 306.895889 -158.992188 
L 307.436756 -161.534859 
L 308.047105 -164.07753 
L 308.719145 -166.620201 
L 309.440063 -169.162872 
L 310.19223 -171.705543 
L 310.954304 -174.248215 
L 311.703173 -176.790886 
L 312.416491 -179.333557 
L 313.075449 -181.876228 
L 313.667288 -184.418899 
L 314.187094 -186.96157 
L 314.638482 -189.504241 
L 315.032958 -192.046912 
L 315.388026 -194.589584 
L 315.724354 -197.132255 
L 316.062531 -199.674926 
L 316.420065 -202.217597 
L 316.809202 -204.760268 
L 317.235957 -207.302939 
L 317.700465 -209.84561 
L 318.198428 -212.388282 
L 318.723198 -214.930953 
L 319.267926 -217.473624 
L 319.827239 -220.016295 
L 320.398101 -222.558966 
L 320.979748 -225.101637 
L 321.572858 -227.644308 
L 322.178277 -230.18698 
L 322.795693 -232.729651 
L 323.422621 -235.272322 
L 324.053922 -237.814993 
L 324.681914 -240.357664 
L 325.297013 -242.900335 
L 325.888722 -245.443006 
L 326.446762 -247.985677 
L 326.962153 -250.528349 
L 327.428115 -253.07102 
L 327.840697 -255.613691 
L 328.199097 -258.156362 
L 328.505673 -260.699033 
L 328.765651 -263.241704 
L 328.986558 -265.784375 
L 329.177431 -268.327047 
L 329.347886 -270.869718 
L 329.507156 -273.412389 
L 329.663223 -275.95506 
L 329.822187 -278.497731 
L 329.987935 -281.040402 
L 330.162172 -283.583073 
L 330.344738 -286.125744 
L 330.53414 -288.668416 
L 330.728142 -291.211087 
L 330.924281 -293.753758 
L 331.120229 -296.296429 
L 331.313941 -298.8391 
L 331.503632 -301.381771 
L 331.687641 -303.924442 
L 334.312359 -303.924442 
L 334.312359 -303.924442 
L 334.496368 -301.381771 
L 334.686059 -298.8391 
L 334.879771 -296.296429 
L 335.075719 -293.753758 
L 335.271858 -291.211087 
L 335.46586 -288.668416 
L 335.655262 -286.125744 
L 335.837828 -283.583073 
L 336.012065 -281.040402 
L 336.177813 -278.497731 
L 336.336777 -275.95506 
L 336.492844 -273.412389 
L 336.652114 -270.869718 
L 336.822569 -268.327047 
L 337.013442 -265.784375 
L 337.234349 -263.241704 
L 337.494327 -260.699033 
L 337.800903 -258.156362 
L 338.159303 -255.613691 
L 338.571885 -253.07102 
L 339.037847 -250.528349 
L 339.553238 -247.985677 
L 340.111278 -245.443006 
L 340.702987 -242.900335 
L 341.318086 -240.357664 
L 341.946078 -237.814993 
L 342.577379 -235.272322 
L 343.204307 -232.729651 
L 343.821723 -230.18698 
L 344.427142 -227.644308 
L 345.020252 -225.101637 
L 345.601899 -222.558966 
L 346.172761 -220.016295 
L 346.732074 -217.473624 
L 347.276802 -214.930953 
L 347.801572 -212.388282 
L 348.299535 -209.84561 
L 348.764043 -207.302939 
L 349.190798 -204.760268 
L 349.579935 -202.217597 
L 349.937469 -199.674926 
L 350.275646 -197.132255 
L 350.611974 -194.589584 
L 350.967042 -192.046912 
L 351.361518 -189.504241 
L 351.812906 -186.96157 
L 352.332712 -184.418899 
L 352.924551 -181.876228 
L 353.583509 -179.333557 
L 354.296827 -176.790886 
L 355.045696 -174.248215 
L 355.80777 -171.705543 
L 356.559937 -169.162872 
L 357.280855 -166.620201 
L 357.952895 -164.07753 
L 358.563244 -161.534859 
L 359.104111 -158.992188 
L 359.572138 -156.449517 
L 359.967238 -153.906845 
L 360.29115 -151.364174 
L 360.545995 -148.821503 
L 360.733056 -146.278832 
L 360.851922 -143.736161 
L 360.9 -141.19349 
L 360.872368 -138.650819 
L 360.761895 -136.108147 
L 360.559575 -133.565476 
L 360.255063 -131.022805 
L 359.837442 -128.480134 
L 359.296247 -125.937463 
L 358.622742 -123.394792 
L 357.811351 -120.852121 
L 356.861083 -118.30945 
L 355.776715 -115.766778 
L 354.569491 -113.224107 
L 353.257131 -110.681436 
L 351.863075 -108.138765 
L 350.414997 -105.596094 
L 348.942783 -103.053423 
L 347.47626 -100.510752 
L 346.043016 -97.96808 
L 344.666616 -95.425409 
L 343.365453 -92.882738 
L 342.15232 -90.340067 
L 341.034668 -87.797396 
L 340.015389 -85.254725 
L 339.093893 -82.712054 
L 338.26723 -80.169382 
L 337.531039 -77.626711 
L 336.880227 -75.08404 
L 336.30931 -72.541369 
L 335.812514 -69.998698 
L 335.38372 -67.456027 
L 335.016401 -64.913356 
L 334.70364 -62.370685 
L 334.438286 -59.828013 
L 334.213235 -57.285342 
L 334.021776 -54.742671 
L 333.85793 -52.2 
z
" id="ma6a4719506" style="stroke:#90ee90;stroke-opacity:0.3;"/>
    </defs>
    <g clip-path="url(#pbdcc30a3c6)">
     <use style="fill:#008000;fill-opacity:0.3;stroke:#90ee90;stroke-opacity:0.3;" x="0" xlink:href="#ma6a4719506" y="360"/>
    </g>
   </g>
   <g id="Quiver_1">
    <path clip-path="url(#pbdcc30a3c6)" d="M 109.8 273.20768 
L 216.8802 273.20768 
L 216.378 272.20328 
L 221.4 273.70988 
L 216.378 275.21648 
L 216.8802 274.21208 
L 109.8 274.21208 
L 109.8 273.20768 
" style="fill:#ff0000;"/>
   </g>
   <g id="Quiver_2">
    <path clip-path="url(#pbdcc30a3c6)" d="M 221.4 273.20768 
L 328.4802 273.20768 
L 327.978 272.20328 
L 333 273.70988 
L 327.978 275.21648 
L 328.4802 274.21208 
L 221.4 274.21208 
L 221.4 273.20768 
" style="fill:#ff0000;"/>
   </g>
   <g id="Quiver_3">
    <path clip-path="url(#pbdcc30a3c6)" d="M 109.8 296.300821 
L 328.4802 296.300821 
L 327.978 295.296421 
L 333 296.803021 
L 327.978 298.309621 
L 328.4802 297.305221 
L 109.8 297.305221 
L 109.8 296.300821 
" style="fill:#ff0000;"/>
   </g>
   <g id="Quiver_4">
    <path clip-path="url(#pbdcc30a3c6)" d="M 221.4 274.21208 
L 114.3198 274.21208 
L 114.822 275.21648 
L 109.8 273.70988 
L 114.822 272.20328 
L 114.3198 273.20768 
L 221.4 273.20768 
L 221.4 274.21208 
" style="fill:#ff0000;"/>
   </g>
   <g id="Quiver_5">
    <path clip-path="url(#pbdcc30a3c6)" d="M 333 274.21208 
L 225.9198 274.21208 
L 226.422 275.21648 
L 221.4 273.70988 
L 226.422 272.20328 
L 225.9198 273.20768 
L 333 273.20768 
L 333 274.21208 
" style="fill:#ff0000;"/>
   </g>
   <g id="Quiver_6">
    <path clip-path="url(#pbdcc30a3c6)" d="M 333 297.305221 
L 114.3198 297.305221 
L 114.822 298.309621 
L 109.8 296.803021 
L 114.822 295.296421 
L 114.3198 296.300821 
L 333 296.300821 
L 333 297.305221 
" style="fill:#ff0000;"/>
   </g>
   <g id="matplotlib.axis_1">
    <g id="xtick_1">
     <g id="line2d_1">
      <defs>
       <path d="M 0 0 
L 0 3.5 
" id="mc66b7c36ed" style="stroke:#000000;stroke-width:0.8;"/>
      </defs>
      <g>
       <use style="stroke:#000000;stroke-width:0.8;" x="109.8" xlink:href="#mc66b7c36ed" y="320.4"/>
      </g>
     </g>
     <g id="text_1">
      <!-- CN -->
      <g transform="translate(102.567969 334.998438)scale(0.1 -0.1)">
       <defs>
        <path d="M 64.40625 67.28125 
L 64.40625 56.890625 
Q 59.421875 61.53125 53.78125 63.8125 
Q 48.140625 66.109375 41.796875 66.109375 
Q 29.296875 66.109375 22.65625 58.46875 
Q 16.015625 50.828125 16.015625 36.375 
Q 16.015625 21.96875 22.65625 14.328125 
Q 29.296875 6.6875 41.796875 6.6875 
Q 48.140625 6.6875 53.78125 8.984375 
Q 59.421875 11.28125 64.40625 15.921875 
L 64.40625 5.609375 
Q 59.234375 2.09375 53.4375 0.328125 
Q 47.65625 -1.421875 41.21875 -1.421875 
Q 24.65625 -1.421875 15.125 8.703125 
Q 5.609375 18.84375 5.609375 36.375 
Q 5.609375 53.953125 15.125 64.078125 
Q 24.65625 74.21875 41.21875 74.21875 
Q 47.75 74.21875 53.53125 72.484375 
Q 59.328125 70.75 64.40625 67.28125 
z
" id="DejaVuSans-67"/>
        <path d="M 9.8125 72.90625 
L 23.09375 72.90625 
L 55.421875 11.921875 
L 55.421875 72.90625 
L 64.984375 72.90625 
L 64.984375 0 
L 51.703125 0 
L 19.390625 60.984375 
L 19.390625 0 
L 9.8125 0 
z
" id="DejaVuSans-78"/>
       </defs>
       <use xlink:href="#DejaVuSans-67"/>
       <use x="69.824219" xlink:href="#DejaVuSans-78"/>
      </g>
     </g>
    </g>
    <g id="xtick_2">
     <g id="line2d_2">
      <g>
       <use style="stroke:#000000;stroke-width:0.8;" x="221.4" xlink:href="#mc66b7c36ed" y="320.4"/>
      </g>
     </g>
     <g id="text_2">
      <!-- EMCI -->
      <g transform="translate(208.960156 334.998438)scale(0.1 -0.1)">
       <defs>
        <path d="M 9.8125 72.90625 
L 55.90625 72.90625 
L 55.90625 64.59375 
L 19.671875 64.59375 
L 19.671875 43.015625 
L 54.390625 43.015625 
L 54.390625 34.71875 
L 19.671875 34.71875 
L 19.671875 8.296875 
L 56.78125 8.296875 
L 56.78125 0 
L 9.8125 0 
z
" id="DejaVuSans-69"/>
        <path d="M 9.8125 72.90625 
L 24.515625 72.90625 
L 43.109375 23.296875 
L 61.8125 72.90625 
L 76.515625 72.90625 
L 76.515625 0 
L 66.890625 0 
L 66.890625 64.015625 
L 48.09375 14.015625 
L 38.1875 14.015625 
L 19.390625 64.015625 
L 19.390625 0 
L 9.8125 0 
z
" id="DejaVuSans-77"/>
        <path d="M 9.8125 72.90625 
L 19.671875 72.90625 
L 19.671875 0 
L 9.8125 0 
z
" id="DejaVuSans-73"/>
       </defs>
       <use xlink:href="#DejaVuSans-69"/>
       <use x="63.183594" xlink:href="#DejaVuSans-77"/>
       <use x="149.462891" xlink:href="#DejaVuSans-67"/>
       <use x="219.287109" xlink:href="#DejaVuSans-73"/>
      </g>
     </g>
    </g>
    <g id="xtick_3">
     <g id="line2d_3">
      <g>
       <use style="stroke:#000000;stroke-width:0.8;" x="333" xlink:href="#mc66b7c36ed" y="320.4"/>
      </g>
     </g>
     <g id="text_3">
      <!-- LMCI -->
      <g transform="translate(320.933594 334.998438)scale(0.1 -0.1)">
       <defs>
        <path d="M 9.8125 72.90625 
L 19.671875 72.90625 
L 19.671875 8.296875 
L 55.171875 8.296875 
L 55.171875 0 
L 9.8125 0 
z
" id="DejaVuSans-76"/>
       </defs>
       <use xlink:href="#DejaVuSans-76"/>
       <use x="55.712891" xlink:href="#DejaVuSans-77"/>
       <use x="141.992188" xlink:href="#DejaVuSans-67"/>
       <use x="211.816406" xlink:href="#DejaVuSans-73"/>
      </g>
     </g>
    </g>
    <g id="text_4">
     <!-- Three separate samples -->
     <g transform="translate(161.04375 348.676562)scale(0.1 -0.1)">
      <defs>
       <path d="M -0.296875 72.90625 
L 61.375 72.90625 
L 61.375 64.59375 
L 35.5 64.59375 
L 35.5 0 
L 25.59375 0 
L 25.59375 64.59375 
L -0.296875 64.59375 
z
" id="DejaVuSans-84"/>
       <path d="M 54.890625 33.015625 
L 54.890625 0 
L 45.90625 0 
L 45.90625 32.71875 
Q 45.90625 40.484375 42.875 44.328125 
Q 39.84375 48.1875 33.796875 48.1875 
Q 26.515625 48.1875 22.3125 43.546875 
Q 18.109375 38.921875 18.109375 30.90625 
L 18.109375 0 
L 9.078125 0 
L 9.078125 75.984375 
L 18.109375 75.984375 
L 18.109375 46.1875 
Q 21.34375 51.125 25.703125 53.5625 
Q 30.078125 56 35.796875 56 
Q 45.21875 56 50.046875 50.171875 
Q 54.890625 44.34375 54.890625 33.015625 
z
" id="DejaVuSans-104"/>
       <path d="M 41.109375 46.296875 
Q 39.59375 47.171875 37.8125 47.578125 
Q 36.03125 48 33.890625 48 
Q 26.265625 48 22.1875 43.046875 
Q 18.109375 38.09375 18.109375 28.8125 
L 18.109375 0 
L 9.078125 0 
L 9.078125 54.6875 
L 18.109375 54.6875 
L 18.109375 46.1875 
Q 20.953125 51.171875 25.484375 53.578125 
Q 30.03125 56 36.53125 56 
Q 37.453125 56 38.578125 55.875 
Q 39.703125 55.765625 41.0625 55.515625 
z
" id="DejaVuSans-114"/>
       <path d="M 56.203125 29.59375 
L 56.203125 25.203125 
L 14.890625 25.203125 
Q 15.484375 15.921875 20.484375 11.0625 
Q 25.484375 6.203125 34.421875 6.203125 
Q 39.59375 6.203125 44.453125 7.46875 
Q 49.3125 8.734375 54.109375 11.28125 
L 54.109375 2.78125 
Q 49.265625 0.734375 44.1875 -0.34375 
Q 39.109375 -1.421875 33.890625 -1.421875 
Q 20.796875 -1.421875 13.15625 6.1875 
Q 5.515625 13.8125 5.515625 26.8125 
Q 5.515625 40.234375 12.765625 48.109375 
Q 20.015625 56 32.328125 56 
Q 43.359375 56 49.78125 48.890625 
Q 56.203125 41.796875 56.203125 29.59375 
z
M 47.21875 32.234375 
Q 47.125 39.59375 43.09375 43.984375 
Q 39.0625 48.390625 32.421875 48.390625 
Q 24.90625 48.390625 20.390625 44.140625 
Q 15.875 39.890625 15.1875 32.171875 
z
" id="DejaVuSans-101"/>
       <path id="DejaVuSans-32"/>
       <path d="M 44.28125 53.078125 
L 44.28125 44.578125 
Q 40.484375 46.53125 36.375 47.5 
Q 32.28125 48.484375 27.875 48.484375 
Q 21.1875 48.484375 17.84375 46.4375 
Q 14.5 44.390625 14.5 40.28125 
Q 14.5 37.15625 16.890625 35.375 
Q 19.28125 33.59375 26.515625 31.984375 
L 29.59375 31.296875 
Q 39.15625 29.25 43.1875 25.515625 
Q 47.21875 21.78125 47.21875 15.09375 
Q 47.21875 7.46875 41.1875 3.015625 
Q 35.15625 -1.421875 24.609375 -1.421875 
Q 20.21875 -1.421875 15.453125 -0.5625 
Q 10.6875 0.296875 5.421875 2 
L 5.421875 11.28125 
Q 10.40625 8.6875 15.234375 7.390625 
Q 20.0625 6.109375 24.8125 6.109375 
Q 31.15625 6.109375 34.5625 8.28125 
Q 37.984375 10.453125 37.984375 14.40625 
Q 37.984375 18.0625 35.515625 20.015625 
Q 33.0625 21.96875 24.703125 23.78125 
L 21.578125 24.515625 
Q 13.234375 26.265625 9.515625 29.90625 
Q 5.8125 33.546875 5.8125 39.890625 
Q 5.8125 47.609375 11.28125 51.796875 
Q 16.75 56 26.8125 56 
Q 31.78125 56 36.171875 55.265625 
Q 40.578125 54.546875 44.28125 53.078125 
z
" id="DejaVuSans-115"/>
       <path d="M 18.109375 8.203125 
L 18.109375 -20.796875 
L 9.078125 -20.796875 
L 9.078125 54.6875 
L 18.109375 54.6875 
L 18.109375 46.390625 
Q 20.953125 51.265625 25.265625 53.625 
Q 29.59375 56 35.59375 56 
Q 45.5625 56 51.78125 48.09375 
Q 58.015625 40.1875 58.015625 27.296875 
Q 58.015625 14.40625 51.78125 6.484375 
Q 45.5625 -1.421875 35.59375 -1.421875 
Q 29.59375 -1.421875 25.265625 0.953125 
Q 20.953125 3.328125 18.109375 8.203125 
z
M 48.6875 27.296875 
Q 48.6875 37.203125 44.609375 42.84375 
Q 40.53125 48.484375 33.40625 48.484375 
Q 26.265625 48.484375 22.1875 42.84375 
Q 18.109375 37.203125 18.109375 27.296875 
Q 18.109375 17.390625 22.1875 11.75 
Q 26.265625 6.109375 33.40625 6.109375 
Q 40.53125 6.109375 44.609375 11.75 
Q 48.6875 17.390625 48.6875 27.296875 
z
" id="DejaVuSans-112"/>
       <path d="M 34.28125 27.484375 
Q 23.390625 27.484375 19.1875 25 
Q 14.984375 22.515625 14.984375 16.5 
Q 14.984375 11.71875 18.140625 8.90625 
Q 21.296875 6.109375 26.703125 6.109375 
Q 34.1875 6.109375 38.703125 11.40625 
Q 43.21875 16.703125 43.21875 25.484375 
L 43.21875 27.484375 
z
M 52.203125 31.203125 
L 52.203125 0 
L 43.21875 0 
L 43.21875 8.296875 
Q 40.140625 3.328125 35.546875 0.953125 
Q 30.953125 -1.421875 24.3125 -1.421875 
Q 15.921875 -1.421875 10.953125 3.296875 
Q 6 8.015625 6 15.921875 
Q 6 25.140625 12.171875 29.828125 
Q 18.359375 34.515625 30.609375 34.515625 
L 43.21875 34.515625 
L 43.21875 35.40625 
Q 43.21875 41.609375 39.140625 45 
Q 35.0625 48.390625 27.6875 48.390625 
Q 23 48.390625 18.546875 47.265625 
Q 14.109375 46.140625 10.015625 43.890625 
L 10.015625 52.203125 
Q 14.9375 54.109375 19.578125 55.046875 
Q 24.21875 56 28.609375 56 
Q 40.484375 56 46.34375 49.84375 
Q 52.203125 43.703125 52.203125 31.203125 
z
" id="DejaVuSans-97"/>
       <path d="M 18.3125 70.21875 
L 18.3125 54.6875 
L 36.8125 54.6875 
L 36.8125 47.703125 
L 18.3125 47.703125 
L 18.3125 18.015625 
Q 18.3125 11.328125 20.140625 9.421875 
Q 21.96875 7.515625 27.59375 7.515625 
L 36.8125 7.515625 
L 36.8125 0 
L 27.59375 0 
Q 17.1875 0 13.234375 3.875 
Q 9.28125 7.765625 9.28125 18.015625 
L 9.28125 47.703125 
L 2.6875 47.703125 
L 2.6875 54.6875 
L 9.28125 54.6875 
L 9.28125 70.21875 
z
" id="DejaVuSans-116"/>
       <path d="M 52 44.1875 
Q 55.375 50.25 60.0625 53.125 
Q 64.75 56 71.09375 56 
Q 79.640625 56 84.28125 50.015625 
Q 88.921875 44.046875 88.921875 33.015625 
L 88.921875 0 
L 79.890625 0 
L 79.890625 32.71875 
Q 79.890625 40.578125 77.09375 44.375 
Q 74.3125 48.1875 68.609375 48.1875 
Q 61.625 48.1875 57.5625 43.546875 
Q 53.515625 38.921875 53.515625 30.90625 
L 53.515625 0 
L 44.484375 0 
L 44.484375 32.71875 
Q 44.484375 40.625 41.703125 44.40625 
Q 38.921875 48.1875 33.109375 48.1875 
Q 26.21875 48.1875 22.15625 43.53125 
Q 18.109375 38.875 18.109375 30.90625 
L 18.109375 0 
L 9.078125 0 
L 9.078125 54.6875 
L 18.109375 54.6875 
L 18.109375 46.1875 
Q 21.1875 51.21875 25.484375 53.609375 
Q 29.78125 56 35.6875 56 
Q 41.65625 56 45.828125 52.96875 
Q 50 49.953125 52 44.1875 
z
" id="DejaVuSans-109"/>
       <path d="M 9.421875 75.984375 
L 18.40625 75.984375 
L 18.40625 0 
L 9.421875 0 
z
" id="DejaVuSans-108"/>
      </defs>
      <use xlink:href="#DejaVuSans-84"/>
      <use x="61.083984" xlink:href="#DejaVuSans-104"/>
      <use x="124.462891" xlink:href="#DejaVuSans-114"/>
      <use x="163.326172" xlink:href="#DejaVuSans-101"/>
      <use x="224.849609" xlink:href="#DejaVuSans-101"/>
      <use x="286.373047" xlink:href="#DejaVuSans-32"/>
      <use x="318.160156" xlink:href="#DejaVuSans-115"/>
      <use x="370.259766" xlink:href="#DejaVuSans-101"/>
      <use x="431.783203" xlink:href="#DejaVuSans-112"/>
      <use x="495.259766" xlink:href="#DejaVuSans-97"/>
      <use x="556.539062" xlink:href="#DejaVuSans-114"/>
      <use x="597.652344" xlink:href="#DejaVuSans-97"/>
      <use x="658.931641" xlink:href="#DejaVuSans-116"/>
      <use x="698.140625" xlink:href="#DejaVuSans-101"/>
      <use x="759.664062" xlink:href="#DejaVuSans-32"/>
      <use x="791.451172" xlink:href="#DejaVuSans-115"/>
      <use x="843.550781" xlink:href="#DejaVuSans-97"/>
      <use x="904.830078" xlink:href="#DejaVuSans-109"/>
      <use x="1002.242188" xlink:href="#DejaVuSans-112"/>
      <use x="1065.71875" xlink:href="#DejaVuSans-108"/>
      <use x="1093.501953" xlink:href="#DejaVuSans-101"/>
      <use x="1155.025391" xlink:href="#DejaVuSans-115"/>
     </g>
    </g>
   </g>
   <g id="matplotlib.axis_2">
    <g id="ytick_1">
     <g id="line2d_4">
      <path clip-path="url(#pbdcc30a3c6)" d="M 54 279.483165 
L 388.8 279.483165 
" style="fill:none;stroke:#000000;stroke-linecap:square;stroke-opacity:0;stroke-width:0.8;"/>
     </g>
     <g id="line2d_5">
      <defs>
       <path d="M 0 0 
L -3.5 0 
" id="md18b426c6c" style="stroke:#000000;stroke-width:0.8;"/>
      </defs>
      <g>
       <use style="stroke:#000000;stroke-width:0.8;" x="54" xlink:href="#md18b426c6c" y="279.483165"/>
      </g>
     </g>
     <g id="text_5">
      <!-- 2 -->
      <g transform="translate(40.6375 283.282384)scale(0.1 -0.1)">
       <defs>
        <path d="M 19.1875 8.296875 
L 53.609375 8.296875 
L 53.609375 0 
L 7.328125 0 
L 7.328125 8.296875 
Q 12.9375 14.109375 22.625 23.890625 
Q 32.328125 33.6875 34.8125 36.53125 
Q 39.546875 41.84375 41.421875 45.53125 
Q 43.3125 49.21875 43.3125 52.78125 
Q 43.3125 58.59375 39.234375 62.25 
Q 35.15625 65.921875 28.609375 65.921875 
Q 23.96875 65.921875 18.8125 64.3125 
Q 13.671875 62.703125 7.8125 59.421875 
L 7.8125 69.390625 
Q 13.765625 71.78125 18.9375 73 
Q 24.125 74.21875 28.421875 74.21875 
Q 39.75 74.21875 46.484375 68.546875 
Q 53.21875 62.890625 53.21875 53.421875 
Q 53.21875 48.921875 51.53125 44.890625 
Q 49.859375 40.875 45.40625 35.40625 
Q 44.1875 33.984375 37.640625 27.21875 
Q 31.109375 20.453125 19.1875 8.296875 
z
" id="DejaVuSans-50"/>
       </defs>
       <use xlink:href="#DejaVuSans-50"/>
      </g>
     </g>
    </g>
    <g id="ytick_2">
     <g id="line2d_6">
      <path clip-path="url(#pbdcc30a3c6)" d="M 54 221.750313 
L 388.8 221.750313 
" style="fill:none;stroke:#000000;stroke-linecap:square;stroke-opacity:0;stroke-width:0.8;"/>
     </g>
     <g id="line2d_7">
      <g>
       <use style="stroke:#000000;stroke-width:0.8;" x="54" xlink:href="#md18b426c6c" y="221.750313"/>
      </g>
     </g>
     <g id="text_6">
      <!-- 3 -->
      <g transform="translate(40.6375 225.549532)scale(0.1 -0.1)">
       <defs>
        <path d="M 40.578125 39.3125 
Q 47.65625 37.796875 51.625 33 
Q 55.609375 28.21875 55.609375 21.1875 
Q 55.609375 10.40625 48.1875 4.484375 
Q 40.765625 -1.421875 27.09375 -1.421875 
Q 22.515625 -1.421875 17.65625 -0.515625 
Q 12.796875 0.390625 7.625 2.203125 
L 7.625 11.71875 
Q 11.71875 9.328125 16.59375 8.109375 
Q 21.484375 6.890625 26.8125 6.890625 
Q 36.078125 6.890625 40.9375 10.546875 
Q 45.796875 14.203125 45.796875 21.1875 
Q 45.796875 27.640625 41.28125 31.265625 
Q 36.765625 34.90625 28.71875 34.90625 
L 20.21875 34.90625 
L 20.21875 43.015625 
L 29.109375 43.015625 
Q 36.375 43.015625 40.234375 45.921875 
Q 44.09375 48.828125 44.09375 54.296875 
Q 44.09375 59.90625 40.109375 62.90625 
Q 36.140625 65.921875 28.71875 65.921875 
Q 24.65625 65.921875 20.015625 65.03125 
Q 15.375 64.15625 9.8125 62.3125 
L 9.8125 71.09375 
Q 15.4375 72.65625 20.34375 73.4375 
Q 25.25 74.21875 29.59375 74.21875 
Q 40.828125 74.21875 47.359375 69.109375 
Q 53.90625 64.015625 53.90625 55.328125 
Q 53.90625 49.265625 50.4375 45.09375 
Q 46.96875 40.921875 40.578125 39.3125 
z
" id="DejaVuSans-51"/>
       </defs>
       <use xlink:href="#DejaVuSans-51"/>
      </g>
     </g>
    </g>
    <g id="ytick_3">
     <g id="line2d_8">
      <path clip-path="url(#pbdcc30a3c6)" d="M 54 164.017461 
L 388.8 164.017461 
" style="fill:none;stroke:#000000;stroke-linecap:square;stroke-opacity:0;stroke-width:0.8;"/>
     </g>
     <g id="line2d_9">
      <g>
       <use style="stroke:#000000;stroke-width:0.8;" x="54" xlink:href="#md18b426c6c" y="164.017461"/>
      </g>
     </g>
     <g id="text_7">
      <!-- 4 -->
      <g transform="translate(40.6375 167.81668)scale(0.1 -0.1)">
       <defs>
        <path d="M 37.796875 64.3125 
L 12.890625 25.390625 
L 37.796875 25.390625 
z
M 35.203125 72.90625 
L 47.609375 72.90625 
L 47.609375 25.390625 
L 58.015625 25.390625 
L 58.015625 17.1875 
L 47.609375 17.1875 
L 47.609375 0 
L 37.796875 0 
L 37.796875 17.1875 
L 4.890625 17.1875 
L 4.890625 26.703125 
z
" id="DejaVuSans-52"/>
       </defs>
       <use xlink:href="#DejaVuSans-52"/>
      </g>
     </g>
    </g>
    <g id="ytick_4">
     <g id="line2d_10">
      <path clip-path="url(#pbdcc30a3c6)" d="M 54 106.28461 
L 388.8 106.28461 
" style="fill:none;stroke:#000000;stroke-linecap:square;stroke-opacity:0;stroke-width:0.8;"/>
     </g>
     <g id="line2d_11">
      <g>
       <use style="stroke:#000000;stroke-width:0.8;" x="54" xlink:href="#md18b426c6c" y="106.28461"/>
      </g>
     </g>
     <g id="text_8">
      <!-- 5 -->
      <g transform="translate(40.6375 110.083828)scale(0.1 -0.1)">
       <defs>
        <path d="M 10.796875 72.90625 
L 49.515625 72.90625 
L 49.515625 64.59375 
L 19.828125 64.59375 
L 19.828125 46.734375 
Q 21.96875 47.46875 24.109375 47.828125 
Q 26.265625 48.1875 28.421875 48.1875 
Q 40.625 48.1875 47.75 41.5 
Q 54.890625 34.8125 54.890625 23.390625 
Q 54.890625 11.625 47.5625 5.09375 
Q 40.234375 -1.421875 26.90625 -1.421875 
Q 22.3125 -1.421875 17.546875 -0.640625 
Q 12.796875 0.140625 7.71875 1.703125 
L 7.71875 11.625 
Q 12.109375 9.234375 16.796875 8.0625 
Q 21.484375 6.890625 26.703125 6.890625 
Q 35.15625 6.890625 40.078125 11.328125 
Q 45.015625 15.765625 45.015625 23.390625 
Q 45.015625 31 40.078125 35.4375 
Q 35.15625 39.890625 26.703125 39.890625 
Q 22.75 39.890625 18.8125 39.015625 
Q 14.890625 38.140625 10.796875 36.28125 
z
" id="DejaVuSans-53"/>
       </defs>
       <use xlink:href="#DejaVuSans-53"/>
      </g>
     </g>
    </g>
    <g id="ytick_5">
     <g id="line2d_12">
      <path clip-path="url(#pbdcc30a3c6)" d="M 54 48.551758 
L 388.8 48.551758 
" style="fill:none;stroke:#000000;stroke-linecap:square;stroke-opacity:0;stroke-width:0.8;"/>
     </g>
     <g id="line2d_13">
      <g>
       <use style="stroke:#000000;stroke-width:0.8;" x="54" xlink:href="#md18b426c6c" y="48.551758"/>
      </g>
     </g>
     <g id="text_9">
      <!-- 6 -->
      <g transform="translate(40.6375 52.350977)scale(0.1 -0.1)">
       <defs>
        <path d="M 33.015625 40.375 
Q 26.375 40.375 22.484375 35.828125 
Q 18.609375 31.296875 18.609375 23.390625 
Q 18.609375 15.53125 22.484375 10.953125 
Q 26.375 6.390625 33.015625 6.390625 
Q 39.65625 6.390625 43.53125 10.953125 
Q 47.40625 15.53125 47.40625 23.390625 
Q 47.40625 31.296875 43.53125 35.828125 
Q 39.65625 40.375 33.015625 40.375 
z
M 52.59375 71.296875 
L 52.59375 62.3125 
Q 48.875 64.0625 45.09375 64.984375 
Q 41.3125 65.921875 37.59375 65.921875 
Q 27.828125 65.921875 22.671875 59.328125 
Q 17.53125 52.734375 16.796875 39.40625 
Q 19.671875 43.65625 24.015625 45.921875 
Q 28.375 48.1875 33.59375 48.1875 
Q 44.578125 48.1875 50.953125 41.515625 
Q 57.328125 34.859375 57.328125 23.390625 
Q 57.328125 12.15625 50.6875 5.359375 
Q 44.046875 -1.421875 33.015625 -1.421875 
Q 20.359375 -1.421875 13.671875 8.265625 
Q 6.984375 17.96875 6.984375 36.375 
Q 6.984375 53.65625 15.1875 63.9375 
Q 23.390625 74.21875 37.203125 74.21875 
Q 40.921875 74.21875 44.703125 73.484375 
Q 48.484375 72.75 52.59375 71.296875 
z
" id="DejaVuSans-54"/>
       </defs>
       <use xlink:href="#DejaVuSans-54"/>
      </g>
     </g>
    </g>
    <g id="text_10">
     <!-- Energy, [E] -->
     <g transform="translate(34.557812 209.545312)rotate(-90)scale(0.1 -0.1)">
      <defs>
       <path d="M 54.890625 33.015625 
L 54.890625 0 
L 45.90625 0 
L 45.90625 32.71875 
Q 45.90625 40.484375 42.875 44.328125 
Q 39.84375 48.1875 33.796875 48.1875 
Q 26.515625 48.1875 22.3125 43.546875 
Q 18.109375 38.921875 18.109375 30.90625 
L 18.109375 0 
L 9.078125 0 
L 9.078125 54.6875 
L 18.109375 54.6875 
L 18.109375 46.1875 
Q 21.34375 51.125 25.703125 53.5625 
Q 30.078125 56 35.796875 56 
Q 45.21875 56 50.046875 50.171875 
Q 54.890625 44.34375 54.890625 33.015625 
z
" id="DejaVuSans-110"/>
       <path d="M 45.40625 27.984375 
Q 45.40625 37.75 41.375 43.109375 
Q 37.359375 48.484375 30.078125 48.484375 
Q 22.859375 48.484375 18.828125 43.109375 
Q 14.796875 37.75 14.796875 27.984375 
Q 14.796875 18.265625 18.828125 12.890625 
Q 22.859375 7.515625 30.078125 7.515625 
Q 37.359375 7.515625 41.375 12.890625 
Q 45.40625 18.265625 45.40625 27.984375 
z
M 54.390625 6.78125 
Q 54.390625 -7.171875 48.1875 -13.984375 
Q 42 -20.796875 29.203125 -20.796875 
Q 24.46875 -20.796875 20.265625 -20.09375 
Q 16.0625 -19.390625 12.109375 -17.921875 
L 12.109375 -9.1875 
Q 16.0625 -11.328125 19.921875 -12.34375 
Q 23.78125 -13.375 27.78125 -13.375 
Q 36.625 -13.375 41.015625 -8.765625 
Q 45.40625 -4.15625 45.40625 5.171875 
L 45.40625 9.625 
Q 42.625 4.78125 38.28125 2.390625 
Q 33.9375 0 27.875 0 
Q 17.828125 0 11.671875 7.65625 
Q 5.515625 15.328125 5.515625 27.984375 
Q 5.515625 40.671875 11.671875 48.328125 
Q 17.828125 56 27.875 56 
Q 33.9375 56 38.28125 53.609375 
Q 42.625 51.21875 45.40625 46.390625 
L 45.40625 54.6875 
L 54.390625 54.6875 
z
" id="DejaVuSans-103"/>
       <path d="M 32.171875 -5.078125 
Q 28.375 -14.84375 24.75 -17.8125 
Q 21.140625 -20.796875 15.09375 -20.796875 
L 7.90625 -20.796875 
L 7.90625 -13.28125 
L 13.1875 -13.28125 
Q 16.890625 -13.28125 18.9375 -11.515625 
Q 21 -9.765625 23.484375 -3.21875 
L 25.09375 0.875 
L 2.984375 54.6875 
L 12.5 54.6875 
L 29.59375 11.921875 
L 46.6875 54.6875 
L 56.203125 54.6875 
z
" id="DejaVuSans-121"/>
       <path d="M 11.71875 12.40625 
L 22.015625 12.40625 
L 22.015625 4 
L 14.015625 -11.625 
L 7.71875 -11.625 
L 11.71875 4 
z
" id="DejaVuSans-44"/>
       <path d="M 8.59375 75.984375 
L 29.296875 75.984375 
L 29.296875 69 
L 17.578125 69 
L 17.578125 -6.203125 
L 29.296875 -6.203125 
L 29.296875 -13.1875 
L 8.59375 -13.1875 
z
" id="DejaVuSans-91"/>
       <path d="M 30.421875 75.984375 
L 30.421875 -13.1875 
L 9.71875 -13.1875 
L 9.71875 -6.203125 
L 21.390625 -6.203125 
L 21.390625 69 
L 9.71875 69 
L 9.71875 75.984375 
z
" id="DejaVuSans-93"/>
      </defs>
      <use xlink:href="#DejaVuSans-69"/>
      <use x="63.183594" xlink:href="#DejaVuSans-110"/>
      <use x="126.5625" xlink:href="#DejaVuSans-101"/>
      <use x="188.085938" xlink:href="#DejaVuSans-114"/>
      <use x="227.449219" xlink:href="#DejaVuSans-103"/>
      <use x="290.925781" xlink:href="#DejaVuSans-121"/>
      <use x="350.105469" xlink:href="#DejaVuSans-44"/>
      <use x="381.892578" xlink:href="#DejaVuSans-32"/>
      <use x="413.679688" xlink:href="#DejaVuSans-91"/>
      <use x="452.693359" xlink:href="#DejaVuSans-69"/>
      <use x="515.876953" xlink:href="#DejaVuSans-93"/>
     </g>
    </g>
   </g>
   <g id="line2d_14">
    <path clip-path="url(#pbdcc30a3c6)" d="M 109.8 218.240894 
L 109.8 293.590275 
" style="fill:none;"/>
   </g>
   <g id="line2d_15">
    <path clip-path="url(#pbdcc30a3c6)" d="M 109.8 152.794321 
L 109.8 55.8 
" style="fill:none;"/>
   </g>
   <g id="line2d_16">
    <path clip-path="url(#pbdcc30a3c6)" d="M 221.4 216.762247 
L 221.4 287.11018 
" style="fill:none;"/>
   </g>
   <g id="line2d_17">
    <path clip-path="url(#pbdcc30a3c6)" d="M 221.4 157.729958 
L 221.4 74.624441 
" style="fill:none;"/>
   </g>
   <g id="line2d_18">
    <path clip-path="url(#pbdcc30a3c6)" d="M 333 232.341772 
L 333 307.8 
" style="fill:none;"/>
   </g>
   <g id="line2d_19">
    <path clip-path="url(#pbdcc30a3c6)" d="M 333 161.76148 
L 333 56.075558 
" style="fill:none;"/>
   </g>
   <g id="patch_3">
    <path clip-path="url(#pbdcc30a3c6)" d="M 93.06 218.240894 
L 126.54 218.240894 
L 126.54 152.794321 
L 93.06 152.794321 
L 93.06 218.240894 
z
" style="fill:#ffc0cb;"/>
   </g>
   <g id="patch_4">
    <path clip-path="url(#pbdcc30a3c6)" d="M 204.66 216.762247 
L 238.14 216.762247 
L 238.14 157.729958 
L 204.66 157.729958 
L 204.66 216.762247 
z
" style="fill:#add8e6;"/>
   </g>
   <g id="patch_5">
    <path clip-path="url(#pbdcc30a3c6)" d="M 316.26 232.341772 
L 349.74 232.341772 
L 349.74 161.76148 
L 316.26 161.76148 
L 316.26 232.341772 
z
" style="fill:#90ee90;"/>
   </g>
   <g id="line2d_20">
    <path clip-path="url(#pbdcc30a3c6)" d="M 93.06 183.590933 
L 126.54 183.590933 
" style="fill:none;stroke:#ff7f0e;stroke-linecap:square;"/>
   </g>
   <g id="line2d_21">
    <defs>
     <path d="M 0 -3 
L -3 3 
L 3 3 
z
" id="m4f927628c6" style="stroke:#2ca02c;stroke-linejoin:miter;"/>
    </defs>
    <g clip-path="url(#pbdcc30a3c6)">
     <use style="fill:#2ca02c;stroke:#2ca02c;stroke-linejoin:miter;" x="109.8" xlink:href="#m4f927628c6" y="183.284331"/>
    </g>
   </g>
   <g id="line2d_22">
    <path clip-path="url(#pbdcc30a3c6)" d="M 204.66 192.619845 
L 238.14 192.619845 
" style="fill:none;stroke:#ff7f0e;stroke-linecap:square;"/>
   </g>
   <g id="line2d_23">
    <g clip-path="url(#pbdcc30a3c6)">
     <use style="fill:#2ca02c;stroke:#2ca02c;stroke-linejoin:miter;" x="221.4" xlink:href="#m4f927628c6" y="187.370102"/>
    </g>
   </g>
   <g id="line2d_24">
    <path clip-path="url(#pbdcc30a3c6)" d="M 316.26 201.675335 
L 349.74 201.675335 
" style="fill:none;stroke:#ff7f0e;stroke-linecap:square;"/>
   </g>
   <g id="line2d_25">
    <g clip-path="url(#pbdcc30a3c6)">
     <use style="fill:#2ca02c;stroke:#2ca02c;stroke-linejoin:miter;" x="333" xlink:href="#m4f927628c6" y="196.016626"/>
    </g>
   </g>
   <g id="patch_6">
    <path d="M 54 320.4 
L 54 43.2 
" style="fill:none;stroke:#000000;stroke-linecap:square;stroke-linejoin:miter;stroke-width:0.8;"/>
   </g>
   <g id="patch_7">
    <path d="M 388.8 320.4 
L 388.8 43.2 
" style="fill:none;stroke:#000000;stroke-linecap:square;stroke-linejoin:miter;stroke-width:0.8;"/>
   </g>
   <g id="patch_8">
    <path d="M 54 320.4 
L 388.8 320.4 
" style="fill:none;stroke:#000000;stroke-linecap:square;stroke-linejoin:miter;stroke-width:0.8;"/>
   </g>
   <g id="patch_9">
    <path d="M 54 43.2 
L 388.8 43.2 
" style="fill:none;stroke:#000000;stroke-linecap:square;stroke-linejoin:miter;stroke-width:0.8;"/>
   </g>
   <g id="text_11">
    <!-- $p=0.393$ -->
    <g transform="translate(154.44 267.936595)scale(0.1 -0.1)">
     <defs>
      <path d="M 49.609375 33.6875 
Q 49.609375 40.875 46.484375 44.671875 
Q 43.359375 48.484375 37.5 48.484375 
Q 33.5 48.484375 29.859375 46.4375 
Q 26.21875 44.390625 23.390625 40.484375 
Q 20.609375 36.625 18.9375 31.15625 
Q 17.28125 25.6875 17.28125 20.3125 
Q 17.28125 13.484375 20.40625 9.796875 
Q 23.53125 6.109375 29.296875 6.109375 
Q 33.546875 6.109375 37.1875 8.109375 
Q 40.828125 10.109375 43.40625 13.921875 
Q 46.1875 17.921875 47.890625 23.34375 
Q 49.609375 28.765625 49.609375 33.6875 
z
M 21.78125 46.390625 
Q 25.390625 51.125 30.296875 53.5625 
Q 35.203125 56 41.21875 56 
Q 49.609375 56 54.25 50.5 
Q 58.890625 45.015625 58.890625 35.109375 
Q 58.890625 27 56 19.65625 
Q 53.125 12.3125 47.703125 6.5 
Q 44.09375 2.640625 39.546875 0.609375 
Q 35.015625 -1.421875 29.984375 -1.421875 
Q 24.171875 -1.421875 20.21875 1 
Q 16.265625 3.421875 14.3125 8.203125 
L 8.6875 -20.796875 
L -0.296875 -20.796875 
L 14.40625 54.6875 
L 23.390625 54.6875 
z
" id="DejaVuSans-Oblique-112"/>
      <path d="M 10.59375 45.40625 
L 73.1875 45.40625 
L 73.1875 37.203125 
L 10.59375 37.203125 
z
M 10.59375 25.484375 
L 73.1875 25.484375 
L 73.1875 17.1875 
L 10.59375 17.1875 
z
" id="DejaVuSans-61"/>
      <path d="M 31.78125 66.40625 
Q 24.171875 66.40625 20.328125 58.90625 
Q 16.5 51.421875 16.5 36.375 
Q 16.5 21.390625 20.328125 13.890625 
Q 24.171875 6.390625 31.78125 6.390625 
Q 39.453125 6.390625 43.28125 13.890625 
Q 47.125 21.390625 47.125 36.375 
Q 47.125 51.421875 43.28125 58.90625 
Q 39.453125 66.40625 31.78125 66.40625 
z
M 31.78125 74.21875 
Q 44.046875 74.21875 50.515625 64.515625 
Q 56.984375 54.828125 56.984375 36.375 
Q 56.984375 17.96875 50.515625 8.265625 
Q 44.046875 -1.421875 31.78125 -1.421875 
Q 19.53125 -1.421875 13.0625 8.265625 
Q 6.59375 17.96875 6.59375 36.375 
Q 6.59375 54.828125 13.0625 64.515625 
Q 19.53125 74.21875 31.78125 74.21875 
z
" id="DejaVuSans-48"/>
      <path d="M 10.6875 12.40625 
L 21 12.40625 
L 21 0 
L 10.6875 0 
z
" id="DejaVuSans-46"/>
      <path d="M 10.984375 1.515625 
L 10.984375 10.5 
Q 14.703125 8.734375 18.5 7.8125 
Q 22.3125 6.890625 25.984375 6.890625 
Q 35.75 6.890625 40.890625 13.453125 
Q 46.046875 20.015625 46.78125 33.40625 
Q 43.953125 29.203125 39.59375 26.953125 
Q 35.25 24.703125 29.984375 24.703125 
Q 19.046875 24.703125 12.671875 31.3125 
Q 6.296875 37.9375 6.296875 49.421875 
Q 6.296875 60.640625 12.9375 67.421875 
Q 19.578125 74.21875 30.609375 74.21875 
Q 43.265625 74.21875 49.921875 64.515625 
Q 56.59375 54.828125 56.59375 36.375 
Q 56.59375 19.140625 48.40625 8.859375 
Q 40.234375 -1.421875 26.421875 -1.421875 
Q 22.703125 -1.421875 18.890625 -0.6875 
Q 15.09375 0.046875 10.984375 1.515625 
z
M 30.609375 32.421875 
Q 37.25 32.421875 41.125 36.953125 
Q 45.015625 41.5 45.015625 49.421875 
Q 45.015625 57.28125 41.125 61.84375 
Q 37.25 66.40625 30.609375 66.40625 
Q 23.96875 66.40625 20.09375 61.84375 
Q 16.21875 57.28125 16.21875 49.421875 
Q 16.21875 41.5 20.09375 36.953125 
Q 23.96875 32.421875 30.609375 32.421875 
z
" id="DejaVuSans-57"/>
     </defs>
     <use transform="translate(0 0.78125)" xlink:href="#DejaVuSans-Oblique-112"/>
     <use transform="translate(82.958984 0.78125)" xlink:href="#DejaVuSans-61"/>
     <use transform="translate(186.230469 0.78125)" xlink:href="#DejaVuSans-48"/>
     <use transform="translate(249.853516 0.78125)" xlink:href="#DejaVuSans-46"/>
     <use transform="translate(281.640625 0.78125)" xlink:href="#DejaVuSans-51"/>
     <use transform="translate(345.263672 0.78125)" xlink:href="#DejaVuSans-57"/>
     <use transform="translate(408.886719 0.78125)" xlink:href="#DejaVuSans-51"/>
    </g>
   </g>
   <g id="text_12">
    <!-- $p&lt;10^{-4}$ -->
    <g transform="translate(266.04 267.936595)scale(0.1 -0.1)">
     <defs>
      <path d="M 73.1875 49.21875 
L 22.796875 31.296875 
L 73.1875 13.484375 
L 73.1875 4.59375 
L 10.59375 27.296875 
L 10.59375 35.40625 
L 73.1875 58.109375 
z
" id="DejaVuSans-60"/>
      <path d="M 12.40625 8.296875 
L 28.515625 8.296875 
L 28.515625 63.921875 
L 10.984375 60.40625 
L 10.984375 69.390625 
L 28.421875 72.90625 
L 38.28125 72.90625 
L 38.28125 8.296875 
L 54.390625 8.296875 
L 54.390625 0 
L 12.40625 0 
z
" id="DejaVuSans-49"/>
      <path d="M 10.59375 35.5 
L 73.1875 35.5 
L 73.1875 27.203125 
L 10.59375 27.203125 
z
" id="DejaVuSans-8722"/>
     </defs>
     <use transform="translate(0 0.684375)" xlink:href="#DejaVuSans-Oblique-112"/>
     <use transform="translate(82.958984 0.684375)" xlink:href="#DejaVuSans-60"/>
     <use transform="translate(186.230469 0.684375)" xlink:href="#DejaVuSans-49"/>
     <use transform="translate(249.853516 0.684375)" xlink:href="#DejaVuSans-48"/>
     <use transform="translate(314.433594 38.965625)scale(0.7)" xlink:href="#DejaVuSans-8722"/>
     <use transform="translate(373.085938 38.965625)scale(0.7)" xlink:href="#DejaVuSans-52"/>
    </g>
   </g>
   <g id="text_13">
    <!-- $p&lt;10^{-4}$ -->
    <g transform="translate(176.76 291.029735)scale(0.1 -0.1)">
     <use transform="translate(0 0.684375)" xlink:href="#DejaVuSans-Oblique-112"/>
     <use transform="translate(82.958984 0.684375)" xlink:href="#DejaVuSans-60"/>
     <use transform="translate(186.230469 0.684375)" xlink:href="#DejaVuSans-49"/>
     <use transform="translate(249.853516 0.684375)" xlink:href="#DejaVuSans-48"/>
     <use transform="translate(314.433594 38.965625)scale(0.7)" xlink:href="#DejaVuSans-8722"/>
     <use transform="translate(373.085938 38.965625)scale(0.7)" xlink:href="#DejaVuSans-52"/>
    </g>
   </g>
  </g>
 </g>
 <defs>
  <clipPath id="pbdcc30a3c6">
   <rect height="277.2" width="334.8" x="54" y="43.2"/>
  </clipPath>
 </defs>
</svg>
