<?xml version="1.0" encoding="utf-8" standalone="no"?>
<!DOCTYPE svg PUBLIC "-//W3C//DTD SVG 1.1//EN"
  "http://www.w3.org/Graphics/SVG/1.1/DTD/svg11.dtd">
<!-- Created with matplotlib (https://matplotlib.org/) -->
<svg height="360pt" version="1.1" viewBox="0 0 432 360" width="432pt" xmlns="http://www.w3.org/2000/svg" xmlns:xlink="http://www.w3.org/1999/xlink">
 <metadata>
  <rdf:RDF xmlns:cc="http://creativecommons.org/ns#" xmlns:dc="http://purl.org/dc/elements/1.1/" xmlns:rdf="http://www.w3.org/1999/02/22-rdf-syntax-ns#">
   <cc:Work>
    <dc:type rdf:resource="http://purl.org/dc/dcmitype/StillImage"/>
    <dc:date>2021-07-12T00:28:15.021037</dc:date>
    <dc:format>image/svg+xml</dc:format>
    <dc:creator>
     <cc:Agent>
      <dc:title>Matplotlib v3.3.1, https://matplotlib.org/</dc:title>
     </cc:Agent>
    </dc:creator>
   </cc:Work>
  </rdf:RDF>
 </metadata>
 <defs>
  <style type="text/css">*{stroke-linecap:butt;stroke-linejoin:round;}</style>
 </defs>
 <g id="figure_1">
  <g id="patch_1">
   <path d="M 0 360 
L 432 360 
L 432 0 
L 0 0 
z
" style="fill:#ffffff;"/>
  </g>
  <g id="axes_1">
   <g id="patch_2">
    <path d="M 54 320.4 
L 388.8 320.4 
L 388.8 43.2 
L 54 43.2 
z
" style="fill:#ffffff;"/>
   </g>
   <g id="PolyCollection_1">
    <defs>
     <path d="M 115.577811 -65.401736 
L 104.022189 -65.401736 
L 103.264242 -65.712696 
L 102.464594 -66.023655 
L 101.629244 -66.334614 
L 100.76503 -66.645573 
L 99.879418 -66.956533 
L 98.980255 -67.267492 
L 98.075491 -67.578451 
L 97.172883 -67.88941 
L 96.279719 -68.20037 
L 95.402543 -68.511329 
L 94.546936 -68.822288 
L 93.717349 -69.133247 
L 92.917005 -69.444207 
L 92.147878 -69.755166 
L 91.410756 -70.066125 
L 90.705373 -70.377085 
L 90.03061 -70.688044 
L 89.384736 -70.999003 
L 88.765683 -71.309962 
L 88.171319 -71.620922 
L 87.599697 -71.931881 
L 87.049277 -72.24284 
L 86.519079 -72.553799 
L 86.008781 -72.864759 
L 85.518748 -73.175718 
L 85.050001 -73.486677 
L 84.60413 -73.797637 
L 84.183183 -74.108596 
L 83.789531 -74.419555 
L 83.425735 -74.730514 
L 83.094436 -75.041474 
L 82.798271 -75.352433 
L 82.539824 -75.663392 
L 82.321611 -75.974351 
L 82.146091 -76.285311 
L 82.015696 -76.59627 
L 81.932854 -76.907229 
L 81.9 -77.218188 
L 81.919555 -77.529148 
L 81.993871 -77.840107 
L 82.125125 -78.151066 
L 82.315182 -78.462026 
L 82.565427 -78.772985 
L 82.876577 -79.083944 
L 83.248507 -79.394903 
L 83.680103 -79.705863 
L 84.169151 -80.016822 
L 84.712299 -80.327781 
L 85.305081 -80.63874 
L 85.942022 -80.9497 
L 86.6168 -81.260659 
L 87.322471 -81.571618 
L 88.051733 -81.882578 
L 88.797193 -82.193537 
L 89.551639 -82.504496 
L 90.308274 -82.815455 
L 91.060907 -83.126415 
L 91.804073 -83.437374 
L 92.533097 -83.748333 
L 93.244083 -84.059292 
L 93.933845 -84.370252 
L 94.599802 -84.681211 
L 95.239837 -84.99217 
L 95.852164 -85.303129 
L 96.435212 -85.614089 
L 96.98754 -85.925048 
L 97.507812 -86.236007 
L 97.994831 -86.546967 
L 98.44762 -86.857926 
L 98.865562 -87.168885 
L 99.248561 -87.479844 
L 99.597213 -87.790804 
L 99.912955 -88.101763 
L 100.198171 -88.412722 
L 100.45623 -88.723681 
L 100.691444 -89.034641 
L 100.908934 -89.3456 
L 101.114424 -89.656559 
L 101.313952 -89.967519 
L 101.513555 -90.278478 
L 101.718925 -90.589437 
L 101.935092 -90.900396 
L 102.166147 -91.211356 
L 102.415041 -91.522315 
L 102.683468 -91.833274 
L 102.971847 -92.144233 
L 103.279388 -92.455193 
L 103.60424 -92.766152 
L 103.943689 -93.077111 
L 104.294399 -93.38807 
L 104.652649 -93.69903 
L 105.014566 -94.009989 
L 105.376326 -94.320948 
L 105.734307 -94.631908 
L 106.085205 -94.942867 
L 106.426098 -95.253826 
L 106.754477 -95.564785 
L 107.068249 -95.875745 
L 107.365714 -96.186704 
L 112.234286 -96.186704 
L 112.234286 -96.186704 
L 112.531751 -95.875745 
L 112.845523 -95.564785 
L 113.173902 -95.253826 
L 113.514795 -94.942867 
L 113.865693 -94.631908 
L 114.223674 -94.320948 
L 114.585434 -94.009989 
L 114.947351 -93.69903 
L 115.305601 -93.38807 
L 115.656311 -93.077111 
L 115.99576 -92.766152 
L 116.320612 -92.455193 
L 116.628153 -92.144233 
L 116.916532 -91.833274 
L 117.184959 -91.522315 
L 117.433853 -91.211356 
L 117.664908 -90.900396 
L 117.881075 -90.589437 
L 118.086445 -90.278478 
L 118.286048 -89.967519 
L 118.485576 -89.656559 
L 118.691066 -89.3456 
L 118.908556 -89.034641 
L 119.14377 -88.723681 
L 119.401829 -88.412722 
L 119.687045 -88.101763 
L 120.002787 -87.790804 
L 120.351439 -87.479844 
L 120.734438 -87.168885 
L 121.15238 -86.857926 
L 121.605169 -86.546967 
L 122.092188 -86.236007 
L 122.61246 -85.925048 
L 123.164788 -85.614089 
L 123.747836 -85.303129 
L 124.360163 -84.99217 
L 125.000198 -84.681211 
L 125.666155 -84.370252 
L 126.355917 -84.059292 
L 127.066903 -83.748333 
L 127.795927 -83.437374 
L 128.539093 -83.126415 
L 129.291726 -82.815455 
L 130.048361 -82.504496 
L 130.802807 -82.193537 
L 131.548267 -81.882578 
L 132.277529 -81.571618 
L 132.9832 -81.260659 
L 133.657978 -80.9497 
L 134.294919 -80.63874 
L 134.887701 -80.327781 
L 135.430849 -80.016822 
L 135.919897 -79.705863 
L 136.351493 -79.394903 
L 136.723423 -79.083944 
L 137.034573 -78.772985 
L 137.284818 -78.462026 
L 137.474875 -78.151066 
L 137.606129 -77.840107 
L 137.680445 -77.529148 
L 137.7 -77.218188 
L 137.667146 -76.907229 
L 137.584304 -76.59627 
L 137.453909 -76.285311 
L 137.278389 -75.974351 
L 137.060176 -75.663392 
L 136.801729 -75.352433 
L 136.505564 -75.041474 
L 136.174265 -74.730514 
L 135.810469 -74.419555 
L 135.416817 -74.108596 
L 134.99587 -73.797637 
L 134.549999 -73.486677 
L 134.081252 -73.175718 
L 133.591219 -72.864759 
L 133.080921 -72.553799 
L 132.550723 -72.24284 
L 132.000303 -71.931881 
L 131.428681 -71.620922 
L 130.834317 -71.309962 
L 130.215264 -70.999003 
L 129.56939 -70.688044 
L 128.894627 -70.377085 
L 128.189244 -70.066125 
L 127.452122 -69.755166 
L 126.682995 -69.444207 
L 125.882651 -69.133247 
L 125.053064 -68.822288 
L 124.197457 -68.511329 
L 123.320281 -68.20037 
L 122.427117 -67.88941 
L 121.524509 -67.578451 
L 120.619745 -67.267492 
L 119.720582 -66.956533 
L 118.83497 -66.645573 
L 117.970756 -66.334614 
L 117.135406 -66.023655 
L 116.335758 -65.712696 
L 115.577811 -65.401736 
z
" id="mf315398c50" style="stroke:#ffc0cb;stroke-opacity:0.3;"/>
    </defs>
    <g clip-path="url(#pa134facee2)">
     <use style="fill:#ff0000;fill-opacity:0.3;stroke:#ffc0cb;stroke-opacity:0.3;" x="0" xlink:href="#mf315398c50" y="360"/>
    </g>
   </g>
   <g id="PolyCollection_2">
    <defs>
     <path d="M 228.448845 -64.739572 
L 214.351155 -64.739572 
L 213.686432 -65.181325 
L 212.995215 -65.623077 
L 212.275539 -66.064829 
L 211.524773 -66.506582 
L 210.739922 -66.948334 
L 209.918038 -67.390086 
L 209.056689 -67.831839 
L 208.15448 -68.273591 
L 207.21154 -68.715344 
L 206.229961 -69.157096 
L 205.214112 -69.598848 
L 204.170815 -70.040601 
L 203.109338 -70.482353 
L 202.041199 -70.924105 
L 200.979793 -71.365858 
L 199.93985 -71.80761 
L 198.936782 -72.249363 
L 197.985955 -72.691115 
L 197.101949 -73.132867 
L 196.297868 -73.57462 
L 195.584748 -74.016372 
L 194.971119 -74.458124 
L 194.462733 -74.899877 
L 194.062485 -75.341629 
L 193.770522 -75.783382 
L 193.584505 -76.225134 
L 193.5 -76.666886 
L 193.510955 -77.108639 
L 193.610202 -77.550391 
L 193.789948 -77.992143 
L 194.042211 -78.433896 
L 194.359176 -78.875648 
L 194.733434 -79.317401 
L 195.158135 -79.759153 
L 195.627021 -80.200905 
L 196.134395 -80.642658 
L 196.675028 -81.08441 
L 197.244038 -81.526162 
L 197.836781 -81.967915 
L 198.448755 -82.409667 
L 199.075553 -82.85142 
L 199.712871 -83.293172 
L 200.356558 -83.734924 
L 201.002712 -84.176677 
L 201.647795 -84.618429 
L 202.288765 -85.060181 
L 202.923175 -85.501934 
L 203.549243 -85.943686 
L 204.165869 -86.385439 
L 204.772583 -86.827191 
L 205.36944 -87.268943 
L 205.956848 -87.710696 
L 206.535362 -88.152448 
L 207.105458 -88.5942 
L 207.667314 -89.035953 
L 208.220615 -89.477705 
L 208.764427 -89.919458 
L 209.297133 -90.36121 
L 209.816454 -90.802962 
L 210.319564 -91.244715 
L 210.803269 -91.686467 
L 211.264257 -92.128219 
L 211.699384 -92.569972 
L 212.105963 -93.011724 
L 212.48204 -93.453477 
L 212.82662 -93.895229 
L 213.139821 -94.336981 
L 213.422939 -94.778734 
L 213.67842 -95.220486 
L 213.909741 -95.662238 
L 214.121201 -96.103991 
L 214.317652 -96.545743 
L 214.504184 -96.987496 
L 214.685804 -97.429248 
L 214.867118 -97.871 
L 215.05206 -98.312753 
L 215.243678 -98.754505 
L 215.44399 -99.196257 
L 215.65393 -99.63801 
L 215.873369 -100.079762 
L 216.101215 -100.521514 
L 216.335577 -100.963267 
L 216.57397 -101.405019 
L 216.813554 -101.846772 
L 217.051376 -102.288524 
L 217.284601 -102.730276 
L 217.510718 -103.172029 
L 217.727702 -103.613781 
L 217.934124 -104.055533 
L 218.129214 -104.497286 
L 218.312858 -104.939038 
L 218.485547 -105.380791 
L 218.648287 -105.822543 
L 218.802468 -106.264295 
L 218.94971 -106.706048 
L 219.091711 -107.1478 
L 219.230086 -107.589552 
L 219.366235 -108.031305 
L 219.501236 -108.473057 
L 223.298764 -108.473057 
L 223.298764 -108.473057 
L 223.433765 -108.031305 
L 223.569914 -107.589552 
L 223.708289 -107.1478 
L 223.85029 -106.706048 
L 223.997532 -106.264295 
L 224.151713 -105.822543 
L 224.314453 -105.380791 
L 224.487142 -104.939038 
L 224.670786 -104.497286 
L 224.865876 -104.055533 
L 225.072298 -103.613781 
L 225.289282 -103.172029 
L 225.515399 -102.730276 
L 225.748624 -102.288524 
L 225.986446 -101.846772 
L 226.22603 -101.405019 
L 226.464423 -100.963267 
L 226.698785 -100.521514 
L 226.926631 -100.079762 
L 227.14607 -99.63801 
L 227.35601 -99.196257 
L 227.556322 -98.754505 
L 227.74794 -98.312753 
L 227.932882 -97.871 
L 228.114196 -97.429248 
L 228.295816 -96.987496 
L 228.482348 -96.545743 
L 228.678799 -96.103991 
L 228.890259 -95.662238 
L 229.12158 -95.220486 
L 229.377061 -94.778734 
L 229.660179 -94.336981 
L 229.97338 -93.895229 
L 230.31796 -93.453477 
L 230.694037 -93.011724 
L 231.100616 -92.569972 
L 231.535743 -92.128219 
L 231.996731 -91.686467 
L 232.480436 -91.244715 
L 232.983546 -90.802962 
L 233.502867 -90.36121 
L 234.035573 -89.919458 
L 234.579385 -89.477705 
L 235.132686 -89.035953 
L 235.694542 -88.5942 
L 236.264638 -88.152448 
L 236.843152 -87.710696 
L 237.43056 -87.268943 
L 238.027417 -86.827191 
L 238.634131 -86.385439 
L 239.250757 -85.943686 
L 239.876825 -85.501934 
L 240.511235 -85.060181 
L 241.152205 -84.618429 
L 241.797288 -84.176677 
L 242.443442 -83.734924 
L 243.087129 -83.293172 
L 243.724447 -82.85142 
L 244.351245 -82.409667 
L 244.963219 -81.967915 
L 245.555962 -81.526162 
L 246.124972 -81.08441 
L 246.665605 -80.642658 
L 247.172979 -80.200905 
L 247.641865 -79.759153 
L 248.066566 -79.317401 
L 248.440824 -78.875648 
L 248.757789 -78.433896 
L 249.010052 -77.992143 
L 249.189798 -77.550391 
L 249.289045 -77.108639 
L 249.3 -76.666886 
L 249.215495 -76.225134 
L 249.029478 -75.783382 
L 248.737515 -75.341629 
L 248.337267 -74.899877 
L 247.828881 -74.458124 
L 247.215252 -74.016372 
L 246.502132 -73.57462 
L 245.698051 -73.132867 
L 244.814045 -72.691115 
L 243.863218 -72.249363 
L 242.86015 -71.80761 
L 241.820207 -71.365858 
L 240.758801 -70.924105 
L 239.690662 -70.482353 
L 238.629185 -70.040601 
L 237.585888 -69.598848 
L 236.570039 -69.157096 
L 235.58846 -68.715344 
L 234.64552 -68.273591 
L 233.743311 -67.831839 
L 232.881962 -67.390086 
L 232.060078 -66.948334 
L 231.275227 -66.506582 
L 230.524461 -66.064829 
L 229.804785 -65.623077 
L 229.113568 -65.181325 
L 228.448845 -64.739572 
z
" id="m18c6ae871d" style="stroke:#add8e6;stroke-opacity:0.3;"/>
    </defs>
    <g clip-path="url(#pa134facee2)">
     <use style="fill:#0000ff;fill-opacity:0.3;stroke:#add8e6;stroke-opacity:0.3;" x="0" xlink:href="#m18c6ae871d" y="360"/>
    </g>
   </g>
   <g id="PolyCollection_3">
    <defs>
     <path d="M 356.17457 -66.583618 
L 309.82543 -66.583618 
L 308.705034 -68.983784 
L 307.70914 -71.383949 
L 306.855107 -73.784115 
L 306.157561 -76.18428 
L 305.627922 -78.584446 
L 305.274048 -80.984611 
L 305.1 -83.384777 
L 305.105956 -85.784942 
L 305.288252 -88.185108 
L 305.639569 -90.585273 
L 306.149243 -92.985439 
L 306.803679 -95.385604 
L 307.586857 -97.785769 
L 308.480897 -100.185935 
L 309.46666 -102.5861 
L 310.524351 -104.986266 
L 311.634112 -107.386431 
L 312.776565 -109.786597 
L 313.933294 -112.186762 
L 315.087261 -114.586928 
L 316.223116 -116.987093 
L 317.327435 -119.387259 
L 318.388854 -121.787424 
L 319.398124 -124.18759 
L 320.348084 -126.587755 
L 321.233571 -128.987921 
L 322.051276 -131.388086 
L 322.799566 -133.788252 
L 323.478277 -136.188417 
L 324.088496 -138.588582 
L 324.632353 -140.988748 
L 325.112809 -143.388913 
L 325.533476 -145.789079 
L 325.898442 -148.189244 
L 326.212134 -150.58941 
L 326.479193 -152.989575 
L 326.704369 -155.389741 
L 326.892443 -157.789906 
L 327.048155 -160.190072 
L 327.176141 -162.590237 
L 327.280881 -164.990403 
L 327.366655 -167.390568 
L 327.437491 -169.790734 
L 327.49713 -172.190899 
L 327.548979 -174.591065 
L 327.596084 -176.99123 
L 327.641093 -179.391395 
L 327.686239 -181.791561 
L 327.733325 -184.191726 
L 327.78372 -186.591892 
L 327.838373 -188.992057 
L 327.897826 -191.392223 
L 327.962248 -193.792388 
L 328.031476 -196.192554 
L 328.10506 -198.592719 
L 328.182317 -200.992885 
L 328.262386 -203.39305 
L 328.344288 -205.793216 
L 328.426977 -208.193381 
L 328.509395 -210.593547 
L 328.590516 -212.993712 
L 328.669391 -215.393878 
L 328.745178 -217.794043 
L 328.817172 -220.194208 
L 328.884823 -222.594374 
L 328.947748 -224.994539 
L 329.005737 -227.394705 
L 329.058755 -229.79487 
L 329.106932 -232.195036 
L 329.15055 -234.595201 
L 329.190033 -236.995367 
L 329.22592 -239.395532 
L 329.258846 -241.795698 
L 329.289521 -244.195863 
L 329.318697 -246.596029 
L 329.347153 -248.996194 
L 329.375668 -251.39636 
L 329.405003 -253.796525 
L 329.435886 -256.196691 
L 329.469001 -258.596856 
L 329.504974 -260.997022 
L 329.544378 -263.397187 
L 329.587725 -265.797352 
L 329.635471 -268.197518 
L 329.688015 -270.597683 
L 329.745703 -272.997849 
L 329.808829 -275.398014 
L 329.877634 -277.79818 
L 329.952304 -280.198345 
L 330.032961 -282.598511 
L 330.119657 -284.998676 
L 330.212362 -287.398842 
L 330.310958 -289.799007 
L 330.415221 -292.199173 
L 330.524818 -294.599338 
L 330.639298 -296.999504 
L 330.758092 -299.399669 
L 330.880515 -301.799835 
L 331.005775 -304.2 
L 334.994225 -304.2 
L 334.994225 -304.2 
L 335.119485 -301.799835 
L 335.241908 -299.399669 
L 335.360702 -296.999504 
L 335.475182 -294.599338 
L 335.584779 -292.199173 
L 335.689042 -289.799007 
L 335.787638 -287.398842 
L 335.880343 -284.998676 
L 335.967039 -282.598511 
L 336.047696 -280.198345 
L 336.122366 -277.79818 
L 336.191171 -275.398014 
L 336.254297 -272.997849 
L 336.311985 -270.597683 
L 336.364529 -268.197518 
L 336.412275 -265.797352 
L 336.455622 -263.397187 
L 336.495026 -260.997022 
L 336.530999 -258.596856 
L 336.564114 -256.196691 
L 336.594997 -253.796525 
L 336.624332 -251.39636 
L 336.652847 -248.996194 
L 336.681303 -246.596029 
L 336.710479 -244.195863 
L 336.741154 -241.795698 
L 336.77408 -239.395532 
L 336.809967 -236.995367 
L 336.84945 -234.595201 
L 336.893068 -232.195036 
L 336.941245 -229.79487 
L 336.994263 -227.394705 
L 337.052252 -224.994539 
L 337.115177 -222.594374 
L 337.182828 -220.194208 
L 337.254822 -217.794043 
L 337.330609 -215.393878 
L 337.409484 -212.993712 
L 337.490605 -210.593547 
L 337.573023 -208.193381 
L 337.655712 -205.793216 
L 337.737614 -203.39305 
L 337.817683 -200.992885 
L 337.89494 -198.592719 
L 337.968524 -196.192554 
L 338.037752 -193.792388 
L 338.102174 -191.392223 
L 338.161627 -188.992057 
L 338.21628 -186.591892 
L 338.266675 -184.191726 
L 338.313761 -181.791561 
L 338.358907 -179.391395 
L 338.403916 -176.99123 
L 338.451021 -174.591065 
L 338.50287 -172.190899 
L 338.562509 -169.790734 
L 338.633345 -167.390568 
L 338.719119 -164.990403 
L 338.823859 -162.590237 
L 338.951845 -160.190072 
L 339.107557 -157.789906 
L 339.295631 -155.389741 
L 339.520807 -152.989575 
L 339.787866 -150.58941 
L 340.101558 -148.189244 
L 340.466524 -145.789079 
L 340.887191 -143.388913 
L 341.367647 -140.988748 
L 341.911504 -138.588582 
L 342.521723 -136.188417 
L 343.200434 -133.788252 
L 343.948724 -131.388086 
L 344.766429 -128.987921 
L 345.651916 -126.587755 
L 346.601876 -124.18759 
L 347.611146 -121.787424 
L 348.672565 -119.387259 
L 349.776884 -116.987093 
L 350.912739 -114.586928 
L 352.066706 -112.186762 
L 353.223435 -109.786597 
L 354.365888 -107.386431 
L 355.475649 -104.986266 
L 356.53334 -102.5861 
L 357.519103 -100.185935 
L 358.413143 -97.785769 
L 359.196321 -95.385604 
L 359.850757 -92.985439 
L 360.360431 -90.585273 
L 360.711748 -88.185108 
L 360.894044 -85.784942 
L 360.9 -83.384777 
L 360.725952 -80.984611 
L 360.372078 -78.584446 
L 359.842439 -76.18428 
L 359.144893 -73.784115 
L 358.29086 -71.383949 
L 357.294966 -68.983784 
L 356.17457 -66.583618 
z
" id="mf2afd03901" style="stroke:#90ee90;stroke-opacity:0.3;"/>
    </defs>
    <g clip-path="url(#pa134facee2)">
     <use style="fill:#008000;fill-opacity:0.3;stroke:#90ee90;stroke-opacity:0.3;" x="0" xlink:href="#mf2afd03901" y="360"/>
    </g>
   </g>
   <g id="Quiver_1">
    <path clip-path="url(#pa134facee2)" d="M 109.8 290.343323 
L 216.8802 290.343323 
L 216.378 289.338923 
L 221.4 290.845523 
L 216.378 292.352123 
L 216.8802 291.347723 
L 109.8 291.347723 
L 109.8 290.343323 
" style="fill:#ff0000;"/>
   </g>
   <g id="Quiver_2">
    <path clip-path="url(#pa134facee2)" d="M 221.4 290.343323 
L 328.4802 290.343323 
L 327.978 289.338923 
L 333 290.845523 
L 327.978 292.352123 
L 328.4802 291.347723 
L 221.4 291.347723 
L 221.4 290.343323 
" style="fill:#ff0000;"/>
   </g>
   <g id="Quiver_3">
    <path clip-path="url(#pa134facee2)" d="M 109.8 307.2978 
L 328.4802 307.2978 
L 327.978 306.2934 
L 333 307.8 
L 327.978 309.3066 
L 328.4802 308.3022 
L 109.8 308.3022 
L 109.8 307.2978 
" style="fill:#ff0000;"/>
   </g>
   <g id="Quiver_4">
    <path clip-path="url(#pa134facee2)" d="M 221.4 291.347723 
L 114.3198 291.347723 
L 114.822 292.352123 
L 109.8 290.845523 
L 114.822 289.338923 
L 114.3198 290.343323 
L 221.4 290.343323 
L 221.4 291.347723 
" style="fill:#ff0000;"/>
   </g>
   <g id="Quiver_5">
    <path clip-path="url(#pa134facee2)" d="M 333 291.347723 
L 225.9198 291.347723 
L 226.422 292.352123 
L 221.4 290.845523 
L 226.422 289.338923 
L 225.9198 290.343323 
L 333 290.343323 
L 333 291.347723 
" style="fill:#ff0000;"/>
   </g>
   <g id="Quiver_6">
    <path clip-path="url(#pa134facee2)" d="M 333 308.3022 
L 114.3198 308.3022 
L 114.822 309.3066 
L 109.8 307.8 
L 114.822 306.2934 
L 114.3198 307.2978 
L 333 307.2978 
L 333 308.3022 
" style="fill:#ff0000;"/>
   </g>
   <g id="matplotlib.axis_1">
    <g id="xtick_1">
     <g id="line2d_1">
      <defs>
       <path d="M 0 0 
L 0 3.5 
" id="m13b0b8e150" style="stroke:#000000;stroke-width:0.8;"/>
      </defs>
      <g>
       <use style="stroke:#000000;stroke-width:0.8;" x="109.8" xlink:href="#m13b0b8e150" y="320.4"/>
      </g>
     </g>
     <g id="text_1">
      <!-- CN -->
      <g transform="translate(102.567969 334.998438)scale(0.1 -0.1)">
       <defs>
        <path d="M 64.40625 67.28125 
L 64.40625 56.890625 
Q 59.421875 61.53125 53.78125 63.8125 
Q 48.140625 66.109375 41.796875 66.109375 
Q 29.296875 66.109375 22.65625 58.46875 
Q 16.015625 50.828125 16.015625 36.375 
Q 16.015625 21.96875 22.65625 14.328125 
Q 29.296875 6.6875 41.796875 6.6875 
Q 48.140625 6.6875 53.78125 8.984375 
Q 59.421875 11.28125 64.40625 15.921875 
L 64.40625 5.609375 
Q 59.234375 2.09375 53.4375 0.328125 
Q 47.65625 -1.421875 41.21875 -1.421875 
Q 24.65625 -1.421875 15.125 8.703125 
Q 5.609375 18.84375 5.609375 36.375 
Q 5.609375 53.953125 15.125 64.078125 
Q 24.65625 74.21875 41.21875 74.21875 
Q 47.75 74.21875 53.53125 72.484375 
Q 59.328125 70.75 64.40625 67.28125 
z
" id="DejaVuSans-67"/>
        <path d="M 9.8125 72.90625 
L 23.09375 72.90625 
L 55.421875 11.921875 
L 55.421875 72.90625 
L 64.984375 72.90625 
L 64.984375 0 
L 51.703125 0 
L 19.390625 60.984375 
L 19.390625 0 
L 9.8125 0 
z
" id="DejaVuSans-78"/>
       </defs>
       <use xlink:href="#DejaVuSans-67"/>
       <use x="69.824219" xlink:href="#DejaVuSans-78"/>
      </g>
     </g>
    </g>
    <g id="xtick_2">
     <g id="line2d_2">
      <g>
       <use style="stroke:#000000;stroke-width:0.8;" x="221.4" xlink:href="#m13b0b8e150" y="320.4"/>
      </g>
     </g>
     <g id="text_2">
      <!-- EMCI -->
      <g transform="translate(208.960156 334.998438)scale(0.1 -0.1)">
       <defs>
        <path d="M 9.8125 72.90625 
L 55.90625 72.90625 
L 55.90625 64.59375 
L 19.671875 64.59375 
L 19.671875 43.015625 
L 54.390625 43.015625 
L 54.390625 34.71875 
L 19.671875 34.71875 
L 19.671875 8.296875 
L 56.78125 8.296875 
L 56.78125 0 
L 9.8125 0 
z
" id="DejaVuSans-69"/>
        <path d="M 9.8125 72.90625 
L 24.515625 72.90625 
L 43.109375 23.296875 
L 61.8125 72.90625 
L 76.515625 72.90625 
L 76.515625 0 
L 66.890625 0 
L 66.890625 64.015625 
L 48.09375 14.015625 
L 38.1875 14.015625 
L 19.390625 64.015625 
L 19.390625 0 
L 9.8125 0 
z
" id="DejaVuSans-77"/>
        <path d="M 9.8125 72.90625 
L 19.671875 72.90625 
L 19.671875 0 
L 9.8125 0 
z
" id="DejaVuSans-73"/>
       </defs>
       <use xlink:href="#DejaVuSans-69"/>
       <use x="63.183594" xlink:href="#DejaVuSans-77"/>
       <use x="149.462891" xlink:href="#DejaVuSans-67"/>
       <use x="219.287109" xlink:href="#DejaVuSans-73"/>
      </g>
     </g>
    </g>
    <g id="xtick_3">
     <g id="line2d_3">
      <g>
       <use style="stroke:#000000;stroke-width:0.8;" x="333" xlink:href="#m13b0b8e150" y="320.4"/>
      </g>
     </g>
     <g id="text_3">
      <!-- LMCI -->
      <g transform="translate(320.933594 334.998438)scale(0.1 -0.1)">
       <defs>
        <path d="M 9.8125 72.90625 
L 19.671875 72.90625 
L 19.671875 8.296875 
L 55.171875 8.296875 
L 55.171875 0 
L 9.8125 0 
z
" id="DejaVuSans-76"/>
       </defs>
       <use xlink:href="#DejaVuSans-76"/>
       <use x="55.712891" xlink:href="#DejaVuSans-77"/>
       <use x="141.992188" xlink:href="#DejaVuSans-67"/>
       <use x="211.816406" xlink:href="#DejaVuSans-73"/>
      </g>
     </g>
    </g>
    <g id="text_4">
     <!-- Three separate samples -->
     <g transform="translate(161.04375 348.676562)scale(0.1 -0.1)">
      <defs>
       <path d="M -0.296875 72.90625 
L 61.375 72.90625 
L 61.375 64.59375 
L 35.5 64.59375 
L 35.5 0 
L 25.59375 0 
L 25.59375 64.59375 
L -0.296875 64.59375 
z
" id="DejaVuSans-84"/>
       <path d="M 54.890625 33.015625 
L 54.890625 0 
L 45.90625 0 
L 45.90625 32.71875 
Q 45.90625 40.484375 42.875 44.328125 
Q 39.84375 48.1875 33.796875 48.1875 
Q 26.515625 48.1875 22.3125 43.546875 
Q 18.109375 38.921875 18.109375 30.90625 
L 18.109375 0 
L 9.078125 0 
L 9.078125 75.984375 
L 18.109375 75.984375 
L 18.109375 46.1875 
Q 21.34375 51.125 25.703125 53.5625 
Q 30.078125 56 35.796875 56 
Q 45.21875 56 50.046875 50.171875 
Q 54.890625 44.34375 54.890625 33.015625 
z
" id="DejaVuSans-104"/>
       <path d="M 41.109375 46.296875 
Q 39.59375 47.171875 37.8125 47.578125 
Q 36.03125 48 33.890625 48 
Q 26.265625 48 22.1875 43.046875 
Q 18.109375 38.09375 18.109375 28.8125 
L 18.109375 0 
L 9.078125 0 
L 9.078125 54.6875 
L 18.109375 54.6875 
L 18.109375 46.1875 
Q 20.953125 51.171875 25.484375 53.578125 
Q 30.03125 56 36.53125 56 
Q 37.453125 56 38.578125 55.875 
Q 39.703125 55.765625 41.0625 55.515625 
z
" id="DejaVuSans-114"/>
       <path d="M 56.203125 29.59375 
L 56.203125 25.203125 
L 14.890625 25.203125 
Q 15.484375 15.921875 20.484375 11.0625 
Q 25.484375 6.203125 34.421875 6.203125 
Q 39.59375 6.203125 44.453125 7.46875 
Q 49.3125 8.734375 54.109375 11.28125 
L 54.109375 2.78125 
Q 49.265625 0.734375 44.1875 -0.34375 
Q 39.109375 -1.421875 33.890625 -1.421875 
Q 20.796875 -1.421875 13.15625 6.1875 
Q 5.515625 13.8125 5.515625 26.8125 
Q 5.515625 40.234375 12.765625 48.109375 
Q 20.015625 56 32.328125 56 
Q 43.359375 56 49.78125 48.890625 
Q 56.203125 41.796875 56.203125 29.59375 
z
M 47.21875 32.234375 
Q 47.125 39.59375 43.09375 43.984375 
Q 39.0625 48.390625 32.421875 48.390625 
Q 24.90625 48.390625 20.390625 44.140625 
Q 15.875 39.890625 15.1875 32.171875 
z
" id="DejaVuSans-101"/>
       <path id="DejaVuSans-32"/>
       <path d="M 44.28125 53.078125 
L 44.28125 44.578125 
Q 40.484375 46.53125 36.375 47.5 
Q 32.28125 48.484375 27.875 48.484375 
Q 21.1875 48.484375 17.84375 46.4375 
Q 14.5 44.390625 14.5 40.28125 
Q 14.5 37.15625 16.890625 35.375 
Q 19.28125 33.59375 26.515625 31.984375 
L 29.59375 31.296875 
Q 39.15625 29.25 43.1875 25.515625 
Q 47.21875 21.78125 47.21875 15.09375 
Q 47.21875 7.46875 41.1875 3.015625 
Q 35.15625 -1.421875 24.609375 -1.421875 
Q 20.21875 -1.421875 15.453125 -0.5625 
Q 10.6875 0.296875 5.421875 2 
L 5.421875 11.28125 
Q 10.40625 8.6875 15.234375 7.390625 
Q 20.0625 6.109375 24.8125 6.109375 
Q 31.15625 6.109375 34.5625 8.28125 
Q 37.984375 10.453125 37.984375 14.40625 
Q 37.984375 18.0625 35.515625 20.015625 
Q 33.0625 21.96875 24.703125 23.78125 
L 21.578125 24.515625 
Q 13.234375 26.265625 9.515625 29.90625 
Q 5.8125 33.546875 5.8125 39.890625 
Q 5.8125 47.609375 11.28125 51.796875 
Q 16.75 56 26.8125 56 
Q 31.78125 56 36.171875 55.265625 
Q 40.578125 54.546875 44.28125 53.078125 
z
" id="DejaVuSans-115"/>
       <path d="M 18.109375 8.203125 
L 18.109375 -20.796875 
L 9.078125 -20.796875 
L 9.078125 54.6875 
L 18.109375 54.6875 
L 18.109375 46.390625 
Q 20.953125 51.265625 25.265625 53.625 
Q 29.59375 56 35.59375 56 
Q 45.5625 56 51.78125 48.09375 
Q 58.015625 40.1875 58.015625 27.296875 
Q 58.015625 14.40625 51.78125 6.484375 
Q 45.5625 -1.421875 35.59375 -1.421875 
Q 29.59375 -1.421875 25.265625 0.953125 
Q 20.953125 3.328125 18.109375 8.203125 
z
M 48.6875 27.296875 
Q 48.6875 37.203125 44.609375 42.84375 
Q 40.53125 48.484375 33.40625 48.484375 
Q 26.265625 48.484375 22.1875 42.84375 
Q 18.109375 37.203125 18.109375 27.296875 
Q 18.109375 17.390625 22.1875 11.75 
Q 26.265625 6.109375 33.40625 6.109375 
Q 40.53125 6.109375 44.609375 11.75 
Q 48.6875 17.390625 48.6875 27.296875 
z
" id="DejaVuSans-112"/>
       <path d="M 34.28125 27.484375 
Q 23.390625 27.484375 19.1875 25 
Q 14.984375 22.515625 14.984375 16.5 
Q 14.984375 11.71875 18.140625 8.90625 
Q 21.296875 6.109375 26.703125 6.109375 
Q 34.1875 6.109375 38.703125 11.40625 
Q 43.21875 16.703125 43.21875 25.484375 
L 43.21875 27.484375 
z
M 52.203125 31.203125 
L 52.203125 0 
L 43.21875 0 
L 43.21875 8.296875 
Q 40.140625 3.328125 35.546875 0.953125 
Q 30.953125 -1.421875 24.3125 -1.421875 
Q 15.921875 -1.421875 10.953125 3.296875 
Q 6 8.015625 6 15.921875 
Q 6 25.140625 12.171875 29.828125 
Q 18.359375 34.515625 30.609375 34.515625 
L 43.21875 34.515625 
L 43.21875 35.40625 
Q 43.21875 41.609375 39.140625 45 
Q 35.0625 48.390625 27.6875 48.390625 
Q 23 48.390625 18.546875 47.265625 
Q 14.109375 46.140625 10.015625 43.890625 
L 10.015625 52.203125 
Q 14.9375 54.109375 19.578125 55.046875 
Q 24.21875 56 28.609375 56 
Q 40.484375 56 46.34375 49.84375 
Q 52.203125 43.703125 52.203125 31.203125 
z
" id="DejaVuSans-97"/>
       <path d="M 18.3125 70.21875 
L 18.3125 54.6875 
L 36.8125 54.6875 
L 36.8125 47.703125 
L 18.3125 47.703125 
L 18.3125 18.015625 
Q 18.3125 11.328125 20.140625 9.421875 
Q 21.96875 7.515625 27.59375 7.515625 
L 36.8125 7.515625 
L 36.8125 0 
L 27.59375 0 
Q 17.1875 0 13.234375 3.875 
Q 9.28125 7.765625 9.28125 18.015625 
L 9.28125 47.703125 
L 2.6875 47.703125 
L 2.6875 54.6875 
L 9.28125 54.6875 
L 9.28125 70.21875 
z
" id="DejaVuSans-116"/>
       <path d="M 52 44.1875 
Q 55.375 50.25 60.0625 53.125 
Q 64.75 56 71.09375 56 
Q 79.640625 56 84.28125 50.015625 
Q 88.921875 44.046875 88.921875 33.015625 
L 88.921875 0 
L 79.890625 0 
L 79.890625 32.71875 
Q 79.890625 40.578125 77.09375 44.375 
Q 74.3125 48.1875 68.609375 48.1875 
Q 61.625 48.1875 57.5625 43.546875 
Q 53.515625 38.921875 53.515625 30.90625 
L 53.515625 0 
L 44.484375 0 
L 44.484375 32.71875 
Q 44.484375 40.625 41.703125 44.40625 
Q 38.921875 48.1875 33.109375 48.1875 
Q 26.21875 48.1875 22.15625 43.53125 
Q 18.109375 38.875 18.109375 30.90625 
L 18.109375 0 
L 9.078125 0 
L 9.078125 54.6875 
L 18.109375 54.6875 
L 18.109375 46.1875 
Q 21.1875 51.21875 25.484375 53.609375 
Q 29.78125 56 35.6875 56 
Q 41.65625 56 45.828125 52.96875 
Q 50 49.953125 52 44.1875 
z
" id="DejaVuSans-109"/>
       <path d="M 9.421875 75.984375 
L 18.40625 75.984375 
L 18.40625 0 
L 9.421875 0 
z
" id="DejaVuSans-108"/>
      </defs>
      <use xlink:href="#DejaVuSans-84"/>
      <use x="61.083984" xlink:href="#DejaVuSans-104"/>
      <use x="124.462891" xlink:href="#DejaVuSans-114"/>
      <use x="163.326172" xlink:href="#DejaVuSans-101"/>
      <use x="224.849609" xlink:href="#DejaVuSans-101"/>
      <use x="286.373047" xlink:href="#DejaVuSans-32"/>
      <use x="318.160156" xlink:href="#DejaVuSans-115"/>
      <use x="370.259766" xlink:href="#DejaVuSans-101"/>
      <use x="431.783203" xlink:href="#DejaVuSans-112"/>
      <use x="495.259766" xlink:href="#DejaVuSans-97"/>
      <use x="556.539062" xlink:href="#DejaVuSans-114"/>
      <use x="597.652344" xlink:href="#DejaVuSans-97"/>
      <use x="658.931641" xlink:href="#DejaVuSans-116"/>
      <use x="698.140625" xlink:href="#DejaVuSans-101"/>
      <use x="759.664062" xlink:href="#DejaVuSans-32"/>
      <use x="791.451172" xlink:href="#DejaVuSans-115"/>
      <use x="843.550781" xlink:href="#DejaVuSans-97"/>
      <use x="904.830078" xlink:href="#DejaVuSans-109"/>
      <use x="1002.242188" xlink:href="#DejaVuSans-112"/>
      <use x="1065.71875" xlink:href="#DejaVuSans-108"/>
      <use x="1093.501953" xlink:href="#DejaVuSans-101"/>
      <use x="1155.025391" xlink:href="#DejaVuSans-115"/>
     </g>
    </g>
   </g>
   <g id="matplotlib.axis_2">
    <g id="ytick_1">
     <g id="line2d_4">
      <path clip-path="url(#pa134facee2)" d="M 54 316.277238 
L 388.8 316.277238 
" style="fill:none;stroke:#000000;stroke-linecap:square;stroke-opacity:0;stroke-width:0.8;"/>
     </g>
     <g id="line2d_5">
      <defs>
       <path d="M 0 0 
L -3.5 0 
" id="m4a385c18cd" style="stroke:#000000;stroke-width:0.8;"/>
      </defs>
      <g>
       <use style="stroke:#000000;stroke-width:0.8;" x="54" xlink:href="#m4a385c18cd" y="316.277238"/>
      </g>
     </g>
     <g id="text_5">
      <!-- 0 -->
      <g transform="translate(40.6375 320.076457)scale(0.1 -0.1)">
       <defs>
        <path d="M 31.78125 66.40625 
Q 24.171875 66.40625 20.328125 58.90625 
Q 16.5 51.421875 16.5 36.375 
Q 16.5 21.390625 20.328125 13.890625 
Q 24.171875 6.390625 31.78125 6.390625 
Q 39.453125 6.390625 43.28125 13.890625 
Q 47.125 21.390625 47.125 36.375 
Q 47.125 51.421875 43.28125 58.90625 
Q 39.453125 66.40625 31.78125 66.40625 
z
M 31.78125 74.21875 
Q 44.046875 74.21875 50.515625 64.515625 
Q 56.984375 54.828125 56.984375 36.375 
Q 56.984375 17.96875 50.515625 8.265625 
Q 44.046875 -1.421875 31.78125 -1.421875 
Q 19.53125 -1.421875 13.0625 8.265625 
Q 6.59375 17.96875 6.59375 36.375 
Q 6.59375 54.828125 13.0625 64.515625 
Q 19.53125 74.21875 31.78125 74.21875 
z
" id="DejaVuSans-48"/>
       </defs>
       <use xlink:href="#DejaVuSans-48"/>
      </g>
     </g>
    </g>
    <g id="ytick_2">
     <g id="line2d_6">
      <path clip-path="url(#pa134facee2)" d="M 54 273.891046 
L 388.8 273.891046 
" style="fill:none;stroke:#000000;stroke-linecap:square;stroke-opacity:0;stroke-width:0.8;"/>
     </g>
     <g id="line2d_7">
      <g>
       <use style="stroke:#000000;stroke-width:0.8;" x="54" xlink:href="#m4a385c18cd" y="273.891046"/>
      </g>
     </g>
     <g id="text_6">
      <!-- 5 -->
      <g transform="translate(40.6375 277.690265)scale(0.1 -0.1)">
       <defs>
        <path d="M 10.796875 72.90625 
L 49.515625 72.90625 
L 49.515625 64.59375 
L 19.828125 64.59375 
L 19.828125 46.734375 
Q 21.96875 47.46875 24.109375 47.828125 
Q 26.265625 48.1875 28.421875 48.1875 
Q 40.625 48.1875 47.75 41.5 
Q 54.890625 34.8125 54.890625 23.390625 
Q 54.890625 11.625 47.5625 5.09375 
Q 40.234375 -1.421875 26.90625 -1.421875 
Q 22.3125 -1.421875 17.546875 -0.640625 
Q 12.796875 0.140625 7.71875 1.703125 
L 7.71875 11.625 
Q 12.109375 9.234375 16.796875 8.0625 
Q 21.484375 6.890625 26.703125 6.890625 
Q 35.15625 6.890625 40.078125 11.328125 
Q 45.015625 15.765625 45.015625 23.390625 
Q 45.015625 31 40.078125 35.4375 
Q 35.15625 39.890625 26.703125 39.890625 
Q 22.75 39.890625 18.8125 39.015625 
Q 14.890625 38.140625 10.796875 36.28125 
z
" id="DejaVuSans-53"/>
       </defs>
       <use xlink:href="#DejaVuSans-53"/>
      </g>
     </g>
    </g>
    <g id="ytick_3">
     <g id="line2d_8">
      <path clip-path="url(#pa134facee2)" d="M 54 231.504854 
L 388.8 231.504854 
" style="fill:none;stroke:#000000;stroke-linecap:square;stroke-opacity:0;stroke-width:0.8;"/>
     </g>
     <g id="line2d_9">
      <g>
       <use style="stroke:#000000;stroke-width:0.8;" x="54" xlink:href="#m4a385c18cd" y="231.504854"/>
      </g>
     </g>
     <g id="text_7">
      <!-- 10 -->
      <g transform="translate(34.275 235.304073)scale(0.1 -0.1)">
       <defs>
        <path d="M 12.40625 8.296875 
L 28.515625 8.296875 
L 28.515625 63.921875 
L 10.984375 60.40625 
L 10.984375 69.390625 
L 28.421875 72.90625 
L 38.28125 72.90625 
L 38.28125 8.296875 
L 54.390625 8.296875 
L 54.390625 0 
L 12.40625 0 
z
" id="DejaVuSans-49"/>
       </defs>
       <use xlink:href="#DejaVuSans-49"/>
       <use x="63.623047" xlink:href="#DejaVuSans-48"/>
      </g>
     </g>
    </g>
    <g id="ytick_4">
     <g id="line2d_10">
      <path clip-path="url(#pa134facee2)" d="M 54 189.118662 
L 388.8 189.118662 
" style="fill:none;stroke:#000000;stroke-linecap:square;stroke-opacity:0;stroke-width:0.8;"/>
     </g>
     <g id="line2d_11">
      <g>
       <use style="stroke:#000000;stroke-width:0.8;" x="54" xlink:href="#m4a385c18cd" y="189.118662"/>
      </g>
     </g>
     <g id="text_8">
      <!-- 15 -->
      <g transform="translate(34.275 192.917881)scale(0.1 -0.1)">
       <use xlink:href="#DejaVuSans-49"/>
       <use x="63.623047" xlink:href="#DejaVuSans-53"/>
      </g>
     </g>
    </g>
    <g id="ytick_5">
     <g id="line2d_12">
      <path clip-path="url(#pa134facee2)" d="M 54 146.73247 
L 388.8 146.73247 
" style="fill:none;stroke:#000000;stroke-linecap:square;stroke-opacity:0;stroke-width:0.8;"/>
     </g>
     <g id="line2d_13">
      <g>
       <use style="stroke:#000000;stroke-width:0.8;" x="54" xlink:href="#m4a385c18cd" y="146.73247"/>
      </g>
     </g>
     <g id="text_9">
      <!-- 20 -->
      <g transform="translate(34.275 150.531689)scale(0.1 -0.1)">
       <defs>
        <path d="M 19.1875 8.296875 
L 53.609375 8.296875 
L 53.609375 0 
L 7.328125 0 
L 7.328125 8.296875 
Q 12.9375 14.109375 22.625 23.890625 
Q 32.328125 33.6875 34.8125 36.53125 
Q 39.546875 41.84375 41.421875 45.53125 
Q 43.3125 49.21875 43.3125 52.78125 
Q 43.3125 58.59375 39.234375 62.25 
Q 35.15625 65.921875 28.609375 65.921875 
Q 23.96875 65.921875 18.8125 64.3125 
Q 13.671875 62.703125 7.8125 59.421875 
L 7.8125 69.390625 
Q 13.765625 71.78125 18.9375 73 
Q 24.125 74.21875 28.421875 74.21875 
Q 39.75 74.21875 46.484375 68.546875 
Q 53.21875 62.890625 53.21875 53.421875 
Q 53.21875 48.921875 51.53125 44.890625 
Q 49.859375 40.875 45.40625 35.40625 
Q 44.1875 33.984375 37.640625 27.21875 
Q 31.109375 20.453125 19.1875 8.296875 
z
" id="DejaVuSans-50"/>
       </defs>
       <use xlink:href="#DejaVuSans-50"/>
       <use x="63.623047" xlink:href="#DejaVuSans-48"/>
      </g>
     </g>
    </g>
    <g id="ytick_6">
     <g id="line2d_14">
      <path clip-path="url(#pa134facee2)" d="M 54 104.346278 
L 388.8 104.346278 
" style="fill:none;stroke:#000000;stroke-linecap:square;stroke-opacity:0;stroke-width:0.8;"/>
     </g>
     <g id="line2d_15">
      <g>
       <use style="stroke:#000000;stroke-width:0.8;" x="54" xlink:href="#m4a385c18cd" y="104.346278"/>
      </g>
     </g>
     <g id="text_10">
      <!-- 25 -->
      <g transform="translate(34.275 108.145497)scale(0.1 -0.1)">
       <use xlink:href="#DejaVuSans-50"/>
       <use x="63.623047" xlink:href="#DejaVuSans-53"/>
      </g>
     </g>
    </g>
    <g id="ytick_7">
     <g id="line2d_16">
      <path clip-path="url(#pa134facee2)" d="M 54 61.960086 
L 388.8 61.960086 
" style="fill:none;stroke:#000000;stroke-linecap:square;stroke-opacity:0;stroke-width:0.8;"/>
     </g>
     <g id="line2d_17">
      <g>
       <use style="stroke:#000000;stroke-width:0.8;" x="54" xlink:href="#m4a385c18cd" y="61.960086"/>
      </g>
     </g>
     <g id="text_11">
      <!-- 30 -->
      <g transform="translate(34.275 65.759305)scale(0.1 -0.1)">
       <defs>
        <path d="M 40.578125 39.3125 
Q 47.65625 37.796875 51.625 33 
Q 55.609375 28.21875 55.609375 21.1875 
Q 55.609375 10.40625 48.1875 4.484375 
Q 40.765625 -1.421875 27.09375 -1.421875 
Q 22.515625 -1.421875 17.65625 -0.515625 
Q 12.796875 0.390625 7.625 2.203125 
L 7.625 11.71875 
Q 11.71875 9.328125 16.59375 8.109375 
Q 21.484375 6.890625 26.8125 6.890625 
Q 36.078125 6.890625 40.9375 10.546875 
Q 45.796875 14.203125 45.796875 21.1875 
Q 45.796875 27.640625 41.28125 31.265625 
Q 36.765625 34.90625 28.71875 34.90625 
L 20.21875 34.90625 
L 20.21875 43.015625 
L 29.109375 43.015625 
Q 36.375 43.015625 40.234375 45.921875 
Q 44.09375 48.828125 44.09375 54.296875 
Q 44.09375 59.90625 40.109375 62.90625 
Q 36.140625 65.921875 28.71875 65.921875 
Q 24.65625 65.921875 20.015625 65.03125 
Q 15.375 64.15625 9.8125 62.3125 
L 9.8125 71.09375 
Q 15.4375 72.65625 20.34375 73.4375 
Q 25.25 74.21875 29.59375 74.21875 
Q 40.828125 74.21875 47.359375 69.109375 
Q 53.90625 64.015625 53.90625 55.328125 
Q 53.90625 49.265625 50.4375 45.09375 
Q 46.96875 40.921875 40.578125 39.3125 
z
" id="DejaVuSans-51"/>
       </defs>
       <use xlink:href="#DejaVuSans-51"/>
       <use x="63.623047" xlink:href="#DejaVuSans-48"/>
      </g>
     </g>
    </g>
    <g id="text_12">
     <!-- Energy, [E] -->
     <g transform="translate(28.195312 209.545312)rotate(-90)scale(0.1 -0.1)">
      <defs>
       <path d="M 54.890625 33.015625 
L 54.890625 0 
L 45.90625 0 
L 45.90625 32.71875 
Q 45.90625 40.484375 42.875 44.328125 
Q 39.84375 48.1875 33.796875 48.1875 
Q 26.515625 48.1875 22.3125 43.546875 
Q 18.109375 38.921875 18.109375 30.90625 
L 18.109375 0 
L 9.078125 0 
L 9.078125 54.6875 
L 18.109375 54.6875 
L 18.109375 46.1875 
Q 21.34375 51.125 25.703125 53.5625 
Q 30.078125 56 35.796875 56 
Q 45.21875 56 50.046875 50.171875 
Q 54.890625 44.34375 54.890625 33.015625 
z
" id="DejaVuSans-110"/>
       <path d="M 45.40625 27.984375 
Q 45.40625 37.75 41.375 43.109375 
Q 37.359375 48.484375 30.078125 48.484375 
Q 22.859375 48.484375 18.828125 43.109375 
Q 14.796875 37.75 14.796875 27.984375 
Q 14.796875 18.265625 18.828125 12.890625 
Q 22.859375 7.515625 30.078125 7.515625 
Q 37.359375 7.515625 41.375 12.890625 
Q 45.40625 18.265625 45.40625 27.984375 
z
M 54.390625 6.78125 
Q 54.390625 -7.171875 48.1875 -13.984375 
Q 42 -20.796875 29.203125 -20.796875 
Q 24.46875 -20.796875 20.265625 -20.09375 
Q 16.0625 -19.390625 12.109375 -17.921875 
L 12.109375 -9.1875 
Q 16.0625 -11.328125 19.921875 -12.34375 
Q 23.78125 -13.375 27.78125 -13.375 
Q 36.625 -13.375 41.015625 -8.765625 
Q 45.40625 -4.15625 45.40625 5.171875 
L 45.40625 9.625 
Q 42.625 4.78125 38.28125 2.390625 
Q 33.9375 0 27.875 0 
Q 17.828125 0 11.671875 7.65625 
Q 5.515625 15.328125 5.515625 27.984375 
Q 5.515625 40.671875 11.671875 48.328125 
Q 17.828125 56 27.875 56 
Q 33.9375 56 38.28125 53.609375 
Q 42.625 51.21875 45.40625 46.390625 
L 45.40625 54.6875 
L 54.390625 54.6875 
z
" id="DejaVuSans-103"/>
       <path d="M 32.171875 -5.078125 
Q 28.375 -14.84375 24.75 -17.8125 
Q 21.140625 -20.796875 15.09375 -20.796875 
L 7.90625 -20.796875 
L 7.90625 -13.28125 
L 13.1875 -13.28125 
Q 16.890625 -13.28125 18.9375 -11.515625 
Q 21 -9.765625 23.484375 -3.21875 
L 25.09375 0.875 
L 2.984375 54.6875 
L 12.5 54.6875 
L 29.59375 11.921875 
L 46.6875 54.6875 
L 56.203125 54.6875 
z
" id="DejaVuSans-121"/>
       <path d="M 11.71875 12.40625 
L 22.015625 12.40625 
L 22.015625 4 
L 14.015625 -11.625 
L 7.71875 -11.625 
L 11.71875 4 
z
" id="DejaVuSans-44"/>
       <path d="M 8.59375 75.984375 
L 29.296875 75.984375 
L 29.296875 69 
L 17.578125 69 
L 17.578125 -6.203125 
L 29.296875 -6.203125 
L 29.296875 -13.1875 
L 8.59375 -13.1875 
z
" id="DejaVuSans-91"/>
       <path d="M 30.421875 75.984375 
L 30.421875 -13.1875 
L 9.71875 -13.1875 
L 9.71875 -6.203125 
L 21.390625 -6.203125 
L 21.390625 69 
L 9.71875 69 
L 9.71875 75.984375 
z
" id="DejaVuSans-93"/>
      </defs>
      <use xlink:href="#DejaVuSans-69"/>
      <use x="63.183594" xlink:href="#DejaVuSans-110"/>
      <use x="126.5625" xlink:href="#DejaVuSans-101"/>
      <use x="188.085938" xlink:href="#DejaVuSans-114"/>
      <use x="227.449219" xlink:href="#DejaVuSans-103"/>
      <use x="290.925781" xlink:href="#DejaVuSans-121"/>
      <use x="350.105469" xlink:href="#DejaVuSans-44"/>
      <use x="381.892578" xlink:href="#DejaVuSans-32"/>
      <use x="413.679688" xlink:href="#DejaVuSans-91"/>
      <use x="452.693359" xlink:href="#DejaVuSans-69"/>
      <use x="515.876953" xlink:href="#DejaVuSans-93"/>
     </g>
    </g>
   </g>
   <g id="line2d_18">
    <path clip-path="url(#pa134facee2)" d="M 109.8 286.565536 
L 109.8 294.598264 
" style="fill:none;"/>
   </g>
   <g id="line2d_19">
    <path clip-path="url(#pa134facee2)" d="M 109.8 277.330392 
L 109.8 263.813296 
" style="fill:none;"/>
   </g>
   <g id="line2d_20">
    <path clip-path="url(#pa134facee2)" d="M 221.4 285.982372 
L 221.4 295.260428 
" style="fill:none;"/>
   </g>
   <g id="line2d_21">
    <path clip-path="url(#pa134facee2)" d="M 221.4 273.333291 
L 221.4 256.794561 
" style="fill:none;"/>
   </g>
   <g id="line2d_22">
    <path clip-path="url(#pa134facee2)" d="M 333 283.008696 
L 333 293.416382 
" style="fill:none;"/>
   </g>
   <g id="line2d_23">
    <path clip-path="url(#pa134facee2)" d="M 333 222.897515 
L 333 132.903648 
" style="fill:none;"/>
   </g>
   <g id="patch_3">
    <path clip-path="url(#pa134facee2)" d="M 93.06 286.565536 
L 126.54 286.565536 
L 126.54 277.330392 
L 93.06 277.330392 
L 93.06 286.565536 
z
" style="fill:#ffc0cb;"/>
   </g>
   <g id="patch_4">
    <path clip-path="url(#pa134facee2)" d="M 204.66 285.982372 
L 238.14 285.982372 
L 238.14 273.333291 
L 204.66 273.333291 
L 204.66 285.982372 
z
" style="fill:#add8e6;"/>
   </g>
   <g id="patch_5">
    <path clip-path="url(#pa134facee2)" d="M 316.26 283.008696 
L 349.74 283.008696 
L 349.74 222.897515 
L 316.26 222.897515 
L 316.26 283.008696 
z
" style="fill:#90ee90;"/>
   </g>
   <g id="line2d_24">
    <path clip-path="url(#pa134facee2)" d="M 93.06 282.286463 
L 126.54 282.286463 
" style="fill:none;stroke:#ff7f0e;stroke-linecap:square;"/>
   </g>
   <g id="line2d_25">
    <defs>
     <path d="M 0 -3 
L -3 3 
L 3 3 
z
" id="m292f3cd474" style="stroke:#2ca02c;stroke-linejoin:miter;"/>
    </defs>
    <g clip-path="url(#pa134facee2)">
     <use style="fill:#2ca02c;stroke:#2ca02c;stroke-linejoin:miter;" x="109.8" xlink:href="#m292f3cd474" y="281.689564"/>
    </g>
   </g>
   <g id="line2d_26">
    <path clip-path="url(#pa134facee2)" d="M 204.66 280.653916 
L 238.14 280.653916 
" style="fill:none;stroke:#ff7f0e;stroke-linecap:square;"/>
   </g>
   <g id="line2d_27">
    <g clip-path="url(#pa134facee2)">
     <use style="fill:#2ca02c;stroke:#2ca02c;stroke-linejoin:miter;" x="221.4" xlink:href="#m292f3cd474" y="279.037553"/>
    </g>
   </g>
   <g id="line2d_28">
    <path clip-path="url(#pa134facee2)" d="M 316.26 267.712858 
L 349.74 267.712858 
" style="fill:none;stroke:#ff7f0e;stroke-linecap:square;"/>
   </g>
   <g id="line2d_29">
    <g clip-path="url(#pa134facee2)">
     <use style="fill:#2ca02c;stroke:#2ca02c;stroke-linejoin:miter;" x="333" xlink:href="#m292f3cd474" y="239.921706"/>
    </g>
   </g>
   <g id="patch_6">
    <path d="M 54 320.4 
L 54 43.2 
" style="fill:none;stroke:#000000;stroke-linecap:square;stroke-linejoin:miter;stroke-width:0.8;"/>
   </g>
   <g id="patch_7">
    <path d="M 388.8 320.4 
L 388.8 43.2 
" style="fill:none;stroke:#000000;stroke-linecap:square;stroke-linejoin:miter;stroke-width:0.8;"/>
   </g>
   <g id="patch_8">
    <path d="M 54 320.4 
L 388.8 320.4 
" style="fill:none;stroke:#000000;stroke-linecap:square;stroke-linejoin:miter;stroke-width:0.8;"/>
   </g>
   <g id="patch_9">
    <path d="M 54 43.2 
L 388.8 43.2 
" style="fill:none;stroke:#000000;stroke-linecap:square;stroke-linejoin:miter;stroke-width:0.8;"/>
   </g>
   <g id="text_13">
    <!-- $p=0.179$ -->
    <g transform="translate(143.28 287.454628)scale(0.1 -0.1)">
     <defs>
      <path d="M 49.609375 33.6875 
Q 49.609375 40.875 46.484375 44.671875 
Q 43.359375 48.484375 37.5 48.484375 
Q 33.5 48.484375 29.859375 46.4375 
Q 26.21875 44.390625 23.390625 40.484375 
Q 20.609375 36.625 18.9375 31.15625 
Q 17.28125 25.6875 17.28125 20.3125 
Q 17.28125 13.484375 20.40625 9.796875 
Q 23.53125 6.109375 29.296875 6.109375 
Q 33.546875 6.109375 37.1875 8.109375 
Q 40.828125 10.109375 43.40625 13.921875 
Q 46.1875 17.921875 47.890625 23.34375 
Q 49.609375 28.765625 49.609375 33.6875 
z
M 21.78125 46.390625 
Q 25.390625 51.125 30.296875 53.5625 
Q 35.203125 56 41.21875 56 
Q 49.609375 56 54.25 50.5 
Q 58.890625 45.015625 58.890625 35.109375 
Q 58.890625 27 56 19.65625 
Q 53.125 12.3125 47.703125 6.5 
Q 44.09375 2.640625 39.546875 0.609375 
Q 35.015625 -1.421875 29.984375 -1.421875 
Q 24.171875 -1.421875 20.21875 1 
Q 16.265625 3.421875 14.3125 8.203125 
L 8.6875 -20.796875 
L -0.296875 -20.796875 
L 14.40625 54.6875 
L 23.390625 54.6875 
z
" id="DejaVuSans-Oblique-112"/>
      <path d="M 10.59375 45.40625 
L 73.1875 45.40625 
L 73.1875 37.203125 
L 10.59375 37.203125 
z
M 10.59375 25.484375 
L 73.1875 25.484375 
L 73.1875 17.1875 
L 10.59375 17.1875 
z
" id="DejaVuSans-61"/>
      <path d="M 10.6875 12.40625 
L 21 12.40625 
L 21 0 
L 10.6875 0 
z
" id="DejaVuSans-46"/>
      <path d="M 8.203125 72.90625 
L 55.078125 72.90625 
L 55.078125 68.703125 
L 28.609375 0 
L 18.3125 0 
L 43.21875 64.59375 
L 8.203125 64.59375 
z
" id="DejaVuSans-55"/>
      <path d="M 10.984375 1.515625 
L 10.984375 10.5 
Q 14.703125 8.734375 18.5 7.8125 
Q 22.3125 6.890625 25.984375 6.890625 
Q 35.75 6.890625 40.890625 13.453125 
Q 46.046875 20.015625 46.78125 33.40625 
Q 43.953125 29.203125 39.59375 26.953125 
Q 35.25 24.703125 29.984375 24.703125 
Q 19.046875 24.703125 12.671875 31.3125 
Q 6.296875 37.9375 6.296875 49.421875 
Q 6.296875 60.640625 12.9375 67.421875 
Q 19.578125 74.21875 30.609375 74.21875 
Q 43.265625 74.21875 49.921875 64.515625 
Q 56.59375 54.828125 56.59375 36.375 
Q 56.59375 19.140625 48.40625 8.859375 
Q 40.234375 -1.421875 26.421875 -1.421875 
Q 22.703125 -1.421875 18.890625 -0.6875 
Q 15.09375 0.046875 10.984375 1.515625 
z
M 30.609375 32.421875 
Q 37.25 32.421875 41.125 36.953125 
Q 45.015625 41.5 45.015625 49.421875 
Q 45.015625 57.28125 41.125 61.84375 
Q 37.25 66.40625 30.609375 66.40625 
Q 23.96875 66.40625 20.09375 61.84375 
Q 16.21875 57.28125 16.21875 49.421875 
Q 16.21875 41.5 20.09375 36.953125 
Q 23.96875 32.421875 30.609375 32.421875 
z
" id="DejaVuSans-57"/>
     </defs>
     <use transform="translate(0 0.78125)" xlink:href="#DejaVuSans-Oblique-112"/>
     <use transform="translate(82.958984 0.78125)" xlink:href="#DejaVuSans-61"/>
     <use transform="translate(186.230469 0.78125)" xlink:href="#DejaVuSans-48"/>
     <use transform="translate(249.853516 0.78125)" xlink:href="#DejaVuSans-46"/>
     <use transform="translate(281.640625 0.78125)" xlink:href="#DejaVuSans-49"/>
     <use transform="translate(345.263672 0.78125)" xlink:href="#DejaVuSans-55"/>
     <use transform="translate(408.886719 0.78125)" xlink:href="#DejaVuSans-57"/>
    </g>
   </g>
   <g id="text_14">
    <!-- $p&lt;10^{-4}$ -->
    <g transform="translate(266.04 287.454628)scale(0.1 -0.1)">
     <defs>
      <path d="M 73.1875 49.21875 
L 22.796875 31.296875 
L 73.1875 13.484375 
L 73.1875 4.59375 
L 10.59375 27.296875 
L 10.59375 35.40625 
L 73.1875 58.109375 
z
" id="DejaVuSans-60"/>
      <path d="M 10.59375 35.5 
L 73.1875 35.5 
L 73.1875 27.203125 
L 10.59375 27.203125 
z
" id="DejaVuSans-8722"/>
      <path d="M 37.796875 64.3125 
L 12.890625 25.390625 
L 37.796875 25.390625 
z
M 35.203125 72.90625 
L 47.609375 72.90625 
L 47.609375 25.390625 
L 58.015625 25.390625 
L 58.015625 17.1875 
L 47.609375 17.1875 
L 47.609375 0 
L 37.796875 0 
L 37.796875 17.1875 
L 4.890625 17.1875 
L 4.890625 26.703125 
z
" id="DejaVuSans-52"/>
     </defs>
     <use transform="translate(0 0.684375)" xlink:href="#DejaVuSans-Oblique-112"/>
     <use transform="translate(82.958984 0.684375)" xlink:href="#DejaVuSans-60"/>
     <use transform="translate(186.230469 0.684375)" xlink:href="#DejaVuSans-49"/>
     <use transform="translate(249.853516 0.684375)" xlink:href="#DejaVuSans-48"/>
     <use transform="translate(314.433594 38.965625)scale(0.7)" xlink:href="#DejaVuSans-8722"/>
     <use transform="translate(373.085938 38.965625)scale(0.7)" xlink:href="#DejaVuSans-52"/>
    </g>
   </g>
   <g id="text_15">
    <!-- $p&lt;10^{-4}$ -->
    <g transform="translate(176.76 304.409105)scale(0.1 -0.1)">
     <use transform="translate(0 0.684375)" xlink:href="#DejaVuSans-Oblique-112"/>
     <use transform="translate(82.958984 0.684375)" xlink:href="#DejaVuSans-60"/>
     <use transform="translate(186.230469 0.684375)" xlink:href="#DejaVuSans-49"/>
     <use transform="translate(249.853516 0.684375)" xlink:href="#DejaVuSans-48"/>
     <use transform="translate(314.433594 38.965625)scale(0.7)" xlink:href="#DejaVuSans-8722"/>
     <use transform="translate(373.085938 38.965625)scale(0.7)" xlink:href="#DejaVuSans-52"/>
    </g>
   </g>
  </g>
 </g>
 <defs>
  <clipPath id="pa134facee2">
   <rect height="277.2" width="334.8" x="54" y="43.2"/>
  </clipPath>
 </defs>
</svg>
