<?xml version="1.0" encoding="utf-8" standalone="no"?>
<!DOCTYPE svg PUBLIC "-//W3C//DTD SVG 1.1//EN"
  "http://www.w3.org/Graphics/SVG/1.1/DTD/svg11.dtd">
<!-- Created with matplotlib (https://matplotlib.org/) -->
<svg height="360pt" version="1.1" viewBox="0 0 432 360" width="432pt" xmlns="http://www.w3.org/2000/svg" xmlns:xlink="http://www.w3.org/1999/xlink">
 <metadata>
  <rdf:RDF xmlns:cc="http://creativecommons.org/ns#" xmlns:dc="http://purl.org/dc/elements/1.1/" xmlns:rdf="http://www.w3.org/1999/02/22-rdf-syntax-ns#">
   <cc:Work>
    <dc:type rdf:resource="http://purl.org/dc/dcmitype/StillImage"/>
    <dc:date>2021-07-12T00:28:14.780610</dc:date>
    <dc:format>image/svg+xml</dc:format>
    <dc:creator>
     <cc:Agent>
      <dc:title>Matplotlib v3.3.1, https://matplotlib.org/</dc:title>
     </cc:Agent>
    </dc:creator>
   </cc:Work>
  </rdf:RDF>
 </metadata>
 <defs>
  <style type="text/css">*{stroke-linecap:butt;stroke-linejoin:round;}</style>
 </defs>
 <g id="figure_1">
  <g id="patch_1">
   <path d="M 0 360 
L 432 360 
L 432 0 
L 0 0 
z
" style="fill:#ffffff;"/>
  </g>
  <g id="axes_1">
   <g id="patch_2">
    <path d="M 54 320.4 
L 388.8 320.4 
L 388.8 43.2 
L 54 43.2 
z
" style="fill:#ffffff;"/>
   </g>
   <g id="PolyCollection_1">
    <defs>
     <path d="M 110.971797 -52.2 
L 108.628203 -52.2 
L 108.371449 -53.740493 
L 108.061448 -55.280986 
L 107.688695 -56.821479 
L 107.243401 -58.361972 
L 106.716035 -59.902464 
L 106.097957 -61.442957 
L 105.382057 -62.98345 
L 104.563376 -64.523943 
L 103.639638 -66.064436 
L 102.611647 -67.604929 
L 101.483534 -69.145422 
L 100.262847 -70.685915 
L 98.960471 -72.226407 
L 97.590423 -73.7669 
L 96.169526 -75.307393 
L 94.716988 -76.847886 
L 93.253896 -78.388379 
L 91.802614 -79.928872 
L 90.386099 -81.469365 
L 89.027125 -83.009858 
L 87.74742 -84.55035 
L 86.566775 -86.090843 
L 85.502162 -87.631336 
L 84.566974 -89.171829 
L 83.770464 -90.712322 
L 83.117488 -92.252815 
L 82.608608 -93.793308 
L 82.240573 -95.333801 
L 82.007119 -96.874294 
L 81.9 -98.414786 
L 81.910086 -99.955279 
L 82.02837 -101.495772 
L 82.246734 -103.036265 
L 82.55836 -104.576758 
L 82.95775 -106.117251 
L 83.440378 -107.657744 
L 84.002065 -109.198237 
L 84.638218 -110.738729 
L 85.343081 -112.279222 
L 86.109136 -113.819715 
L 86.926783 -115.360208 
L 87.78434 -116.900701 
L 88.668382 -118.441194 
L 89.564367 -119.981687 
L 90.457461 -121.52218 
L 91.333439 -123.062672 
L 92.179544 -124.603165 
L 92.985191 -126.143658 
L 93.742435 -127.684151 
L 94.446175 -129.224644 
L 95.094097 -130.765137 
L 95.686411 -132.30563 
L 96.225451 -133.846123 
L 96.715219 -135.386616 
L 97.16093 -136.927108 
L 97.568598 -138.467601 
L 97.944662 -140.008094 
L 98.295641 -141.548587 
L 98.627809 -143.08908 
L 98.94686 -144.629573 
L 99.257587 -146.170066 
L 99.563614 -147.710559 
L 99.867216 -149.251051 
L 100.169286 -150.791544 
L 100.469488 -152.332037 
L 100.766569 -153.87253 
L 101.058817 -155.413023 
L 101.344584 -156.953516 
L 101.622771 -158.494009 
L 101.893213 -160.034502 
L 102.156875 -161.574994 
L 102.415847 -163.115487 
L 102.673132 -164.65598 
L 102.932268 -166.196473 
L 103.196866 -167.736966 
L 103.470105 -169.277459 
L 103.754286 -170.817952 
L 104.050464 -172.358445 
L 104.358222 -173.898938 
L 104.675585 -175.43943 
L 104.999093 -176.979923 
L 105.324018 -178.520416 
L 105.644726 -180.060909 
L 105.95514 -181.601402 
L 106.249288 -183.141895 
L 106.521885 -184.682388 
L 106.768882 -186.222881 
L 106.987919 -187.763373 
L 107.178619 -189.303866 
L 107.342672 -190.844359 
L 107.483668 -192.384852 
L 107.60671 -193.925345 
L 107.717827 -195.465838 
L 107.823281 -197.006331 
L 107.928852 -198.546824 
L 108.039211 -200.087316 
L 108.157461 -201.627809 
L 108.284899 -203.168302 
L 108.421029 -204.708795 
L 111.178971 -204.708795 
L 111.178971 -204.708795 
L 111.315101 -203.168302 
L 111.442539 -201.627809 
L 111.560789 -200.087316 
L 111.671148 -198.546824 
L 111.776719 -197.006331 
L 111.882173 -195.465838 
L 111.99329 -193.925345 
L 112.116332 -192.384852 
L 112.257328 -190.844359 
L 112.421381 -189.303866 
L 112.612081 -187.763373 
L 112.831118 -186.222881 
L 113.078115 -184.682388 
L 113.350712 -183.141895 
L 113.64486 -181.601402 
L 113.955274 -180.060909 
L 114.275982 -178.520416 
L 114.600907 -176.979923 
L 114.924415 -175.43943 
L 115.241778 -173.898938 
L 115.549536 -172.358445 
L 115.845714 -170.817952 
L 116.129895 -169.277459 
L 116.403134 -167.736966 
L 116.667732 -166.196473 
L 116.926868 -164.65598 
L 117.184153 -163.115487 
L 117.443125 -161.574994 
L 117.706787 -160.034502 
L 117.977229 -158.494009 
L 118.255416 -156.953516 
L 118.541183 -155.413023 
L 118.833431 -153.87253 
L 119.130512 -152.332037 
L 119.430714 -150.791544 
L 119.732784 -149.251051 
L 120.036386 -147.710559 
L 120.342413 -146.170066 
L 120.65314 -144.629573 
L 120.972191 -143.08908 
L 121.304359 -141.548587 
L 121.655338 -140.008094 
L 122.031402 -138.467601 
L 122.43907 -136.927108 
L 122.884781 -135.386616 
L 123.374549 -133.846123 
L 123.913589 -132.30563 
L 124.505903 -130.765137 
L 125.153825 -129.224644 
L 125.857565 -127.684151 
L 126.614809 -126.143658 
L 127.420456 -124.603165 
L 128.266561 -123.062672 
L 129.142539 -121.52218 
L 130.035633 -119.981687 
L 130.931618 -118.441194 
L 131.81566 -116.900701 
L 132.673217 -115.360208 
L 133.490864 -113.819715 
L 134.256919 -112.279222 
L 134.961782 -110.738729 
L 135.597935 -109.198237 
L 136.159622 -107.657744 
L 136.64225 -106.117251 
L 137.04164 -104.576758 
L 137.353266 -103.036265 
L 137.57163 -101.495772 
L 137.689914 -99.955279 
L 137.7 -98.414786 
L 137.592881 -96.874294 
L 137.359427 -95.333801 
L 136.991392 -93.793308 
L 136.482512 -92.252815 
L 135.829536 -90.712322 
L 135.033026 -89.171829 
L 134.097838 -87.631336 
L 133.033225 -86.090843 
L 131.85258 -84.55035 
L 130.572875 -83.009858 
L 129.213901 -81.469365 
L 127.797386 -79.928872 
L 126.346104 -78.388379 
L 124.883012 -76.847886 
L 123.430474 -75.307393 
L 122.009577 -73.7669 
L 120.639529 -72.226407 
L 119.337153 -70.685915 
L 118.116466 -69.145422 
L 116.988353 -67.604929 
L 115.960362 -66.064436 
L 115.036624 -64.523943 
L 114.217943 -62.98345 
L 113.502043 -61.442957 
L 112.883965 -59.902464 
L 112.356599 -58.361972 
L 111.911305 -56.821479 
L 111.538552 -55.280986 
L 111.228551 -53.740493 
L 110.971797 -52.2 
z
" id="m80b8cc282e" style="stroke:#ffc0cb;stroke-opacity:0.3;"/>
    </defs>
    <g clip-path="url(#pf68733821c)">
     <use style="fill:#ff0000;fill-opacity:0.3;stroke:#ffc0cb;stroke-opacity:0.3;" x="0" xlink:href="#m80b8cc282e" y="360"/>
    </g>
   </g>
   <g id="PolyCollection_2">
    <defs>
     <path d="M 225.287082 -60.629431 
L 217.512918 -60.629431 
L 216.911774 -62.258601 
L 216.267153 -63.887771 
L 215.581967 -65.516942 
L 214.859263 -67.146112 
L 214.102065 -68.775282 
L 213.313274 -70.404453 
L 212.495619 -72.033623 
L 211.651669 -73.662793 
L 210.783868 -75.291963 
L 209.894604 -76.921134 
L 208.986275 -78.550304 
L 208.061347 -80.179474 
L 207.122408 -81.808645 
L 206.172212 -83.437815 
L 205.213735 -85.066985 
L 204.25025 -86.696156 
L 203.285428 -88.325326 
L 202.323471 -89.954496 
L 201.369278 -91.583667 
L 200.428598 -93.212837 
L 199.508171 -94.842007 
L 198.615822 -96.471178 
L 197.760466 -98.100348 
L 196.952039 -99.729518 
L 196.201327 -101.358688 
L 195.51971 -102.987859 
L 194.918835 -104.617029 
L 194.41023 -106.246199 
L 194.00488 -107.87537 
L 193.712756 -109.50454 
L 193.542322 -111.13371 
L 193.5 -112.762881 
L 193.589626 -114.392051 
L 193.811903 -116.021221 
L 194.163908 -117.650392 
L 194.638722 -119.279562 
L 195.225242 -120.908732 
L 195.908271 -122.537903 
L 196.668932 -124.167073 
L 197.485432 -125.796243 
L 198.334161 -127.425413 
L 199.191058 -129.054584 
L 200.033121 -130.683754 
L 200.83992 -132.312924 
L 201.594963 -133.942095 
L 202.28676 -135.571265 
L 202.909463 -137.200435 
L 203.463033 -138.829606 
L 203.952894 -140.458776 
L 204.389129 -142.087946 
L 204.785311 -143.717117 
L 205.157077 -145.346287 
L 205.520598 -146.975457 
L 205.891095 -148.604627 
L 206.281524 -150.233798 
L 206.70154 -151.862968 
L 207.156824 -153.492138 
L 207.648783 -155.121309 
L 208.17464 -156.750479 
L 208.72786 -158.379649 
L 209.298852 -160.00882 
L 209.875849 -161.63799 
L 210.4459 -163.26716 
L 210.995852 -164.896331 
L 211.513281 -166.525501 
L 211.987288 -168.154671 
L 212.409135 -169.783842 
L 212.772694 -171.413012 
L 213.074717 -173.042182 
L 213.314913 -174.671352 
L 213.495861 -176.300523 
L 213.622771 -177.929693 
L 213.703108 -179.558863 
L 213.746103 -181.188034 
L 213.762176 -182.817204 
L 213.762307 -184.446374 
L 213.757392 -186.075545 
L 213.757634 -187.704715 
L 213.772018 -189.333885 
L 213.807908 -190.963056 
L 213.870812 -192.592226 
L 213.96432 -194.221396 
L 214.090213 -195.850566 
L 214.248709 -197.479737 
L 214.43881 -199.108907 
L 214.658679 -200.738077 
L 214.905998 -202.367248 
L 215.178246 -203.996418 
L 215.472881 -205.625588 
L 215.787393 -207.254759 
L 216.119264 -208.883929 
L 216.465847 -210.513099 
L 216.824223 -212.14227 
L 217.191064 -213.77144 
L 217.562566 -215.40061 
L 217.934453 -217.029781 
L 218.302079 -218.658951 
L 218.660612 -220.288121 
L 219.005274 -221.917291 
L 223.794726 -221.917291 
L 223.794726 -221.917291 
L 224.139388 -220.288121 
L 224.497921 -218.658951 
L 224.865547 -217.029781 
L 225.237434 -215.40061 
L 225.608936 -213.77144 
L 225.975777 -212.14227 
L 226.334153 -210.513099 
L 226.680736 -208.883929 
L 227.012607 -207.254759 
L 227.327119 -205.625588 
L 227.621754 -203.996418 
L 227.894002 -202.367248 
L 228.141321 -200.738077 
L 228.36119 -199.108907 
L 228.551291 -197.479737 
L 228.709787 -195.850566 
L 228.83568 -194.221396 
L 228.929188 -192.592226 
L 228.992092 -190.963056 
L 229.027982 -189.333885 
L 229.042366 -187.704715 
L 229.042608 -186.075545 
L 229.037693 -184.446374 
L 229.037824 -182.817204 
L 229.053897 -181.188034 
L 229.096892 -179.558863 
L 229.177229 -177.929693 
L 229.304139 -176.300523 
L 229.485087 -174.671352 
L 229.725283 -173.042182 
L 230.027306 -171.413012 
L 230.390865 -169.783842 
L 230.812712 -168.154671 
L 231.286719 -166.525501 
L 231.804148 -164.896331 
L 232.3541 -163.26716 
L 232.924151 -161.63799 
L 233.501148 -160.00882 
L 234.07214 -158.379649 
L 234.62536 -156.750479 
L 235.151217 -155.121309 
L 235.643176 -153.492138 
L 236.09846 -151.862968 
L 236.518476 -150.233798 
L 236.908905 -148.604627 
L 237.279402 -146.975457 
L 237.642923 -145.346287 
L 238.014689 -143.717117 
L 238.410871 -142.087946 
L 238.847106 -140.458776 
L 239.336967 -138.829606 
L 239.890537 -137.200435 
L 240.51324 -135.571265 
L 241.205037 -133.942095 
L 241.96008 -132.312924 
L 242.766879 -130.683754 
L 243.608942 -129.054584 
L 244.465839 -127.425413 
L 245.314568 -125.796243 
L 246.131068 -124.167073 
L 246.891729 -122.537903 
L 247.574758 -120.908732 
L 248.161278 -119.279562 
L 248.636092 -117.650392 
L 248.988097 -116.021221 
L 249.210374 -114.392051 
L 249.3 -112.762881 
L 249.257678 -111.13371 
L 249.087244 -109.50454 
L 248.79512 -107.87537 
L 248.38977 -106.246199 
L 247.881165 -104.617029 
L 247.28029 -102.987859 
L 246.598673 -101.358688 
L 245.847961 -99.729518 
L 245.039534 -98.100348 
L 244.184178 -96.471178 
L 243.291829 -94.842007 
L 242.371402 -93.212837 
L 241.430722 -91.583667 
L 240.476529 -89.954496 
L 239.514572 -88.325326 
L 238.54975 -86.696156 
L 237.586265 -85.066985 
L 236.627788 -83.437815 
L 235.677592 -81.808645 
L 234.738653 -80.179474 
L 233.813725 -78.550304 
L 232.905396 -76.921134 
L 232.016132 -75.291963 
L 231.148331 -73.662793 
L 230.304381 -72.033623 
L 229.486726 -70.404453 
L 228.697935 -68.775282 
L 227.940737 -67.146112 
L 227.218033 -65.516942 
L 226.532847 -63.887771 
L 225.888226 -62.258601 
L 225.287082 -60.629431 
z
" id="m25068fc459" style="stroke:#add8e6;stroke-opacity:0.3;"/>
    </defs>
    <g clip-path="url(#pf68733821c)">
     <use style="fill:#0000ff;fill-opacity:0.3;stroke:#add8e6;stroke-opacity:0.3;" x="0" xlink:href="#m25068fc459" y="360"/>
    </g>
   </g>
   <g id="PolyCollection_3">
    <defs>
     <path d="M 336.576797 -52.593286 
L 329.423203 -52.593286 
L 328.756918 -55.134768 
L 328.004758 -57.67625 
L 327.162392 -60.217732 
L 326.226708 -62.759213 
L 325.196311 -65.300695 
L 324.072096 -67.842177 
L 322.85784 -70.383659 
L 321.560757 -72.925141 
L 320.191919 -75.466623 
L 318.766469 -78.008105 
L 317.303537 -80.549587 
L 315.825797 -83.091069 
L 314.358672 -85.632551 
L 312.929194 -88.174033 
L 311.564612 -90.715515 
L 310.290866 -93.256997 
L 309.131088 -95.798479 
L 308.104268 -98.339961 
L 307.224247 -100.881443 
L 306.499124 -103.422925 
L 305.931141 -105.964407 
L 305.517023 -108.505889 
L 305.248726 -111.047371 
L 305.114481 -113.588853 
L 305.1 -116.130335 
L 305.189712 -118.671817 
L 305.367906 -121.213299 
L 305.619687 -123.754781 
L 305.931681 -126.296263 
L 306.292476 -128.837745 
L 306.69279 -131.379226 
L 307.125418 -133.920708 
L 307.585003 -136.46219 
L 308.067677 -139.003672 
L 308.570643 -141.545154 
L 309.091745 -144.086636 
L 309.629064 -146.628118 
L 310.180587 -149.1696 
L 310.74397 -151.711082 
L 311.316398 -154.252564 
L 311.894571 -156.794046 
L 312.474778 -159.335528 
L 313.053067 -161.87701 
L 313.62547 -164.418492 
L 314.188247 -166.959974 
L 314.738133 -169.501456 
L 315.272522 -172.042938 
L 315.789593 -174.58442 
L 316.28834 -177.125902 
L 316.768521 -179.667384 
L 317.230516 -182.208866 
L 317.675149 -184.750348 
L 318.103479 -187.29183 
L 318.516611 -189.833312 
L 318.915558 -192.374794 
L 319.301163 -194.916276 
L 319.674096 -197.457758 
L 320.034915 -199.99924 
L 320.384155 -202.540721 
L 320.72243 -205.082203 
L 321.050496 -207.623685 
L 321.369253 -210.165167 
L 321.679681 -212.706649 
L 321.982695 -215.248131 
L 322.278955 -217.789613 
L 322.568674 -220.331095 
L 322.851452 -222.872577 
L 323.126204 -225.414059 
L 323.391211 -227.955541 
L 323.644307 -230.497023 
L 323.883206 -233.038505 
L 324.105938 -235.579987 
L 324.311323 -238.121469 
L 324.499432 -240.662951 
L 324.671946 -243.204433 
L 324.832351 -245.745915 
L 324.985919 -248.287397 
L 325.139447 -250.828879 
L 325.300784 -253.370361 
L 325.478169 -255.911843 
L 325.67947 -258.453325 
L 325.911404 -260.994807 
L 326.178838 -263.536289 
L 326.484248 -266.077771 
L 326.827413 -268.619253 
L 327.20537 -271.160734 
L 327.612634 -273.702216 
L 328.041652 -276.243698 
L 328.48344 -278.78518 
L 328.928313 -281.326662 
L 329.366638 -283.868144 
L 329.789526 -286.409626 
L 330.189393 -288.951108 
L 330.560352 -291.49259 
L 330.898416 -294.034072 
L 331.2015 -296.575554 
L 331.469276 -299.117036 
L 331.702889 -301.658518 
L 331.904603 -304.2 
L 334.095397 -304.2 
L 334.095397 -304.2 
L 334.297111 -301.658518 
L 334.530724 -299.117036 
L 334.7985 -296.575554 
L 335.101584 -294.034072 
L 335.439648 -291.49259 
L 335.810607 -288.951108 
L 336.210474 -286.409626 
L 336.633362 -283.868144 
L 337.071687 -281.326662 
L 337.51656 -278.78518 
L 337.958348 -276.243698 
L 338.387366 -273.702216 
L 338.79463 -271.160734 
L 339.172587 -268.619253 
L 339.515752 -266.077771 
L 339.821162 -263.536289 
L 340.088596 -260.994807 
L 340.32053 -258.453325 
L 340.521831 -255.911843 
L 340.699216 -253.370361 
L 340.860553 -250.828879 
L 341.014081 -248.287397 
L 341.167649 -245.745915 
L 341.328054 -243.204433 
L 341.500568 -240.662951 
L 341.688677 -238.121469 
L 341.894062 -235.579987 
L 342.116794 -233.038505 
L 342.355693 -230.497023 
L 342.608789 -227.955541 
L 342.873796 -225.414059 
L 343.148548 -222.872577 
L 343.431326 -220.331095 
L 343.721045 -217.789613 
L 344.017305 -215.248131 
L 344.320319 -212.706649 
L 344.630747 -210.165167 
L 344.949504 -207.623685 
L 345.27757 -205.082203 
L 345.615845 -202.540721 
L 345.965085 -199.99924 
L 346.325904 -197.457758 
L 346.698837 -194.916276 
L 347.084442 -192.374794 
L 347.483389 -189.833312 
L 347.896521 -187.29183 
L 348.324851 -184.750348 
L 348.769484 -182.208866 
L 349.231479 -179.667384 
L 349.71166 -177.125902 
L 350.210407 -174.58442 
L 350.727478 -172.042938 
L 351.261867 -169.501456 
L 351.811753 -166.959974 
L 352.37453 -164.418492 
L 352.946933 -161.87701 
L 353.525222 -159.335528 
L 354.105429 -156.794046 
L 354.683602 -154.252564 
L 355.25603 -151.711082 
L 355.819413 -149.1696 
L 356.370936 -146.628118 
L 356.908255 -144.086636 
L 357.429357 -141.545154 
L 357.932323 -139.003672 
L 358.414997 -136.46219 
L 358.874582 -133.920708 
L 359.30721 -131.379226 
L 359.707524 -128.837745 
L 360.068319 -126.296263 
L 360.380313 -123.754781 
L 360.632094 -121.213299 
L 360.810288 -118.671817 
L 360.9 -116.130335 
L 360.885519 -113.588853 
L 360.751274 -111.047371 
L 360.482977 -108.505889 
L 360.068859 -105.964407 
L 359.500876 -103.422925 
L 358.775753 -100.881443 
L 357.895732 -98.339961 
L 356.868912 -95.798479 
L 355.709134 -93.256997 
L 354.435388 -90.715515 
L 353.070806 -88.174033 
L 351.641328 -85.632551 
L 350.174203 -83.091069 
L 348.696463 -80.549587 
L 347.233531 -78.008105 
L 345.808081 -75.466623 
L 344.439243 -72.925141 
L 343.14216 -70.383659 
L 341.927904 -67.842177 
L 340.803689 -65.300695 
L 339.773292 -62.759213 
L 338.837608 -60.217732 
L 337.995242 -57.67625 
L 337.243082 -55.134768 
L 336.576797 -52.593286 
z
" id="m804b5bda5e" style="stroke:#90ee90;stroke-opacity:0.3;"/>
    </defs>
    <g clip-path="url(#pf68733821c)">
     <use style="fill:#008000;fill-opacity:0.3;stroke:#90ee90;stroke-opacity:0.3;" x="0" xlink:href="#m804b5bda5e" y="360"/>
    </g>
   </g>
   <g id="Quiver_1">
    <path clip-path="url(#pf68733821c)" d="M 109.8 287.256993 
L 216.8802 287.256993 
L 216.378 286.252593 
L 221.4 287.759193 
L 216.378 289.265793 
L 216.8802 288.261393 
L 109.8 288.261393 
L 109.8 287.256993 
" style="fill:#ff0000;"/>
   </g>
   <g id="Quiver_2">
    <path clip-path="url(#pf68733821c)" d="M 221.4 287.256993 
L 328.4802 287.256993 
L 327.978 286.252593 
L 333 287.759193 
L 327.978 289.265793 
L 328.4802 288.261393 
L 221.4 288.261393 
L 221.4 287.256993 
" style="fill:#ff0000;"/>
   </g>
   <g id="Quiver_3">
    <path clip-path="url(#pf68733821c)" d="M 109.8 303.965283 
L 328.4802 303.965283 
L 327.978 302.960883 
L 333 304.467483 
L 327.978 305.974083 
L 328.4802 304.969683 
L 109.8 304.969683 
L 109.8 303.965283 
" style="fill:#ff0000;"/>
   </g>
   <g id="Quiver_4">
    <path clip-path="url(#pf68733821c)" d="M 221.4 288.261393 
L 114.3198 288.261393 
L 114.822 289.265793 
L 109.8 287.759193 
L 114.822 286.252593 
L 114.3198 287.256993 
L 221.4 287.256993 
L 221.4 288.261393 
" style="fill:#ff0000;"/>
   </g>
   <g id="Quiver_5">
    <path clip-path="url(#pf68733821c)" d="M 333 288.261393 
L 225.9198 288.261393 
L 226.422 289.265793 
L 221.4 287.759193 
L 226.422 286.252593 
L 225.9198 287.256993 
L 333 287.256993 
L 333 288.261393 
" style="fill:#ff0000;"/>
   </g>
   <g id="Quiver_6">
    <path clip-path="url(#pf68733821c)" d="M 333 304.969683 
L 114.3198 304.969683 
L 114.822 305.974083 
L 109.8 304.467483 
L 114.822 302.960883 
L 114.3198 303.965283 
L 333 303.965283 
L 333 304.969683 
" style="fill:#ff0000;"/>
   </g>
   <g id="matplotlib.axis_1">
    <g id="xtick_1">
     <g id="line2d_1">
      <defs>
       <path d="M 0 0 
L 0 3.5 
" id="m4fa32a1f29" style="stroke:#000000;stroke-width:0.8;"/>
      </defs>
      <g>
       <use style="stroke:#000000;stroke-width:0.8;" x="109.8" xlink:href="#m4fa32a1f29" y="320.4"/>
      </g>
     </g>
     <g id="text_1">
      <!-- CN -->
      <g transform="translate(102.567969 334.998438)scale(0.1 -0.1)">
       <defs>
        <path d="M 64.40625 67.28125 
L 64.40625 56.890625 
Q 59.421875 61.53125 53.78125 63.8125 
Q 48.140625 66.109375 41.796875 66.109375 
Q 29.296875 66.109375 22.65625 58.46875 
Q 16.015625 50.828125 16.015625 36.375 
Q 16.015625 21.96875 22.65625 14.328125 
Q 29.296875 6.6875 41.796875 6.6875 
Q 48.140625 6.6875 53.78125 8.984375 
Q 59.421875 11.28125 64.40625 15.921875 
L 64.40625 5.609375 
Q 59.234375 2.09375 53.4375 0.328125 
Q 47.65625 -1.421875 41.21875 -1.421875 
Q 24.65625 -1.421875 15.125 8.703125 
Q 5.609375 18.84375 5.609375 36.375 
Q 5.609375 53.953125 15.125 64.078125 
Q 24.65625 74.21875 41.21875 74.21875 
Q 47.75 74.21875 53.53125 72.484375 
Q 59.328125 70.75 64.40625 67.28125 
z
" id="DejaVuSans-67"/>
        <path d="M 9.8125 72.90625 
L 23.09375 72.90625 
L 55.421875 11.921875 
L 55.421875 72.90625 
L 64.984375 72.90625 
L 64.984375 0 
L 51.703125 0 
L 19.390625 60.984375 
L 19.390625 0 
L 9.8125 0 
z
" id="DejaVuSans-78"/>
       </defs>
       <use xlink:href="#DejaVuSans-67"/>
       <use x="69.824219" xlink:href="#DejaVuSans-78"/>
      </g>
     </g>
    </g>
    <g id="xtick_2">
     <g id="line2d_2">
      <g>
       <use style="stroke:#000000;stroke-width:0.8;" x="221.4" xlink:href="#m4fa32a1f29" y="320.4"/>
      </g>
     </g>
     <g id="text_2">
      <!-- EMCI -->
      <g transform="translate(208.960156 334.998438)scale(0.1 -0.1)">
       <defs>
        <path d="M 9.8125 72.90625 
L 55.90625 72.90625 
L 55.90625 64.59375 
L 19.671875 64.59375 
L 19.671875 43.015625 
L 54.390625 43.015625 
L 54.390625 34.71875 
L 19.671875 34.71875 
L 19.671875 8.296875 
L 56.78125 8.296875 
L 56.78125 0 
L 9.8125 0 
z
" id="DejaVuSans-69"/>
        <path d="M 9.8125 72.90625 
L 24.515625 72.90625 
L 43.109375 23.296875 
L 61.8125 72.90625 
L 76.515625 72.90625 
L 76.515625 0 
L 66.890625 0 
L 66.890625 64.015625 
L 48.09375 14.015625 
L 38.1875 14.015625 
L 19.390625 64.015625 
L 19.390625 0 
L 9.8125 0 
z
" id="DejaVuSans-77"/>
        <path d="M 9.8125 72.90625 
L 19.671875 72.90625 
L 19.671875 0 
L 9.8125 0 
z
" id="DejaVuSans-73"/>
       </defs>
       <use xlink:href="#DejaVuSans-69"/>
       <use x="63.183594" xlink:href="#DejaVuSans-77"/>
       <use x="149.462891" xlink:href="#DejaVuSans-67"/>
       <use x="219.287109" xlink:href="#DejaVuSans-73"/>
      </g>
     </g>
    </g>
    <g id="xtick_3">
     <g id="line2d_3">
      <g>
       <use style="stroke:#000000;stroke-width:0.8;" x="333" xlink:href="#m4fa32a1f29" y="320.4"/>
      </g>
     </g>
     <g id="text_3">
      <!-- LMCI -->
      <g transform="translate(320.933594 334.998438)scale(0.1 -0.1)">
       <defs>
        <path d="M 9.8125 72.90625 
L 19.671875 72.90625 
L 19.671875 8.296875 
L 55.171875 8.296875 
L 55.171875 0 
L 9.8125 0 
z
" id="DejaVuSans-76"/>
       </defs>
       <use xlink:href="#DejaVuSans-76"/>
       <use x="55.712891" xlink:href="#DejaVuSans-77"/>
       <use x="141.992188" xlink:href="#DejaVuSans-67"/>
       <use x="211.816406" xlink:href="#DejaVuSans-73"/>
      </g>
     </g>
    </g>
    <g id="text_4">
     <!-- Three separate samples -->
     <g transform="translate(161.04375 348.676562)scale(0.1 -0.1)">
      <defs>
       <path d="M -0.296875 72.90625 
L 61.375 72.90625 
L 61.375 64.59375 
L 35.5 64.59375 
L 35.5 0 
L 25.59375 0 
L 25.59375 64.59375 
L -0.296875 64.59375 
z
" id="DejaVuSans-84"/>
       <path d="M 54.890625 33.015625 
L 54.890625 0 
L 45.90625 0 
L 45.90625 32.71875 
Q 45.90625 40.484375 42.875 44.328125 
Q 39.84375 48.1875 33.796875 48.1875 
Q 26.515625 48.1875 22.3125 43.546875 
Q 18.109375 38.921875 18.109375 30.90625 
L 18.109375 0 
L 9.078125 0 
L 9.078125 75.984375 
L 18.109375 75.984375 
L 18.109375 46.1875 
Q 21.34375 51.125 25.703125 53.5625 
Q 30.078125 56 35.796875 56 
Q 45.21875 56 50.046875 50.171875 
Q 54.890625 44.34375 54.890625 33.015625 
z
" id="DejaVuSans-104"/>
       <path d="M 41.109375 46.296875 
Q 39.59375 47.171875 37.8125 47.578125 
Q 36.03125 48 33.890625 48 
Q 26.265625 48 22.1875 43.046875 
Q 18.109375 38.09375 18.109375 28.8125 
L 18.109375 0 
L 9.078125 0 
L 9.078125 54.6875 
L 18.109375 54.6875 
L 18.109375 46.1875 
Q 20.953125 51.171875 25.484375 53.578125 
Q 30.03125 56 36.53125 56 
Q 37.453125 56 38.578125 55.875 
Q 39.703125 55.765625 41.0625 55.515625 
z
" id="DejaVuSans-114"/>
       <path d="M 56.203125 29.59375 
L 56.203125 25.203125 
L 14.890625 25.203125 
Q 15.484375 15.921875 20.484375 11.0625 
Q 25.484375 6.203125 34.421875 6.203125 
Q 39.59375 6.203125 44.453125 7.46875 
Q 49.3125 8.734375 54.109375 11.28125 
L 54.109375 2.78125 
Q 49.265625 0.734375 44.1875 -0.34375 
Q 39.109375 -1.421875 33.890625 -1.421875 
Q 20.796875 -1.421875 13.15625 6.1875 
Q 5.515625 13.8125 5.515625 26.8125 
Q 5.515625 40.234375 12.765625 48.109375 
Q 20.015625 56 32.328125 56 
Q 43.359375 56 49.78125 48.890625 
Q 56.203125 41.796875 56.203125 29.59375 
z
M 47.21875 32.234375 
Q 47.125 39.59375 43.09375 43.984375 
Q 39.0625 48.390625 32.421875 48.390625 
Q 24.90625 48.390625 20.390625 44.140625 
Q 15.875 39.890625 15.1875 32.171875 
z
" id="DejaVuSans-101"/>
       <path id="DejaVuSans-32"/>
       <path d="M 44.28125 53.078125 
L 44.28125 44.578125 
Q 40.484375 46.53125 36.375 47.5 
Q 32.28125 48.484375 27.875 48.484375 
Q 21.1875 48.484375 17.84375 46.4375 
Q 14.5 44.390625 14.5 40.28125 
Q 14.5 37.15625 16.890625 35.375 
Q 19.28125 33.59375 26.515625 31.984375 
L 29.59375 31.296875 
Q 39.15625 29.25 43.1875 25.515625 
Q 47.21875 21.78125 47.21875 15.09375 
Q 47.21875 7.46875 41.1875 3.015625 
Q 35.15625 -1.421875 24.609375 -1.421875 
Q 20.21875 -1.421875 15.453125 -0.5625 
Q 10.6875 0.296875 5.421875 2 
L 5.421875 11.28125 
Q 10.40625 8.6875 15.234375 7.390625 
Q 20.0625 6.109375 24.8125 6.109375 
Q 31.15625 6.109375 34.5625 8.28125 
Q 37.984375 10.453125 37.984375 14.40625 
Q 37.984375 18.0625 35.515625 20.015625 
Q 33.0625 21.96875 24.703125 23.78125 
L 21.578125 24.515625 
Q 13.234375 26.265625 9.515625 29.90625 
Q 5.8125 33.546875 5.8125 39.890625 
Q 5.8125 47.609375 11.28125 51.796875 
Q 16.75 56 26.8125 56 
Q 31.78125 56 36.171875 55.265625 
Q 40.578125 54.546875 44.28125 53.078125 
z
" id="DejaVuSans-115"/>
       <path d="M 18.109375 8.203125 
L 18.109375 -20.796875 
L 9.078125 -20.796875 
L 9.078125 54.6875 
L 18.109375 54.6875 
L 18.109375 46.390625 
Q 20.953125 51.265625 25.265625 53.625 
Q 29.59375 56 35.59375 56 
Q 45.5625 56 51.78125 48.09375 
Q 58.015625 40.1875 58.015625 27.296875 
Q 58.015625 14.40625 51.78125 6.484375 
Q 45.5625 -1.421875 35.59375 -1.421875 
Q 29.59375 -1.421875 25.265625 0.953125 
Q 20.953125 3.328125 18.109375 8.203125 
z
M 48.6875 27.296875 
Q 48.6875 37.203125 44.609375 42.84375 
Q 40.53125 48.484375 33.40625 48.484375 
Q 26.265625 48.484375 22.1875 42.84375 
Q 18.109375 37.203125 18.109375 27.296875 
Q 18.109375 17.390625 22.1875 11.75 
Q 26.265625 6.109375 33.40625 6.109375 
Q 40.53125 6.109375 44.609375 11.75 
Q 48.6875 17.390625 48.6875 27.296875 
z
" id="DejaVuSans-112"/>
       <path d="M 34.28125 27.484375 
Q 23.390625 27.484375 19.1875 25 
Q 14.984375 22.515625 14.984375 16.5 
Q 14.984375 11.71875 18.140625 8.90625 
Q 21.296875 6.109375 26.703125 6.109375 
Q 34.1875 6.109375 38.703125 11.40625 
Q 43.21875 16.703125 43.21875 25.484375 
L 43.21875 27.484375 
z
M 52.203125 31.203125 
L 52.203125 0 
L 43.21875 0 
L 43.21875 8.296875 
Q 40.140625 3.328125 35.546875 0.953125 
Q 30.953125 -1.421875 24.3125 -1.421875 
Q 15.921875 -1.421875 10.953125 3.296875 
Q 6 8.015625 6 15.921875 
Q 6 25.140625 12.171875 29.828125 
Q 18.359375 34.515625 30.609375 34.515625 
L 43.21875 34.515625 
L 43.21875 35.40625 
Q 43.21875 41.609375 39.140625 45 
Q 35.0625 48.390625 27.6875 48.390625 
Q 23 48.390625 18.546875 47.265625 
Q 14.109375 46.140625 10.015625 43.890625 
L 10.015625 52.203125 
Q 14.9375 54.109375 19.578125 55.046875 
Q 24.21875 56 28.609375 56 
Q 40.484375 56 46.34375 49.84375 
Q 52.203125 43.703125 52.203125 31.203125 
z
" id="DejaVuSans-97"/>
       <path d="M 18.3125 70.21875 
L 18.3125 54.6875 
L 36.8125 54.6875 
L 36.8125 47.703125 
L 18.3125 47.703125 
L 18.3125 18.015625 
Q 18.3125 11.328125 20.140625 9.421875 
Q 21.96875 7.515625 27.59375 7.515625 
L 36.8125 7.515625 
L 36.8125 0 
L 27.59375 0 
Q 17.1875 0 13.234375 3.875 
Q 9.28125 7.765625 9.28125 18.015625 
L 9.28125 47.703125 
L 2.6875 47.703125 
L 2.6875 54.6875 
L 9.28125 54.6875 
L 9.28125 70.21875 
z
" id="DejaVuSans-116"/>
       <path d="M 52 44.1875 
Q 55.375 50.25 60.0625 53.125 
Q 64.75 56 71.09375 56 
Q 79.640625 56 84.28125 50.015625 
Q 88.921875 44.046875 88.921875 33.015625 
L 88.921875 0 
L 79.890625 0 
L 79.890625 32.71875 
Q 79.890625 40.578125 77.09375 44.375 
Q 74.3125 48.1875 68.609375 48.1875 
Q 61.625 48.1875 57.5625 43.546875 
Q 53.515625 38.921875 53.515625 30.90625 
L 53.515625 0 
L 44.484375 0 
L 44.484375 32.71875 
Q 44.484375 40.625 41.703125 44.40625 
Q 38.921875 48.1875 33.109375 48.1875 
Q 26.21875 48.1875 22.15625 43.53125 
Q 18.109375 38.875 18.109375 30.90625 
L 18.109375 0 
L 9.078125 0 
L 9.078125 54.6875 
L 18.109375 54.6875 
L 18.109375 46.1875 
Q 21.1875 51.21875 25.484375 53.609375 
Q 29.78125 56 35.6875 56 
Q 41.65625 56 45.828125 52.96875 
Q 50 49.953125 52 44.1875 
z
" id="DejaVuSans-109"/>
       <path d="M 9.421875 75.984375 
L 18.40625 75.984375 
L 18.40625 0 
L 9.421875 0 
z
" id="DejaVuSans-108"/>
      </defs>
      <use xlink:href="#DejaVuSans-84"/>
      <use x="61.083984" xlink:href="#DejaVuSans-104"/>
      <use x="124.462891" xlink:href="#DejaVuSans-114"/>
      <use x="163.326172" xlink:href="#DejaVuSans-101"/>
      <use x="224.849609" xlink:href="#DejaVuSans-101"/>
      <use x="286.373047" xlink:href="#DejaVuSans-32"/>
      <use x="318.160156" xlink:href="#DejaVuSans-115"/>
      <use x="370.259766" xlink:href="#DejaVuSans-101"/>
      <use x="431.783203" xlink:href="#DejaVuSans-112"/>
      <use x="495.259766" xlink:href="#DejaVuSans-97"/>
      <use x="556.539062" xlink:href="#DejaVuSans-114"/>
      <use x="597.652344" xlink:href="#DejaVuSans-97"/>
      <use x="658.931641" xlink:href="#DejaVuSans-116"/>
      <use x="698.140625" xlink:href="#DejaVuSans-101"/>
      <use x="759.664062" xlink:href="#DejaVuSans-32"/>
      <use x="791.451172" xlink:href="#DejaVuSans-115"/>
      <use x="843.550781" xlink:href="#DejaVuSans-97"/>
      <use x="904.830078" xlink:href="#DejaVuSans-109"/>
      <use x="1002.242188" xlink:href="#DejaVuSans-112"/>
      <use x="1065.71875" xlink:href="#DejaVuSans-108"/>
      <use x="1093.501953" xlink:href="#DejaVuSans-101"/>
      <use x="1155.025391" xlink:href="#DejaVuSans-115"/>
     </g>
    </g>
   </g>
   <g id="matplotlib.axis_2">
    <g id="ytick_1">
     <g id="line2d_4">
      <path clip-path="url(#pf68733821c)" d="M 54 311.42927 
L 388.8 311.42927 
" style="fill:none;stroke:#000000;stroke-linecap:square;stroke-opacity:0;stroke-width:0.8;"/>
     </g>
     <g id="line2d_5">
      <defs>
       <path d="M 0 0 
L -3.5 0 
" id="m301fcb1385" style="stroke:#000000;stroke-width:0.8;"/>
      </defs>
      <g>
       <use style="stroke:#000000;stroke-width:0.8;" x="54" xlink:href="#m301fcb1385" y="311.42927"/>
      </g>
     </g>
     <g id="text_5">
      <!-- 2.5 -->
      <g transform="translate(31.096875 315.228489)scale(0.1 -0.1)">
       <defs>
        <path d="M 19.1875 8.296875 
L 53.609375 8.296875 
L 53.609375 0 
L 7.328125 0 
L 7.328125 8.296875 
Q 12.9375 14.109375 22.625 23.890625 
Q 32.328125 33.6875 34.8125 36.53125 
Q 39.546875 41.84375 41.421875 45.53125 
Q 43.3125 49.21875 43.3125 52.78125 
Q 43.3125 58.59375 39.234375 62.25 
Q 35.15625 65.921875 28.609375 65.921875 
Q 23.96875 65.921875 18.8125 64.3125 
Q 13.671875 62.703125 7.8125 59.421875 
L 7.8125 69.390625 
Q 13.765625 71.78125 18.9375 73 
Q 24.125 74.21875 28.421875 74.21875 
Q 39.75 74.21875 46.484375 68.546875 
Q 53.21875 62.890625 53.21875 53.421875 
Q 53.21875 48.921875 51.53125 44.890625 
Q 49.859375 40.875 45.40625 35.40625 
Q 44.1875 33.984375 37.640625 27.21875 
Q 31.109375 20.453125 19.1875 8.296875 
z
" id="DejaVuSans-50"/>
        <path d="M 10.6875 12.40625 
L 21 12.40625 
L 21 0 
L 10.6875 0 
z
" id="DejaVuSans-46"/>
        <path d="M 10.796875 72.90625 
L 49.515625 72.90625 
L 49.515625 64.59375 
L 19.828125 64.59375 
L 19.828125 46.734375 
Q 21.96875 47.46875 24.109375 47.828125 
Q 26.265625 48.1875 28.421875 48.1875 
Q 40.625 48.1875 47.75 41.5 
Q 54.890625 34.8125 54.890625 23.390625 
Q 54.890625 11.625 47.5625 5.09375 
Q 40.234375 -1.421875 26.90625 -1.421875 
Q 22.3125 -1.421875 17.546875 -0.640625 
Q 12.796875 0.140625 7.71875 1.703125 
L 7.71875 11.625 
Q 12.109375 9.234375 16.796875 8.0625 
Q 21.484375 6.890625 26.703125 6.890625 
Q 35.15625 6.890625 40.078125 11.328125 
Q 45.015625 15.765625 45.015625 23.390625 
Q 45.015625 31 40.078125 35.4375 
Q 35.15625 39.890625 26.703125 39.890625 
Q 22.75 39.890625 18.8125 39.015625 
Q 14.890625 38.140625 10.796875 36.28125 
z
" id="DejaVuSans-53"/>
       </defs>
       <use xlink:href="#DejaVuSans-50"/>
       <use x="63.623047" xlink:href="#DejaVuSans-46"/>
       <use x="95.410156" xlink:href="#DejaVuSans-53"/>
      </g>
     </g>
    </g>
    <g id="ytick_2">
     <g id="line2d_6">
      <path clip-path="url(#pf68733821c)" d="M 54 276.620333 
L 388.8 276.620333 
" style="fill:none;stroke:#000000;stroke-linecap:square;stroke-opacity:0;stroke-width:0.8;"/>
     </g>
     <g id="line2d_7">
      <g>
       <use style="stroke:#000000;stroke-width:0.8;" x="54" xlink:href="#m301fcb1385" y="276.620333"/>
      </g>
     </g>
     <g id="text_6">
      <!-- 5.0 -->
      <g transform="translate(31.096875 280.419552)scale(0.1 -0.1)">
       <defs>
        <path d="M 31.78125 66.40625 
Q 24.171875 66.40625 20.328125 58.90625 
Q 16.5 51.421875 16.5 36.375 
Q 16.5 21.390625 20.328125 13.890625 
Q 24.171875 6.390625 31.78125 6.390625 
Q 39.453125 6.390625 43.28125 13.890625 
Q 47.125 21.390625 47.125 36.375 
Q 47.125 51.421875 43.28125 58.90625 
Q 39.453125 66.40625 31.78125 66.40625 
z
M 31.78125 74.21875 
Q 44.046875 74.21875 50.515625 64.515625 
Q 56.984375 54.828125 56.984375 36.375 
Q 56.984375 17.96875 50.515625 8.265625 
Q 44.046875 -1.421875 31.78125 -1.421875 
Q 19.53125 -1.421875 13.0625 8.265625 
Q 6.59375 17.96875 6.59375 36.375 
Q 6.59375 54.828125 13.0625 64.515625 
Q 19.53125 74.21875 31.78125 74.21875 
z
" id="DejaVuSans-48"/>
       </defs>
       <use xlink:href="#DejaVuSans-53"/>
       <use x="63.623047" xlink:href="#DejaVuSans-46"/>
       <use x="95.410156" xlink:href="#DejaVuSans-48"/>
      </g>
     </g>
    </g>
    <g id="ytick_3">
     <g id="line2d_8">
      <path clip-path="url(#pf68733821c)" d="M 54 241.811396 
L 388.8 241.811396 
" style="fill:none;stroke:#000000;stroke-linecap:square;stroke-opacity:0;stroke-width:0.8;"/>
     </g>
     <g id="line2d_9">
      <g>
       <use style="stroke:#000000;stroke-width:0.8;" x="54" xlink:href="#m301fcb1385" y="241.811396"/>
      </g>
     </g>
     <g id="text_7">
      <!-- 7.5 -->
      <g transform="translate(31.096875 245.610615)scale(0.1 -0.1)">
       <defs>
        <path d="M 8.203125 72.90625 
L 55.078125 72.90625 
L 55.078125 68.703125 
L 28.609375 0 
L 18.3125 0 
L 43.21875 64.59375 
L 8.203125 64.59375 
z
" id="DejaVuSans-55"/>
       </defs>
       <use xlink:href="#DejaVuSans-55"/>
       <use x="63.623047" xlink:href="#DejaVuSans-46"/>
       <use x="95.410156" xlink:href="#DejaVuSans-53"/>
      </g>
     </g>
    </g>
    <g id="ytick_4">
     <g id="line2d_10">
      <path clip-path="url(#pf68733821c)" d="M 54 207.002459 
L 388.8 207.002459 
" style="fill:none;stroke:#000000;stroke-linecap:square;stroke-opacity:0;stroke-width:0.8;"/>
     </g>
     <g id="line2d_11">
      <g>
       <use style="stroke:#000000;stroke-width:0.8;" x="54" xlink:href="#m301fcb1385" y="207.002459"/>
      </g>
     </g>
     <g id="text_8">
      <!-- 10.0 -->
      <g transform="translate(24.734375 210.801678)scale(0.1 -0.1)">
       <defs>
        <path d="M 12.40625 8.296875 
L 28.515625 8.296875 
L 28.515625 63.921875 
L 10.984375 60.40625 
L 10.984375 69.390625 
L 28.421875 72.90625 
L 38.28125 72.90625 
L 38.28125 8.296875 
L 54.390625 8.296875 
L 54.390625 0 
L 12.40625 0 
z
" id="DejaVuSans-49"/>
       </defs>
       <use xlink:href="#DejaVuSans-49"/>
       <use x="63.623047" xlink:href="#DejaVuSans-48"/>
       <use x="127.246094" xlink:href="#DejaVuSans-46"/>
       <use x="159.033203" xlink:href="#DejaVuSans-48"/>
      </g>
     </g>
    </g>
    <g id="ytick_5">
     <g id="line2d_12">
      <path clip-path="url(#pf68733821c)" d="M 54 172.193523 
L 388.8 172.193523 
" style="fill:none;stroke:#000000;stroke-linecap:square;stroke-opacity:0;stroke-width:0.8;"/>
     </g>
     <g id="line2d_13">
      <g>
       <use style="stroke:#000000;stroke-width:0.8;" x="54" xlink:href="#m301fcb1385" y="172.193523"/>
      </g>
     </g>
     <g id="text_9">
      <!-- 12.5 -->
      <g transform="translate(24.734375 175.992741)scale(0.1 -0.1)">
       <use xlink:href="#DejaVuSans-49"/>
       <use x="63.623047" xlink:href="#DejaVuSans-50"/>
       <use x="127.246094" xlink:href="#DejaVuSans-46"/>
       <use x="159.033203" xlink:href="#DejaVuSans-53"/>
      </g>
     </g>
    </g>
    <g id="ytick_6">
     <g id="line2d_14">
      <path clip-path="url(#pf68733821c)" d="M 54 137.384586 
L 388.8 137.384586 
" style="fill:none;stroke:#000000;stroke-linecap:square;stroke-opacity:0;stroke-width:0.8;"/>
     </g>
     <g id="line2d_15">
      <g>
       <use style="stroke:#000000;stroke-width:0.8;" x="54" xlink:href="#m301fcb1385" y="137.384586"/>
      </g>
     </g>
     <g id="text_10">
      <!-- 15.0 -->
      <g transform="translate(24.734375 141.183804)scale(0.1 -0.1)">
       <use xlink:href="#DejaVuSans-49"/>
       <use x="63.623047" xlink:href="#DejaVuSans-53"/>
       <use x="127.246094" xlink:href="#DejaVuSans-46"/>
       <use x="159.033203" xlink:href="#DejaVuSans-48"/>
      </g>
     </g>
    </g>
    <g id="ytick_7">
     <g id="line2d_16">
      <path clip-path="url(#pf68733821c)" d="M 54 102.575649 
L 388.8 102.575649 
" style="fill:none;stroke:#000000;stroke-linecap:square;stroke-opacity:0;stroke-width:0.8;"/>
     </g>
     <g id="line2d_17">
      <g>
       <use style="stroke:#000000;stroke-width:0.8;" x="54" xlink:href="#m301fcb1385" y="102.575649"/>
      </g>
     </g>
     <g id="text_11">
      <!-- 17.5 -->
      <g transform="translate(24.734375 106.374867)scale(0.1 -0.1)">
       <use xlink:href="#DejaVuSans-49"/>
       <use x="63.623047" xlink:href="#DejaVuSans-55"/>
       <use x="127.246094" xlink:href="#DejaVuSans-46"/>
       <use x="159.033203" xlink:href="#DejaVuSans-53"/>
      </g>
     </g>
    </g>
    <g id="ytick_8">
     <g id="line2d_18">
      <path clip-path="url(#pf68733821c)" d="M 54 67.766712 
L 388.8 67.766712 
" style="fill:none;stroke:#000000;stroke-linecap:square;stroke-opacity:0;stroke-width:0.8;"/>
     </g>
     <g id="line2d_19">
      <g>
       <use style="stroke:#000000;stroke-width:0.8;" x="54" xlink:href="#m301fcb1385" y="67.766712"/>
      </g>
     </g>
     <g id="text_12">
      <!-- 20.0 -->
      <g transform="translate(24.734375 71.565931)scale(0.1 -0.1)">
       <use xlink:href="#DejaVuSans-50"/>
       <use x="63.623047" xlink:href="#DejaVuSans-48"/>
       <use x="127.246094" xlink:href="#DejaVuSans-46"/>
       <use x="159.033203" xlink:href="#DejaVuSans-48"/>
      </g>
     </g>
    </g>
    <g id="text_13">
     <!-- Energy, [E] -->
     <g transform="translate(18.654687 209.545312)rotate(-90)scale(0.1 -0.1)">
      <defs>
       <path d="M 54.890625 33.015625 
L 54.890625 0 
L 45.90625 0 
L 45.90625 32.71875 
Q 45.90625 40.484375 42.875 44.328125 
Q 39.84375 48.1875 33.796875 48.1875 
Q 26.515625 48.1875 22.3125 43.546875 
Q 18.109375 38.921875 18.109375 30.90625 
L 18.109375 0 
L 9.078125 0 
L 9.078125 54.6875 
L 18.109375 54.6875 
L 18.109375 46.1875 
Q 21.34375 51.125 25.703125 53.5625 
Q 30.078125 56 35.796875 56 
Q 45.21875 56 50.046875 50.171875 
Q 54.890625 44.34375 54.890625 33.015625 
z
" id="DejaVuSans-110"/>
       <path d="M 45.40625 27.984375 
Q 45.40625 37.75 41.375 43.109375 
Q 37.359375 48.484375 30.078125 48.484375 
Q 22.859375 48.484375 18.828125 43.109375 
Q 14.796875 37.75 14.796875 27.984375 
Q 14.796875 18.265625 18.828125 12.890625 
Q 22.859375 7.515625 30.078125 7.515625 
Q 37.359375 7.515625 41.375 12.890625 
Q 45.40625 18.265625 45.40625 27.984375 
z
M 54.390625 6.78125 
Q 54.390625 -7.171875 48.1875 -13.984375 
Q 42 -20.796875 29.203125 -20.796875 
Q 24.46875 -20.796875 20.265625 -20.09375 
Q 16.0625 -19.390625 12.109375 -17.921875 
L 12.109375 -9.1875 
Q 16.0625 -11.328125 19.921875 -12.34375 
Q 23.78125 -13.375 27.78125 -13.375 
Q 36.625 -13.375 41.015625 -8.765625 
Q 45.40625 -4.15625 45.40625 5.171875 
L 45.40625 9.625 
Q 42.625 4.78125 38.28125 2.390625 
Q 33.9375 0 27.875 0 
Q 17.828125 0 11.671875 7.65625 
Q 5.515625 15.328125 5.515625 27.984375 
Q 5.515625 40.671875 11.671875 48.328125 
Q 17.828125 56 27.875 56 
Q 33.9375 56 38.28125 53.609375 
Q 42.625 51.21875 45.40625 46.390625 
L 45.40625 54.6875 
L 54.390625 54.6875 
z
" id="DejaVuSans-103"/>
       <path d="M 32.171875 -5.078125 
Q 28.375 -14.84375 24.75 -17.8125 
Q 21.140625 -20.796875 15.09375 -20.796875 
L 7.90625 -20.796875 
L 7.90625 -13.28125 
L 13.1875 -13.28125 
Q 16.890625 -13.28125 18.9375 -11.515625 
Q 21 -9.765625 23.484375 -3.21875 
L 25.09375 0.875 
L 2.984375 54.6875 
L 12.5 54.6875 
L 29.59375 11.921875 
L 46.6875 54.6875 
L 56.203125 54.6875 
z
" id="DejaVuSans-121"/>
       <path d="M 11.71875 12.40625 
L 22.015625 12.40625 
L 22.015625 4 
L 14.015625 -11.625 
L 7.71875 -11.625 
L 11.71875 4 
z
" id="DejaVuSans-44"/>
       <path d="M 8.59375 75.984375 
L 29.296875 75.984375 
L 29.296875 69 
L 17.578125 69 
L 17.578125 -6.203125 
L 29.296875 -6.203125 
L 29.296875 -13.1875 
L 8.59375 -13.1875 
z
" id="DejaVuSans-91"/>
       <path d="M 30.421875 75.984375 
L 30.421875 -13.1875 
L 9.71875 -13.1875 
L 9.71875 -6.203125 
L 21.390625 -6.203125 
L 21.390625 69 
L 9.71875 69 
L 9.71875 75.984375 
z
" id="DejaVuSans-93"/>
      </defs>
      <use xlink:href="#DejaVuSans-69"/>
      <use x="63.183594" xlink:href="#DejaVuSans-110"/>
      <use x="126.5625" xlink:href="#DejaVuSans-101"/>
      <use x="188.085938" xlink:href="#DejaVuSans-114"/>
      <use x="227.449219" xlink:href="#DejaVuSans-103"/>
      <use x="290.925781" xlink:href="#DejaVuSans-121"/>
      <use x="350.105469" xlink:href="#DejaVuSans-44"/>
      <use x="381.892578" xlink:href="#DejaVuSans-32"/>
      <use x="413.679688" xlink:href="#DejaVuSans-91"/>
      <use x="452.693359" xlink:href="#DejaVuSans-69"/>
      <use x="515.876953" xlink:href="#DejaVuSans-93"/>
     </g>
    </g>
   </g>
   <g id="line2d_20">
    <path clip-path="url(#pf68733821c)" d="M 109.8 267.624898 
L 109.8 307.8 
" style="fill:none;"/>
   </g>
   <g id="line2d_21">
    <path clip-path="url(#pf68733821c)" d="M 109.8 227.811246 
L 109.8 174.885792 
" style="fill:none;"/>
   </g>
   <g id="line2d_22">
    <path clip-path="url(#pf68733821c)" d="M 221.4 257.471747 
L 221.4 299.370569 
" style="fill:none;"/>
   </g>
   <g id="line2d_23">
    <path clip-path="url(#pf68733821c)" d="M 221.4 209.781704 
L 221.4 143.039613 
" style="fill:none;"/>
   </g>
   <g id="line2d_24">
    <path clip-path="url(#pf68733821c)" d="M 333 252.24967 
L 333 307.406714 
" style="fill:none;"/>
   </g>
   <g id="line2d_25">
    <path clip-path="url(#pf68733821c)" d="M 333 169.72352 
L 333 55.8 
" style="fill:none;"/>
   </g>
   <g id="patch_3">
    <path clip-path="url(#pf68733821c)" d="M 93.06 267.624898 
L 126.54 267.624898 
L 126.54 227.811246 
L 93.06 227.811246 
L 93.06 267.624898 
z
" style="fill:#ffc0cb;"/>
   </g>
   <g id="patch_4">
    <path clip-path="url(#pf68733821c)" d="M 204.66 257.471747 
L 238.14 257.471747 
L 238.14 209.781704 
L 204.66 209.781704 
L 204.66 257.471747 
z
" style="fill:#add8e6;"/>
   </g>
   <g id="patch_5">
    <path clip-path="url(#pf68733821c)" d="M 316.26 252.24967 
L 349.74 252.24967 
L 349.74 169.72352 
L 316.26 169.72352 
L 316.26 252.24967 
z
" style="fill:#90ee90;"/>
   </g>
   <g id="line2d_26">
    <path clip-path="url(#pf68733821c)" d="M 93.06 252.320927 
L 126.54 252.320927 
" style="fill:none;stroke:#ff7f0e;stroke-linecap:square;"/>
   </g>
   <g id="line2d_27">
    <defs>
     <path d="M 0 -3 
L -3 3 
L 3 3 
z
" id="m9c19765eca" style="stroke:#2ca02c;stroke-linejoin:miter;"/>
    </defs>
    <g clip-path="url(#pf68733821c)">
     <use style="fill:#2ca02c;stroke:#2ca02c;stroke-linejoin:miter;" x="109.8" xlink:href="#m9c19765eca" y="245.468552"/>
    </g>
   </g>
   <g id="line2d_28">
    <path clip-path="url(#pf68733821c)" d="M 204.66 239.029383 
L 238.14 239.029383 
" style="fill:none;stroke:#ff7f0e;stroke-linecap:square;"/>
   </g>
   <g id="line2d_29">
    <g clip-path="url(#pf68733821c)">
     <use style="fill:#2ca02c;stroke:#2ca02c;stroke-linejoin:miter;" x="221.4" xlink:href="#m9c19765eca" y="232.25768"/>
    </g>
   </g>
   <g id="line2d_30">
    <path clip-path="url(#pf68733821c)" d="M 316.26 217.413648 
L 349.74 217.413648 
" style="fill:none;stroke:#ff7f0e;stroke-linecap:square;"/>
   </g>
   <g id="line2d_31">
    <g clip-path="url(#pf68733821c)">
     <use style="fill:#2ca02c;stroke:#2ca02c;stroke-linejoin:miter;" x="333" xlink:href="#m9c19765eca" y="208.037768"/>
    </g>
   </g>
   <g id="patch_6">
    <path d="M 54 320.4 
L 54 43.2 
" style="fill:none;stroke:#000000;stroke-linecap:square;stroke-linejoin:miter;stroke-width:0.8;"/>
   </g>
   <g id="patch_7">
    <path d="M 388.8 320.4 
L 388.8 43.2 
" style="fill:none;stroke:#000000;stroke-linecap:square;stroke-linejoin:miter;stroke-width:0.8;"/>
   </g>
   <g id="patch_8">
    <path d="M 54 320.4 
L 388.8 320.4 
" style="fill:none;stroke:#000000;stroke-linecap:square;stroke-linejoin:miter;stroke-width:0.8;"/>
   </g>
   <g id="patch_9">
    <path d="M 54 43.2 
L 388.8 43.2 
" style="fill:none;stroke:#000000;stroke-linecap:square;stroke-linejoin:miter;stroke-width:0.8;"/>
   </g>
   <g id="text_14">
    <!-- $p&lt;10^{-4}$ -->
    <g transform="translate(154.44 283.582121)scale(0.1 -0.1)">
     <defs>
      <path d="M 49.609375 33.6875 
Q 49.609375 40.875 46.484375 44.671875 
Q 43.359375 48.484375 37.5 48.484375 
Q 33.5 48.484375 29.859375 46.4375 
Q 26.21875 44.390625 23.390625 40.484375 
Q 20.609375 36.625 18.9375 31.15625 
Q 17.28125 25.6875 17.28125 20.3125 
Q 17.28125 13.484375 20.40625 9.796875 
Q 23.53125 6.109375 29.296875 6.109375 
Q 33.546875 6.109375 37.1875 8.109375 
Q 40.828125 10.109375 43.40625 13.921875 
Q 46.1875 17.921875 47.890625 23.34375 
Q 49.609375 28.765625 49.609375 33.6875 
z
M 21.78125 46.390625 
Q 25.390625 51.125 30.296875 53.5625 
Q 35.203125 56 41.21875 56 
Q 49.609375 56 54.25 50.5 
Q 58.890625 45.015625 58.890625 35.109375 
Q 58.890625 27 56 19.65625 
Q 53.125 12.3125 47.703125 6.5 
Q 44.09375 2.640625 39.546875 0.609375 
Q 35.015625 -1.421875 29.984375 -1.421875 
Q 24.171875 -1.421875 20.21875 1 
Q 16.265625 3.421875 14.3125 8.203125 
L 8.6875 -20.796875 
L -0.296875 -20.796875 
L 14.40625 54.6875 
L 23.390625 54.6875 
z
" id="DejaVuSans-Oblique-112"/>
      <path d="M 73.1875 49.21875 
L 22.796875 31.296875 
L 73.1875 13.484375 
L 73.1875 4.59375 
L 10.59375 27.296875 
L 10.59375 35.40625 
L 73.1875 58.109375 
z
" id="DejaVuSans-60"/>
      <path d="M 10.59375 35.5 
L 73.1875 35.5 
L 73.1875 27.203125 
L 10.59375 27.203125 
z
" id="DejaVuSans-8722"/>
      <path d="M 37.796875 64.3125 
L 12.890625 25.390625 
L 37.796875 25.390625 
z
M 35.203125 72.90625 
L 47.609375 72.90625 
L 47.609375 25.390625 
L 58.015625 25.390625 
L 58.015625 17.1875 
L 47.609375 17.1875 
L 47.609375 0 
L 37.796875 0 
L 37.796875 17.1875 
L 4.890625 17.1875 
L 4.890625 26.703125 
z
" id="DejaVuSans-52"/>
     </defs>
     <use transform="translate(0 0.684375)" xlink:href="#DejaVuSans-Oblique-112"/>
     <use transform="translate(82.958984 0.684375)" xlink:href="#DejaVuSans-60"/>
     <use transform="translate(186.230469 0.684375)" xlink:href="#DejaVuSans-49"/>
     <use transform="translate(249.853516 0.684375)" xlink:href="#DejaVuSans-48"/>
     <use transform="translate(314.433594 38.965625)scale(0.7)" xlink:href="#DejaVuSans-8722"/>
     <use transform="translate(373.085938 38.965625)scale(0.7)" xlink:href="#DejaVuSans-52"/>
    </g>
   </g>
   <g id="text_15">
    <!-- $p&lt;10^{-4}$ -->
    <g transform="translate(266.04 283.582121)scale(0.1 -0.1)">
     <use transform="translate(0 0.684375)" xlink:href="#DejaVuSans-Oblique-112"/>
     <use transform="translate(82.958984 0.684375)" xlink:href="#DejaVuSans-60"/>
     <use transform="translate(186.230469 0.684375)" xlink:href="#DejaVuSans-49"/>
     <use transform="translate(249.853516 0.684375)" xlink:href="#DejaVuSans-48"/>
     <use transform="translate(314.433594 38.965625)scale(0.7)" xlink:href="#DejaVuSans-8722"/>
     <use transform="translate(373.085938 38.965625)scale(0.7)" xlink:href="#DejaVuSans-52"/>
    </g>
   </g>
   <g id="text_16">
    <!-- $p&lt;10^{-4}$ -->
    <g transform="translate(176.76 300.29041)scale(0.1 -0.1)">
     <use transform="translate(0 0.684375)" xlink:href="#DejaVuSans-Oblique-112"/>
     <use transform="translate(82.958984 0.684375)" xlink:href="#DejaVuSans-60"/>
     <use transform="translate(186.230469 0.684375)" xlink:href="#DejaVuSans-49"/>
     <use transform="translate(249.853516 0.684375)" xlink:href="#DejaVuSans-48"/>
     <use transform="translate(314.433594 38.965625)scale(0.7)" xlink:href="#DejaVuSans-8722"/>
     <use transform="translate(373.085938 38.965625)scale(0.7)" xlink:href="#DejaVuSans-52"/>
    </g>
   </g>
  </g>
 </g>
 <defs>
  <clipPath id="pf68733821c">
   <rect height="277.2" width="334.8" x="54" y="43.2"/>
  </clipPath>
 </defs>
</svg>
